<?xml version="1.0" encoding="utf-8"?>
<!-- Generator: Adobe Illustrator 16.0.4, SVG Export Plug-In . SVG Version: 6.00 Build 0)  -->
<!DOCTYPE svg PUBLIC "-//W3C//DTD SVG 1.1//EN" "http://www.w3.org/Graphics/SVG/1.1/DTD/svg11.dtd">
<svg version="1.1" id="Layer_1" xmlns="http://www.w3.org/2000/svg" xmlns:xlink="http://www.w3.org/1999/xlink" x="0px" y="0px"
	 width="418.694px" height="78.58px" viewBox="0 0 418.694 78.58" enable-background="new 0 0 418.694 78.58" xml:space="preserve">
<g>
	<path fill="#231F20" d="M97.774,59.294c0-0.675-0.297-1.215-1.646-1.431v-0.351c0.323,0,2.105,0.054,2.564,0.054
		c0.404,0,1.727-0.054,2.078-0.054v0.351c-0.567,0.162-0.756,0.81-0.756,1.512v5.21c0,0-0.702,0.053-2.052,0.459
		c-0.756,0.215-2.159,0.458-3.86,0.458c-5.506,0-9.771-3.239-9.771-9.016c0-5.452,3.941-8.907,9.286-8.907
		c1.646,0,3.239,0.54,3.94,0.702c0.756,0.162,1.135,0.189,1.215,0.189l0.162,2.807h-0.351c-0.378-0.756-0.972-1.35-1.647-1.754
		c-0.943-0.567-1.916-0.864-3.211-0.864c-4.104,0-6.938,3.212-6.938,7.504c0,4.778,2.915,8.26,7.611,8.26
		c1.646,0,2.889-0.702,3.375-0.999V59.294z"/>
	<path fill="#231F20" d="M102.935,64.908c0.566-0.243,1.188-0.54,1.188-1.053v-7.072c0-0.864-0.486-1.269-1.377-1.458v-0.297
		l3.023-1.242h0.297c0.027,0.513,0.107,2.024,0.107,2.024c0.676-0.891,1.485-2.024,3.158-2.024c0.621,0,1.215,0.162,1.729,0.378
		v2.457h-0.352c-0.432-0.783-1.106-1.377-1.997-1.377c-1.593,0-2.538,1.188-2.538,2.483v6.127c0,0.54,0.567,0.782,1.215,1.053v0.324
		c-0.351,0-1.916-0.054-2.268-0.054c-0.35,0-1.861,0.054-2.186,0.054V64.908z"/>
	<path fill="#231F20" d="M113.06,64.908c0.566-0.243,1.188-0.54,1.188-1.053v-7.072c0-0.864-0.486-1.269-1.377-1.458v-0.297
		l3.131-1.242h0.297v10.068c0,0.54,0.567,0.782,1.215,1.053v0.324c-0.351,0-1.916-0.054-2.268-0.054
		c-0.351,0-1.862,0.054-2.186,0.054V64.908z M115.191,49.333c0.647,0,1.215,0.567,1.215,1.188c0,0.648-0.567,1.188-1.215,1.188
		s-1.241-0.54-1.241-1.188C113.95,49.9,114.544,49.333,115.191,49.333z"/>
	<path fill="#231F20" d="M120.295,64.908c0.567-0.243,1.188-0.54,1.188-1.053v-8.854h-1.538v-0.756l1.538-0.27v-1.188
		c0-3.347,2.349-5.209,5.372-5.209c1.079,0,2.537,0.216,3.779,0.836c0.863-1.025,2.105-1.646,3.778-1.646
		c2.915,0,4.886,2.105,4.886,3.752c0,0.648-0.566,1.188-1.215,1.188s-1.242-0.54-1.242-1.188c0-1.403-1.188-2.78-2.617-2.78
		c-2.133,0-2.861,2.564-2.861,4.211v2.024h6.883l0.648-0.189h0.297v10.068c0,0.54,0.566,0.782,1.214,1.053v0.324
		c-0.351,0-1.917-0.054-2.267-0.054c-0.352,0-1.863,0.054-2.188,0.054v-0.324c0.567-0.243,1.188-0.54,1.188-1.053v-7.396
		c0-0.864-0.485-1.269-1.376-1.458h-4.399v8.854c0,0.54,0.729,0.837,1.484,1.053v0.324c-0.352,0-2.187-0.054-2.537-0.054
		c-0.352,0-1.863,0.054-2.188,0.054v-0.324c0.567-0.243,1.188-0.54,1.188-1.053v-8.854h-5.776v8.854c0,0.54,0.729,0.837,1.484,1.053
		v0.324c-0.352,0-2.187-0.054-2.537-0.054c-0.352,0-1.863,0.054-2.187,0.054V64.908z M129.311,53.976v-1.35
		c0-0.486,0.026-0.945,0.108-1.376c-0.027-1.376-0.999-2.699-2.754-2.699c-1.889,0-3.131,1.889-3.131,3.536v1.889H129.311z"/>
	<path fill="#231F20" d="M142.569,64.908c0.567-0.243,1.188-0.54,1.188-1.053v-7.072c0-0.864-0.485-1.269-1.377-1.458v-0.297
		l3.023-1.242h0.297l0.108,1.755c0.971-0.918,2.186-1.755,3.859-1.755c2.322,0,3.672,1.485,3.672,3.293v6.775
		c0,0.54,0.566,0.782,1.214,1.053v0.324c-0.351,0-1.917-0.054-2.267-0.054c-0.352,0-1.863,0.054-2.188,0.054v-0.324
		c0.567-0.243,1.188-0.54,1.188-1.053v-5.264c0-1.917-0.756-3.428-2.672-3.428c-1.215,0-2.268,0.81-2.807,1.484v7.207
		c0,0.54,0.566,0.782,1.215,1.053v0.324c-0.352,0-1.917-0.054-2.268-0.054c-0.352,0-1.863,0.054-2.188,0.054V64.908z"/>
	<path fill="#231F20" d="M163.062,64.882c0.837-0.162,1.296-0.838,1.296-1.539V49.657c0-0.675-0.486-1.269-1.296-1.458v-0.351h7.45
		c1.565,0,2.699-0.081,3.617-0.135l-0.055,3.023h-0.351c-0.351-1.08-1.161-1.728-2.564-1.728h-4.562v6.694h4.13
		c0.755,0,1.188-0.297,1.538-0.945h0.352c-0.027,0.27-0.027,1.161-0.027,1.485c0,0.297,0.054,1.215,0.054,1.512h-0.351
		c-0.352-0.621-0.811-0.945-1.565-0.945h-4.13v6.613c0,0.675,0.351,1.241,1.781,1.458v0.351c-0.324,0-2.24-0.054-2.699-0.054
		c-0.404,0-2.268,0.054-2.618,0.054V64.882z"/>
	<path fill="#231F20" d="M175.807,64.908c0.567-0.243,1.188-0.54,1.188-1.053v-7.072c0-0.864-0.485-1.269-1.376-1.458v-0.297
		l3.131-1.242h0.297v10.068c0,0.54,0.566,0.782,1.215,1.053v0.324c-0.352,0-1.917-0.054-2.268-0.054
		c-0.352,0-1.863,0.054-2.187,0.054V64.908z M177.938,49.333c0.648,0,1.215,0.567,1.215,1.188c0,0.648-0.566,1.188-1.215,1.188
		c-0.647,0-1.241-0.54-1.241-1.188C176.697,49.9,177.291,49.333,177.938,49.333z"/>
	<path fill="#231F20" d="M182.421,64.908c0.567-0.243,1.188-0.54,1.188-1.053v-7.072c0-0.864-0.485-1.269-1.377-1.458v-0.297
		l3.023-1.242h0.297l0.108,1.755c0.971-0.918,2.186-1.755,3.859-1.755c2.322,0,3.672,1.485,3.672,3.293v6.775
		c0,0.54,0.566,0.782,1.214,1.053v0.324c-0.351,0-1.917-0.054-2.267-0.054c-0.352,0-1.863,0.054-2.188,0.054v-0.324
		c0.567-0.243,1.188-0.54,1.188-1.053v-5.264c0-1.917-0.756-3.428-2.672-3.428c-1.215,0-2.268,0.81-2.807,1.484v7.207
		c0,0.54,0.566,0.782,1.215,1.053v0.324c-0.352,0-1.917-0.054-2.268-0.054c-0.352,0-1.863,0.054-2.188,0.054V64.908z"/>
	<path fill="#231F20" d="M197.812,54.327c1.025-0.297,2.213-0.54,3.805-0.54c3.213,0,3.86,1.646,3.86,3.455v5.615
		c0,0.864,0.271,1.08,0.594,1.08c0.189,0,0.486-0.027,0.621-0.107l0.189,0.432c0,0-0.567,0.297-1.134,0.674
		c-0.433,0.298-0.999,0.756-0.999,0.756c-0.378-0.35-0.837-0.943-1.106-1.699c-0.783,0.863-2.052,1.43-3.482,1.43
		c-2.051,0-3.509-0.972-3.509-3.158c0-2.052,1.943-3.104,3.913-3.455c0.541-0.081,2.268-0.108,2.862-0.108v-1.754
		c0-1.214-0.757-2.213-2.403-2.213c-1.322,0-2.213,0.648-2.861,1.782h-0.35V54.327z M203.426,59.564h-1.593
		c-1.593,0-2.996,0.863-2.996,2.591c0,1.242,0.836,1.971,1.862,1.971c1.079,0,2.159-0.594,2.727-1.512V59.564z"/>
	<path fill="#231F20" d="M208.827,64.908c0.566-0.243,1.188-0.54,1.188-1.053v-7.072c0-0.864-0.486-1.269-1.377-1.458v-0.297
		l3.023-1.242h0.297l0.108,1.755c0.972-0.918,2.186-1.755,3.859-1.755c2.321,0,3.671,1.485,3.671,3.293v6.775
		c0,0.54,0.567,0.782,1.215,1.053v0.324c-0.351,0-1.916-0.054-2.268-0.054c-0.351,0-1.862,0.054-2.187,0.054v-0.324
		c0.567-0.243,1.188-0.54,1.188-1.053v-5.264c0-1.917-0.756-3.428-2.673-3.428c-1.215,0-2.268,0.81-2.807,1.484v7.207
		c0,0.54,0.566,0.782,1.214,1.053v0.324c-0.351,0-1.916-0.054-2.267-0.054c-0.352,0-1.863,0.054-2.187,0.054V64.908z"/>
	<path fill="#231F20" d="M232.881,63.424c-0.594,0.702-2.078,1.997-4.211,1.997c-3.806,0-5.83-2.321-5.83-5.83
		c0-3.698,2.51-5.804,5.776-5.804c1.134,0,2.753,0.243,3.778,0.54v2.294h-0.351c-0.647-1.134-1.755-1.863-3.347-1.863
		c-2.268,0-3.671,1.809-3.671,4.535c0,3.023,1.646,4.832,3.994,4.832c1.458,0,2.727-0.514,3.401-1.215L232.881,63.424z"/>
	<path fill="#231F20" d="M235.719,64.908c0.566-0.243,1.188-0.54,1.188-1.053v-7.072c0-0.864-0.486-1.269-1.377-1.458v-0.297
		l3.131-1.242h0.297v10.068c0,0.54,0.567,0.782,1.215,1.053v0.324c-0.351,0-1.916-0.054-2.268-0.054
		c-0.351,0-1.862,0.054-2.186,0.054V64.908z M237.851,49.333c0.647,0,1.215,0.567,1.215,1.188c0,0.648-0.567,1.188-1.215,1.188
		s-1.241-0.54-1.241-1.188C236.609,49.9,237.203,49.333,237.851,49.333z"/>
	<path fill="#231F20" d="M243.791,54.327c1.026-0.297,2.214-0.54,3.807-0.54c3.212,0,3.859,1.646,3.859,3.455v5.615
		c0,0.864,0.271,1.08,0.594,1.08c0.189,0,0.486-0.027,0.621-0.107l0.189,0.432c0,0-0.567,0.297-1.134,0.674
		c-0.433,0.298-0.999,0.756-0.999,0.756c-0.378-0.35-0.837-0.943-1.106-1.699c-0.783,0.863-2.052,1.43-3.482,1.43
		c-2.052,0-3.509-0.972-3.509-3.158c0-2.052,1.943-3.104,3.914-3.455c0.539-0.081,2.267-0.108,2.861-0.108v-1.754
		c0-1.214-0.756-2.213-2.402-2.213c-1.323,0-2.214,0.648-2.861,1.782h-0.352V54.327z M249.406,59.564h-1.593
		c-1.593,0-2.996,0.863-2.996,2.591c0,1.242,0.837,1.971,1.862,1.971c1.079,0,2.159-0.594,2.727-1.512V59.564z"/>
	<path fill="#231F20" d="M254.808,64.908c0.566-0.243,1.188-0.54,1.188-1.053v-14.09c0-0.864-0.486-1.269-1.377-1.458v-0.297
		l3.132-1.242h0.297v17.086c0,0.54,0.566,0.782,1.214,1.053v0.324c-0.351,0-1.916-0.054-2.267-0.054
		c-0.352,0-1.863,0.054-2.187,0.054V64.908z"/>
	<path fill="#231F20" d="M266.552,64.882c0.999-0.352,1.296-0.864,1.674-1.809l5.426-13.416c0.242-0.594,0.62-1.97,0.62-1.97h1.404
		c0,0,0.351,1.376,0.566,1.97l5.021,13.416c0.378,0.999,0.756,1.539,1.755,1.809v0.351c-0.405,0-1.997-0.054-2.402-0.054
		s-1.943,0.054-2.349,0.054v-0.351c0.729-0.244,0.891-0.648,0.81-1.135c-0.026-0.215-0.242-0.836-0.323-1.025l-1.026-2.618h-6.883
		l-0.918,2.24c-0.107,0.243-0.378,1.188-0.404,1.323c-0.108,0.566,0.216,0.971,0.972,1.215v0.351c-0.324,0-1.458-0.054-1.809-0.054
		c-0.352,0-1.701,0.054-2.133,0.054V64.882z M277.322,58.943l-2.915-7.693l-3.104,7.693H277.322z"/>
	<path fill="#231F20" d="M284.696,64.908c0.566-0.243,1.188-0.54,1.188-1.053v-7.072c0-0.864-0.486-1.269-1.377-1.458v-0.297
		l3.131-1.242h0.297v10.068c0,0.54,0.567,0.782,1.215,1.053v0.324c-0.351,0-1.916-0.054-2.268-0.054
		c-0.351,0-1.862,0.054-2.186,0.054V64.908z M286.828,49.333c0.648,0,1.215,0.567,1.215,1.188c0,0.648-0.566,1.188-1.215,1.188
		c-0.647,0-1.241-0.54-1.241-1.188C285.587,49.9,286.181,49.333,286.828,49.333z"/>
	<path fill="#231F20" d="M303.27,64.261c0,0-0.567,0.297-1.134,0.674c-0.433,0.298-0.999,0.756-0.999,0.756
		c-0.378-0.35-0.837-0.943-1.106-1.699c-0.783,0.863-2.295,1.43-3.969,1.43c-2.753,0-4.669-2.645-4.669-5.668
		c0-3.185,2.024-5.965,5.047-5.965c1.377,0,2.564,0.486,3.375,1.377v-5.399c0-0.864-0.486-1.269-1.377-1.458v-0.297l3.131-1.242
		h0.297v16.088c0,0.864,0.271,1.08,0.594,1.08c0.189,0,0.486-0.027,0.621-0.107L303.27,64.261z M299.814,57.188
		c-0.189-1.35-1.566-2.187-3.051-2.187c-2.105,0-3.185,2.24-3.185,4.454c0,2.402,1.269,4.67,3.509,4.67
		c1.053,0,2.187-0.486,2.727-1.458V57.188z"/>
	<path fill="#231F20" d="M311.291,56.595c0-4.832,3.319-9.016,8.557-9.016c5.209,0,8.529,4.157,8.529,9.016
		c0,4.832-3.32,8.907-8.529,8.907C314.61,65.502,311.291,61.453,311.291,56.595z M325.921,56.595c0-4.049-1.809-7.936-6.073-7.936
		c-4.266,0-6.073,3.887-6.073,7.936c0,4.049,1.808,7.828,6.073,7.828C324.112,64.423,325.921,60.644,325.921,56.595z"/>
	<path fill="#231F20" d="M331.081,64.908c0.567-0.243,1.188-0.54,1.188-1.053v-8.854h-1.539v-0.756l1.539-0.27v-1.188
		c0-3.347,2.348-5.209,5.371-5.209c1.08,0,2.537,0.216,3.779,0.836c0.863-1.025,2.105-1.646,3.778-1.646
		c2.916,0,4.886,2.105,4.886,3.752c0,0.648-0.566,1.188-1.214,1.188c-0.648,0-1.242-0.54-1.242-1.188c0-1.403-1.188-2.78-2.618-2.78
		c-2.133,0-2.861,2.564-2.861,4.211v2.024h6.883l0.648-0.189h0.297v10.068c0,0.54,0.566,0.782,1.215,1.053v0.324
		c-0.352,0-1.917-0.054-2.268-0.054s-1.862,0.054-2.187,0.054v-0.324c0.566-0.243,1.188-0.54,1.188-1.053v-7.396
		c0-0.864-0.485-1.269-1.376-1.458h-4.4v8.854c0,0.54,0.729,0.837,1.484,1.053v0.324c-0.351,0-2.187-0.054-2.537-0.054
		s-1.862,0.054-2.187,0.054v-0.324c0.567-0.243,1.188-0.54,1.188-1.053v-8.854h-5.776v8.854c0,0.54,0.729,0.837,1.485,1.053v0.324
		c-0.352,0-2.187-0.054-2.538-0.054c-0.351,0-1.862,0.054-2.187,0.054V64.908z M340.097,53.976v-1.35
		c0-0.486,0.027-0.945,0.108-1.376c-0.027-1.376-0.999-2.699-2.753-2.699c-1.89,0-3.132,1.889-3.132,3.536v1.889H340.097z"/>
	<path fill="#231F20" d="M363.479,63.424c-0.594,0.702-2.078,1.997-4.211,1.997c-3.806,0-5.83-2.321-5.83-5.83
		c0-3.698,2.51-5.804,5.776-5.804c1.134,0,2.753,0.243,3.778,0.54v2.294h-0.351c-0.647-1.134-1.755-1.863-3.347-1.863
		c-2.268,0-3.671,1.809-3.671,4.535c0,3.023,1.646,4.832,3.994,4.832c1.458,0,2.727-0.514,3.401-1.215L363.479,63.424z"/>
	<path fill="#231F20" d="M375.845,63.694c-0.594,0.701-1.809,1.727-3.941,1.727c-3.806,0-5.83-2.321-5.83-5.83
		c0-3.563,2.456-5.804,5.398-5.804c2.861,0,4.724,2.024,4.589,4.346c0,0.189-0.027,0.432-0.081,0.566h-7.666
		c-0.351,3.104,1.377,5.426,3.94,5.426c1.458,0,2.457-0.244,3.132-0.945L375.845,63.694z M373.874,57.782
		c0.188-1.35-0.675-3.023-2.375-3.023c-1.782,0-2.835,1.647-3.078,3.023H373.874z"/>
</g>
<g>
	<path fill="#231F20" d="M83.333,34.127c0.971-0.252,1.547-1.08,1.547-1.799V14.546c0-0.684-0.539-1.512-1.547-1.799v-0.9
		c0.611,0,2.844,0.072,3.383,0.072c0.612,0,2.916-0.072,3.564-0.072v0.9c-0.973,0.252-1.549,1.08-1.549,1.799v7.199h12.419v-7.199
		c0-0.756-0.504-1.512-1.513-1.799v-0.9c0.613,0,2.916,0.072,3.528,0.072c0.54,0,2.735-0.072,3.384-0.072v0.9
		c-0.973,0.252-1.548,1.08-1.548,1.799v17.782c0,0.684,0.54,1.512,1.548,1.799v0.9c-0.612,0-2.844-0.072-3.384-0.072
		c-0.612,0-2.88,0.072-3.528,0.072v-0.9c0.973-0.252,1.513-1.043,1.513-1.799v-8.531H88.731v8.531c0,0.72,0.504,1.512,1.549,1.799
		v0.9c-0.613,0-2.952-0.072-3.564-0.072c-0.539,0-2.735,0.072-3.383,0.072V34.127z"/>
	<path fill="#231F20" d="M110.261,34.127c1.439-0.36,1.871-1.152,2.375-2.375l7.199-17.35c0.324-0.756,0.793-2.772,0.793-2.772
		h2.447c0,0,0.504,2.016,0.791,2.772l6.695,17.35c0.469,1.224,0.937,2.016,2.376,2.375v0.9c-0.899,0-3.023-0.072-3.563-0.072
		s-2.771,0.072-3.672,0.072v-0.9c1.045-0.36,1.152-0.864,1.08-1.332c-0.035-0.216-0.287-0.972-0.396-1.224l-1.224-3.131h-8.459
		l-1.297,3.131c-0.107,0.252-0.359,1.008-0.396,1.224c-0.071,0.468,0.288,0.972,1.332,1.332v0.9c-0.792,0-2.411-0.072-2.88-0.072
		c-0.468,0-2.268,0.072-3.203,0.072V34.127z M124.37,26.389l-3.275-8.459l-3.527,8.459H124.37z"/>
	<path fill="#231F20" d="M136.685,34.127c1.188-0.252,1.691-1.116,1.691-1.835V14.546c0-0.684-0.468-1.512-1.728-1.799v-0.9
		c0.792,0,3.023,0.072,3.636,0.072c1.043,0,3.995-0.216,5.184-0.216c4.175,0,8.459,1.908,8.459,6.875
		c0,2.916-2.125,5.183-5.292,6.083l5.327,6.839c0.792,1.044,1.908,2.052,2.988,2.627v0.792c-3.275,0.504-4.68,0.288-6.516-2.087
		l-6.155-7.883c-0.792,0-1.403-0.072-2.052-0.144v7.487c0,0.72,0.396,1.548,1.62,1.835v0.9c-0.792,0-3.06-0.072-3.672-0.072
		c-0.54,0-2.663,0.072-3.491,0.072V34.127z M142.228,23.113c0.648,0.072,1.512,0.144,2.447,0.144c3.924,0,5.111-2.556,5.111-4.715
		c0-3.06-1.907-5.147-5.326-5.147c-0.685,0-1.512,0.072-2.232,0.216V23.113z"/>
	<path fill="#231F20" d="M159.472,14.438c-0.396-1.08-0.863-1.404-1.979-1.728v-0.864c0.899,0,2.987,0.072,3.563,0.072
		c0.54,0,2.628-0.072,3.563-0.072v0.9c-0.864,0.144-1.439,0.54-1.439,0.9c0,0.216,0.18,0.756,0.396,1.295l5.688,15.083l5.867-14.722
		c0.252-0.612,0.18-1.44,0.145-1.656c-0.108-0.54-0.289-0.72-1.08-0.9v-0.9c0.863,0,2.375,0.072,2.916,0.072
		c0.504,0,2.016-0.072,2.915-0.072v0.9c-1.188,0.288-1.728,0.792-2.159,1.835l-8.424,20.806h-2.016L159.472,14.438z"/>
	<path fill="#231F20" d="M177.76,34.127c1.439-0.36,1.872-1.152,2.376-2.375l7.199-17.35c0.323-0.756,0.791-2.772,0.791-2.772h2.447
		c0,0,0.505,2.016,0.793,2.772l6.695,17.35c0.467,1.224,0.936,2.016,2.375,2.375v0.9c-0.9,0-3.023-0.072-3.562-0.072
		c-0.541,0-2.772,0.072-3.672,0.072v-0.9c1.043-0.36,1.15-0.864,1.08-1.332c-0.037-0.216-0.289-0.972-0.396-1.224l-1.225-3.131
		h-8.459l-1.295,3.131c-0.108,0.252-0.36,1.008-0.396,1.224c-0.072,0.468,0.288,0.972,1.332,1.332v0.9
		c-0.792,0-2.412-0.072-2.879-0.072c-0.469,0-2.269,0.072-3.204,0.072V34.127z M191.87,26.389l-3.275-8.459l-3.527,8.459H191.87z"/>
	<path fill="#231F20" d="M204.183,34.127c1.189-0.252,1.693-1.116,1.693-1.835V14.546c0-0.684-0.469-1.512-1.729-1.799v-0.9
		c0.791,0,3.023,0.072,3.635,0.072c1.045,0,3.996-0.216,5.184-0.216c4.176,0,8.459,1.908,8.459,6.875
		c0,2.916-2.123,5.183-5.291,6.083l5.328,6.839c0.791,1.044,1.906,2.052,2.986,2.627v0.792c-3.275,0.504-4.68,0.288-6.514-2.087
		l-6.156-7.883c-0.791,0-1.404-0.072-2.051-0.144v7.487c0,0.72,0.395,1.548,1.619,1.835v0.9c-0.793,0-3.061-0.072-3.672-0.072
		c-0.539,0-2.664,0.072-3.492,0.072V34.127z M209.728,23.113c0.646,0.072,1.512,0.144,2.447,0.144c3.924,0,5.111-2.556,5.111-4.715
		c0-3.06-1.908-5.147-5.328-5.147c-0.684,0-1.512,0.072-2.23,0.216V23.113z"/>
	<path fill="#231F20" d="M228.085,34.127c1.225-0.216,1.729-1.152,1.729-1.908V14.546c0-0.684-0.504-1.512-1.729-1.799v-0.9
		c0.793,0,3.025,0.072,3.637,0.072c1.043,0,4.176-0.216,6.443-0.216c7.271,0,12.166,5.291,12.166,12.13
		c0,6.623-4.967,11.338-12.166,11.338c-2.268,0-5.4-0.216-6.443-0.216c-0.611,0-2.809,0.072-3.637,0.072V34.127z M233.665,33.048
		c0.793,0.144,2.016,0.216,3.131,0.216c5.508,0,9.396-3.852,9.396-9.575c0-5.507-3.816-10.295-9.215-10.295
		c-1.152,0-2.52,0.072-3.312,0.216V33.048z"/>
	<path d="M282.804,30.096l-0.217,4.14c-0.18-0.036-1.008,0.072-1.871,0.252c-2.016,0.432-3.924,0.9-6.012,0.9
		c-8.1,0-12.418-5.328-12.418-11.951c0-6.695,4.787-11.951,12.418-11.951c1.943,0,3.779,0.504,5.65,0.9
		c1.008,0.216,1.477,0.252,1.873,0.252l0.215,4.14h-0.898c-1.297-2.556-4.033-3.348-6.84-3.348c-5.256,0-8.279,4.428-8.279,10.007
		c0,4.571,2.881,10.007,8.279,10.007c2.951,0,5.795-0.612,7.199-3.348H282.804z"/>
	<path d="M285.146,23.509c0-6.407,4.572-12.022,11.771-12.022c7.162,0,11.734,5.58,11.734,12.022
		c0,6.407-4.572,11.879-11.734,11.879C289.718,35.388,285.146,29.952,285.146,23.509z M304.513,23.509
		c0-5.183-2.232-10.079-7.596-10.079s-7.631,4.896-7.631,10.079c0,5.184,2.268,9.935,7.631,9.935S304.513,28.692,304.513,23.509z"/>
	<path d="M312.794,34.127c1.223-0.216,1.727-1.152,1.727-1.908V14.546c0-0.899-0.504-1.512-1.871-1.799v-0.9
		c0.611,0,3.203,0.072,3.816,0.072c0.539,0,3.166-0.072,3.814-0.072v0.9c-1.367,0.36-1.908,0.9-1.908,1.799v18.43h6.264
		c2.123,0,3.061-0.972,3.996-2.843l0.898,0.216l-0.574,4.823c-2.16-0.216-3.385-0.216-5.688-0.216h-6.84
		c-0.611,0-2.807,0.072-3.635,0.072V34.127z"/>
	<path d="M333.673,34.127c1.225-0.216,1.729-1.152,1.729-1.908V14.546c0-0.899-0.504-1.512-1.873-1.799v-0.9
		c0.613,0,3.205,0.072,3.816,0.072c0.539,0,3.168-0.072,3.816-0.072v0.9c-1.369,0.36-1.908,0.9-1.908,1.799v18.43h6.264
		c2.123,0,3.059-0.972,3.994-2.843l0.9,0.216l-0.576,4.823c-2.16-0.216-3.383-0.216-5.688-0.216h-6.838
		c-0.613,0-2.809,0.072-3.637,0.072V34.127z"/>
	<path d="M353.688,34.127c1.225-0.216,1.729-1.152,1.729-1.908V14.51c0-0.684-0.504-1.476-1.729-1.764v-0.9h14.004
		c0.359,0,0.936-0.072,1.332-0.288h0.898l-0.107,4.5h-0.9c-0.504-1.476-1.584-2.232-3.311-2.232h-6.336v8.099h5.58
		c0.898,0,1.512-0.432,1.979-1.332h0.936c-0.07,0.72-0.07,1.872-0.07,2.268c0,0.396,0.035,1.583,0.035,2.304h-0.9
		c-0.504-0.864-1.115-1.332-1.979-1.332h-5.58v9.143h6.264c2.195,0,3.275-0.828,3.959-2.124l0.936,0.216l-0.576,4.104
		c-2.158-0.216-3.383-0.216-5.686-0.216h-6.84c-0.611,0-2.809,0.072-3.637,0.072V34.127z"/>
	<path d="M391.956,27.108c0-0.648-0.18-1.404-2.053-1.728v-0.936c0.793,0,3.168,0.072,3.779,0.072c0.541,0,2.305-0.072,3.133-0.072
		v0.9c-0.756,0.216-1.008,0.972-1.008,1.872v6.947c0,0-1.225,0.108-2.988,0.612c-1.043,0.288-3.312,0.612-5.615,0.612
		c-7.486,0-13.031-4.32-13.031-12.022c0-7.271,5.436-11.879,12.744-11.879c2.086,0,3.418,0.504,5.326,0.9
		c1.008,0.216,1.477,0.252,1.871,0.252l0.217,4.14h-0.9c-1.223-2.16-3.742-3.348-6.371-3.348c-5.254,0-8.746,4.104-8.746,9.503
		c0,6.011,3.24,10.511,9.287,10.511c1.654,0,3.635-0.9,4.355-1.296V27.108z"/>
	<path d="M402.073,34.127c1.225-0.216,1.729-1.152,1.729-1.908V14.51c0-0.684-0.504-1.476-1.729-1.764v-0.9h14.002
		c0.359,0,0.936-0.072,1.332-0.288h0.9l-0.109,4.5H417.3c-0.504-1.476-1.584-2.232-3.312-2.232h-6.334v8.099h5.578
		c0.9,0,1.512-0.432,1.98-1.332h0.936c-0.072,0.72-0.072,1.872-0.072,2.268c0,0.396,0.037,1.583,0.037,2.304h-0.9
		c-0.504-0.864-1.117-1.332-1.98-1.332h-5.578v9.143h6.262c2.197,0,3.275-0.828,3.961-2.124l0.936,0.216l-0.576,4.104
		c-2.16-0.216-3.383-0.216-5.688-0.216h-6.84c-0.611,0-2.807,0.072-3.635,0.072V34.127z"/>
</g>
<path fill="#A51C30" stroke="#000000" stroke-width="1.056" d="M0,0h66.024c0,0,0,12.295,0,24.924
	c0,11.416-4.256,35.635-32.764,53.656c0,0-30.896-12.892-33.261-53.656C0,24.924,0,11.521,0,0z"/>
<path fill="#FFFFFF" d="M49.954,33.06c0,0-0.587,1.873-3.21-0.054l-8.986-0.213c0,0-1.178,0.373-1.338-0.857
	c0,0,0.215-2.459,0.107-2.674c0,0,0.053-0.696-1.125-0.696c0,0-1.818,0.214-1.869-1.39c0,0-0.321-1.715,2.191-1.662
	c0,0,0.803,0.377,0.855-0.641c0,0-0.107-6.955-0.053-7.488c0,0,0.216-0.642-1.016-0.749c0,0-1.767,0.374-1.979-0.801
	c0,0-0.107-1.766,1.068-1.875c0,0,1.443,0.109,1.711-0.268c0,0,0.322,0.214,0.268-1.065l0.055-2.198c0,0,0.158-0.586,1.07-0.533
	c0,0,1.658,0.109,1.87-0.053c0,0,0.374-0.482,0.483-0.695c0,0,0.857-0.052,1.018,0.158c0,0,1.284,0.857,6.148,0.537
	c0,0,0.752,0,0.912,0.214c0,0,0.906,0.694,1.445-0.052c0,0,0.803-0.162,3.206-0.109c0,0,2.622,0.695,4.443-0.8l0.586,0.103
	c0,0,0.747,1.23,1.285,0.858c0,0,1.604-0.161,1.874,0.159c0,0,0.533,0.801,0.266,2.89c0,0-0.323,0.909,1.232,0.909
	c0,0,1.764-0.322,1.548,1.336c0,0,0.483,1.874-2.46,1.606c0,0-0.373,0.537-0.32,0.91c0,0-0.053,6.098-0.109,6.793
	c0,0-0.051,0.964,1.232,0.91c0,0,1.713-0.109,1.768,1.442c0,0,0.211,2.034-2.25,1.659c0,0-0.75,0.107-0.855,0.59l-0.108,2.674
	c0,0,0.058,1.337-1.442,1.017c-0.213,0-8.344,0.161-9.041-0.052C50.436,32.9,50.059,32.846,49.954,33.06z"/>
<path fill="#FFFFFF" d="M32.586,42.13c0,0,0.371-0.157,0.477-0.425c0,0,1.123-0.109,1.285-0.27l3.534,0.27
	c0,0,3.472,0.268,4.972-0.807c0,0,0.537,0,0.912,0.162c0,0,0.748,0.16,0.959,0.482l2.035-0.056c0,0,1.176,0.375,1.069,1.126v0.959
	c0,0-0.212,1.928,0.321,2.036h1.553c0,0,1.281,0.589,1.124,1.337c0,0,0.05,1.068-1.069,1.281c0,0-1.127,0.322-1.502,0.27
	c0,0-0.373,0.482-0.427,1.068l-0.161,7.01c0,0-0.107,0.75,1.016,0.643c0,0,1.658-0.16,2.144,0.75c0,0,0.427,1.551-0.431,1.82
	l-0.639,0.319l-1.395,0.216c0,0-0.586,0.051-0.637,1.066v1.874c0,0,0.051,1.282-0.967,1.282l-1.499,0.106
	c0,0-0.374,0.321-1.119,0.108c0,0-9.095,0.16-9.42,0.055l-1.071,0.215c0,0-1.174,1.066-2.137,0.264l-0.753-0.588
	c0,0-0.53,0.109-0.745,0.055c-0.214-0.055-10.057,0.107-10.057,0.107s-2.086,0.216-2.247-0.481c0,0-0.266-2.729-0.159-3.052
	c0,0,0-0.801-0.484-0.854c0,0-2.084-0.107-2.139-0.323c0,0-1.123-0.802-0.802-1.601c0,0,0.374-1.073,1.497-1.178
	c0,0,1.712,0.268,1.712-0.216c0,0,0.109-0.321,0.109-0.854c0,0,0.106-6.367,0.054-6.797c0,0,0.158-0.8-0.535-0.8
	c0,0-0.75,0.212-1.232-0.109c0,0-1.285,0.054-1.551-0.961c0,0-0.213-0.642,0.105-1.183c0,0,0.588-1.176,2.301-0.799
	c0,0,0.965,0.268,1.07-0.426l-0.053-2.57c0,0-0.215-0.691,1.125-1.068c0,0,1.713,0.48,2.243-0.375c0,0,0.591-1.176,1.069-0.374
	c0,0,1.018,0.966,3.799,0.858c0,0,4.817-0.377,4.919-0.162c0,0,1.179,0.162,1.501,0.533L32.586,42.13z"/>
<path fill="#FFFFFF" d="M17.969,33.188c0,0-0.592,1.875-3.213-0.053L5.77,32.92c0,0-1.176,0.377-1.338-0.854
	c0,0,0.217-2.458,0.107-2.677c0,0,0.055-0.695-1.123-0.695c0,0-1.82,0.217-1.869-1.39c0,0-0.326-1.712,2.189-1.659
	c0,0,0.803,0.377,0.857-0.639c0,0-0.109-6.957-0.055-7.493c0,0,0.217-0.639-1.016-0.744c0,0-1.766,0.372-1.977-0.807
	c0,0-0.111-1.765,1.064-1.871c0,0,1.445,0.106,1.714-0.266c0,0,0.323,0.213,0.269-1.072l0.055-2.191c0,0,0.158-0.59,1.067-0.538
	c0,0,1.657,0.106,1.874-0.052c0,0,0.373-0.481,0.477-0.696c0,0,0.861-0.052,1.023,0.163c0,0,1.279,0.854,6.152,0.533
	c0,0,0.746,0,0.906,0.215c0,0,0.909,0.695,1.443-0.057c0,0,0.801-0.158,3.211-0.106c0,0,2.618,0.695,4.44-0.8l0.589,0.109
	c0,0,0.747,1.229,1.283,0.854c0,0,1.604-0.163,1.871,0.16c0,0,0.537,0.803,0.268,2.889c0,0-0.32,0.91,1.229,0.91
	c0,0,1.769-0.32,1.555,1.336c0,0,0.484,1.874-2.459,1.605c0,0-0.377,0.536-0.324,0.909c0,0-0.053,6.098-0.106,6.793
	c0,0-0.053,0.965,1.23,0.912c0,0,1.714-0.109,1.765,1.442c0,0,0.213,2.034-2.248,1.659c0,0-0.747,0.107-0.854,0.586l-0.107,2.677
	c0,0,0.053,1.339-1.448,1.017c-0.212,0-8.339,0.158-9.034-0.051C18.451,33.031,18.076,32.978,17.969,33.188z"/>
<path stroke="#000000" stroke-width="0.3587" d="M49.954,33.06c0,0-0.587,1.873-3.21-0.054l-8.986-0.213
	c0,0-1.178,0.373-1.338-0.857c0,0,0.215-2.459,0.107-2.674c0,0,0.053-0.696-1.125-0.696c0,0-1.818,0.214-1.869-1.39
	c0,0-0.321-1.715,2.191-1.662c0,0,0.803,0.377,0.855-0.641c0,0-0.107-6.955-0.053-7.488c0,0,0.216-0.642-1.016-0.749
	c0,0-1.767,0.374-1.979-0.801c0,0-0.107-1.766,1.068-1.875c0,0,1.443,0.109,1.711-0.268c0,0,0.322,0.214,0.268-1.065l0.055-2.198
	c0,0,0.158-0.586,1.07-0.533c0,0,1.658,0.109,1.87-0.053c0,0,0.374-0.482,0.483-0.695c0,0,0.857-0.052,1.018,0.158
	c0,0,1.284,0.857,6.148,0.537c0,0,0.752,0,0.912,0.214c0,0,0.906,0.694,1.445-0.052c0,0,0.803-0.162,3.206-0.109
	c0,0,2.622,0.695,4.443-0.8l0.586,0.103c0,0,0.747,1.23,1.285,0.858c0,0,1.604-0.161,1.874,0.159c0,0,0.533,0.801,0.266,2.89
	c0,0-0.323,0.909,1.232,0.909c0,0,1.764-0.322,1.548,1.336c0,0,0.483,1.874-2.46,1.606c0,0-0.373,0.537-0.32,0.91
	c0,0-0.053,6.098-0.109,6.793c0,0-0.051,0.964,1.232,0.91c0,0,1.713-0.109,1.768,1.442c0,0,0.211,2.034-2.25,1.659
	c0,0-0.75,0.107-0.855,0.59l-0.108,2.674c0,0,0.058,1.337-1.442,1.017c-0.213,0-8.344,0.161-9.041-0.052
	C50.436,32.9,50.059,32.846,49.954,33.06z"/>
<path fill="#FFFFFF" stroke="#000000" stroke-width="0.1793" d="M39.844,11.017c0,0,0.105,1.072,0.105,1.34
	c0,0.271-0.16,15.46-0.16,15.46s0.16,1.178-0.855,1.764c0,0-0.268,0.107-0.319-0.641l0.104-16.046
	C38.719,12.894,38.825,10.91,39.844,11.017z"/>
<path fill="#FFFFFF" d="M38.08,29.744c0,0,0.104-15.086,0.053-15.354c-0.053-0.269,0.051,0.213,0.051,0.213
	s-0.157-2.621,0.535-3.692c0,0-0.216-0.905-1.446,0.217l-0.049,2.192c0,0,0,1.231-1.124,1.176c0,0-1.285-0.055-1.872,0.533
	c0,0-0.323,1.179,0.91,0.965c0,0,1.923,0,2.03,0.802l-0.107,8.078c0,0,0.43,1.342-1.066,1.342c0,0-1.824-0.111-1.767,1.012
	c0,0,0.374,0.964,1.925,0.643c0,0,1.12,0.213,1.071,1.285v2.031c0,0-0.109,0.806,0.96,0.858h8.348c0,0,0.426,0.054,0.426-0.483
	c0,0-0.055-0.428-0.691-0.428l-6.955-0.107C39.311,31.025,38.184,31.4,38.08,29.744z"/>
<path fill="#FFFFFF" stroke="#000000" stroke-width="0.1793" d="M39.525,29.848c0,0-0.215,0.75,0.586,0.59h5.512l1.498,0.323
	c0,0,1.547-0.374,0-1.229c0,0-4.924,0.049-5.352-0.055c0,0-1.016-0.268-1.231-0.322C40.538,29.154,40.004,28.939,39.525,29.848z"/>
<path fill="#FFFFFF" d="M48.668,30.598c0,0-1.013,0-0.96,1.338c0,0,0.106,1.017,1.179,1.017c0,0,0.958-0.159,0.854-1.229
	C49.74,31.723,49.15,30.387,48.668,30.598z"/>
<path fill="#FFFFFF" stroke="#000000" stroke-width="0.1793" d="M49.419,30.063c0,0,0.483-0.532,0.802-0.532
	c0,0,5.354,0.479,6.26-0.162c0,0,0.803-0.16,1.018,0c0,0,0.801,0.641,0.801,1.018c0,0-0.053,0.479-1.016,0.211
	c0,0-6.045,0.056-6.365,0.056C50.918,30.653,49.258,31.025,49.419,30.063z"/>
<path fill="#FFFFFF" d="M50.277,31.668c0,0,0-0.428,0.746-0.428l7.487-0.055c0,0,0.698,0.375,0.698-0.908
	c0,0,0.273-5.829,0.3-12.254c0.009-1.907,0.097-3.913,0.024-5.773c0,0-0.164-0.802-0.379-0.966c0,0,0-0.855,0.909-0.533
	c0,0,0.804,0.055,0.591,1.287l0.053,1.868c0,0-0.162,0.806,1.284,0.589c0,0,1.439,0.217,1.497,0.75c0,0,0.43,1.069-1.281,0.962
	h-1.23c0,0-0.539,0.319-0.375,0.963l-0.164,7.758c0,0-0.104,1.338,1.179,1.287c0,0,1.337-0.057,1.604,0.371
	c0,0,0.913,1.339-1.069,1.23c0,0-1.231-0.053-1.496,0.159c0,0-0.217,0.269-0.375,2.785c0,0,0.109,1.496-1.016,1.337
	c0,0-7.438,0.107-8.131-0.054C51.133,32.044,50.385,32.257,50.277,31.668z"/>
<path fill="#FFFFFF" d="M40.646,10.532l-0.158,17.173c0,0-0.058,0.802,1.281,0.963c0,0,1.551,0.159,1.928,0
	c0,0,1.016-0.055,3.636,0.056c0,0,0.644,0.642,0.696-0.163c0,0,0.426-13.907,0.214-16.798c0,0-0.052-1.23-0.964-1.284
	c0,0-4.064,0.323-4.438,0l-1.606-0.427C41.234,10.052,40.591,10.104,40.646,10.532z"/>
<path fill="#FFFFFF" d="M49.1,11.39c0,0-0.164,8.077-0.109,8.343l-0.104,6.795l-0.219,2.354c0,0,0.322,0.483,0.59,0.165
	c0,0,1.713-0.434,2.781-0.27c0,0,3.426,0.318,4.119-0.217c0,0,0.537,0.267,0.693-0.588c0,0,0.217-14.977,0.111-15.245
	c0,0,0.211-2.143,0.105-2.356c0,0-0.051-0.478-0.964-0.054c0,0,0.107,0.43-4.972,0.268C51.133,10.585,49.205,10.532,49.1,11.39z"/>
<path fill="#FFFFFF" stroke="#000000" stroke-width="0.1793" d="M57.605,11.179l-0.055,16.903c0,0,0.43,1.498,1.123,1.341
	c0,0,0.104-0.321,0.16-0.857l0.214-16.104C59.048,12.462,58.511,9.896,57.605,11.179z"/>
<path d="M51.039,16.239c-0.162-0.428,0.91-0.48,0.91-0.48l0.531,0.109c0.377-0.057,0.752,0.104,0.752,0.104
	c0.375,0.588-0.268,0.909-0.268,0.909l-0.215,0.695c-0.053,0.59,0,5.672,0,5.672c0.107,0.266,0.535,0.745,0.535,0.745
	c0,0.483-0.588,0.378-0.588,0.378l-1.555,0.055c-0.479-0.055-0.318-0.59-0.318-0.59c0.535-0.269,0.693-1.232,0.693-1.232v-5.293
	L51.039,16.239z"/>
<path d="M43.816,21.213l-0.107,1.66l0.482,0.801c0.32,0.43-0.215,0.752-0.215,0.752l-1.712-0.162c-0.319-0.16,0-0.696,0-0.696
	c0.431-0.267,0.48-0.964,0.48-0.964l-0.05-3.103l0.05-2.247c0-0.266-0.428-0.748-0.428-0.748c-0.372-0.054-0.266-0.534-0.266-0.534
	c0.105-0.268,1.015-0.104,1.015-0.104h2.247c2.141,0.691,1.815,2.241,1.815,2.241c0.162,1.555-1.496,2.198-1.496,2.198l-0.106,0.854
	l1.554,2.457c0.268,0.217,0.211,0.43,0.211,0.43c-0.211,0.59-1.064,0-1.064,0l-1.928-2.997
	C44.136,20.838,43.816,21.213,43.816,21.213z M43.87,16.988c0.052,1.178,0.052,2.781,0.052,2.781c1.021,0.803,1.604-0.32,1.604-0.32
	c1.336-1.283,0-2.461-0.213-2.782c-0.216-0.323-1.286-0.055-1.286-0.055L43.87,16.988z"/>
<path stroke="#000000" stroke-width="0.3587" d="M32.586,42.13c0,0,0.371-0.157,0.477-0.425c0,0,1.123-0.109,1.285-0.27l3.534,0.27
	c0,0,3.472,0.268,4.972-0.807c0,0,0.537,0,0.912,0.162c0,0,0.748,0.16,0.959,0.482l2.035-0.056c0,0,1.176,0.375,1.069,1.126v0.959
	c0,0-0.212,1.928,0.321,2.036h1.553c0,0,1.281,0.589,1.124,1.337c0,0,0.05,1.068-1.069,1.281c0,0-1.127,0.322-1.502,0.27
	c0,0-0.373,0.482-0.427,1.068l-0.161,7.01c0,0-0.107,0.75,1.016,0.643c0,0,1.658-0.16,2.144,0.75c0,0,0.427,1.551-0.431,1.82
	l-0.639,0.319l-1.395,0.216c0,0-0.586,0.051-0.637,1.066v1.874c0,0,0.051,1.282-0.967,1.282l-1.499,0.106
	c0,0-0.374,0.321-1.119,0.108c0,0-9.095,0.16-9.42,0.055l-1.071,0.215c0,0-1.174,1.066-2.137,0.264l-0.753-0.588
	c0,0-0.53,0.109-0.745,0.055c-0.214-0.055-10.057,0.107-10.057,0.107s-2.086,0.216-2.247-0.481c0,0-0.266-2.729-0.159-3.052
	c0,0,0-0.801-0.484-0.854c0,0-2.084-0.107-2.139-0.323c0,0-1.123-0.802-0.802-1.601c0,0,0.374-1.073,1.497-1.178
	c0,0,1.712,0.268,1.712-0.216c0,0,0.109-0.321,0.109-0.854c0,0,0.106-6.367,0.054-6.797c0,0,0.158-0.8-0.535-0.8
	c0,0-0.75,0.212-1.232-0.109c0,0-1.285,0.054-1.551-0.961c0,0-0.213-0.642,0.105-1.183c0,0,0.588-1.176,2.301-0.799
	c0,0,0.965,0.268,1.07-0.426l-0.053-2.57c0,0-0.215-0.691,1.125-1.068c0,0,1.713,0.48,2.243-0.375c0,0,0.591-1.176,1.069-0.374
	c0,0,1.018,0.966,3.799,0.858c0,0,4.817-0.377,4.919-0.162c0,0,1.179,0.162,1.501,0.533L32.586,42.13z"/>
<path fill="#FFFFFF" d="M33.973,63.154c0,0,0.646-0.321,1.074-0.211c0.428,0.104,6.686-0.055,6.686-0.055s2.728,0.211,3.154-0.162
	l0.64-0.215c0,0,0.271-0.318,0.271-0.748s0.055-1.873,0.055-1.873l0.159-0.535c0,0-0.052-0.533,0-14.819c0,0,0.216-1.12-0.484-1.817
	c0,0,0-0.426,0.216-0.374c0.217,0.057,0.109,0.057,0.109,0.057s0.963-0.271,1.119,0.104c0,0,0.433,1.281,0.053,2.03
	c0,0-0.104,1.557,0.703,1.557c0,0,0.318,0.319,0.957,0.157c0,0,1.393,0.162,1.393,0.587c0,0,0,0.965-0.963,0.805l-1.284,0.106
	c0,0-0.858,0.162-0.749,1.176c0.105,1.018-0.057,8.293-0.057,8.293s0,0.859,1.34,0.806c0,0,1.662-0.056,1.662,0.425
	c0,0,0.426,1.07-0.752,1.124c0,0-2.25-0.054-2.088,0.586c0,0-0.162,1.499-0.267,1.767c0,0,0.216,1.23-0.053,1.445
	c0,0-0.161,0.695-1.605,0.586c0,0-9.2-0.051-10.642,0.055C34.619,64.01,33.76,63.904,33.973,63.154z"/>
<path fill="#FFFFFF" d="M32.316,62.142c0,0,0.91,0.158,0.91,1.013c0,0.855,0.053,1.338-0.484,1.444
	c-0.534,0.106-1.122-0.054-1.279-0.747C31.297,63.154,31.568,62.3,32.316,62.142z"/>
<path fill="#FFFFFF" stroke="#000000" stroke-width="0.1793" d="M33.386,61.709c0,0,0.962-0.643,1.336-0.531
	c0,0,4.869,0.318,6.366,0.053c1.5-0.268,0.59-0.053,0.59-0.053s1.283,0,1.658-0.484c0,0,0.373-0.105,0.588,0.27l0.801,0.859
	c0,0,0.057,0.531-0.854,0.478c0,0-8.72,0-8.985,0.054C34.885,62.354,33.227,62.619,33.386,61.709z"/>
<path fill="#FFFFFF" stroke="#000000" stroke-width="0.1793" d="M20.708,42.719c0,0,0.372,0,0.321,0.643l-0.111,16.156
	c0,0,0.162,1.07-0.744,1.766c0,0-0.484,0.588-0.484-0.32l0.215-16.476C19.904,44.487,19.959,43.254,20.708,42.719z"/>
<path fill="#FFFFFF" d="M19.852,42.828c0,0-0.644,1.176-0.588,1.443l-0.056,3.584c0,0-0.054,2.301,0,2.566
	c0.056,0.271-0.054,7.01-0.054,7.01s-0.052,1.282,0,1.713v2.887c0,0-0.105,1.284,0.857,0.961c0,0,9.415-0.213,10.004-0.049
	c0,0,0.855,0.156,0.537,0.588c0,0,0,0.373-0.59,0.267c0,0-4.443,0.424-8.455,0.267c0,0-2.675,0.157-2.836-0.16
	c0,0-0.426-0.053-0.426-1.604c0,0,0-1.444-0.105-1.712c0,0,0.105-0.752-1.232-0.91c0,0-1.871,0.321-1.924-0.803
	c0,0,0.266-0.799,2.084-0.695c0,0,1.339,0.215,1.072-0.855l0.16-7.916c0,0,0.161-1.395-0.748-1.447c0,0-0.856-0.051-1.125,0.053
	c0,0-1.553,0-1.443-0.908c0,0,0.533-0.963,2.084-0.749c0,0,1.178,0.214,1.232-1.122c0,0-0.055-2.729,0.589-2.833
	C18.89,42.401,20.227,42.45,19.852,42.828z"/>
<path fill="#FFFFFF" stroke="#000000" stroke-width="0.1793" d="M21.454,60.533c0,0,0.753,0.801,1.983,0.75l7.268,0.105
	c0,0,0.809,0.055,0.758,0.482c0,0-0.111,0.641-1.072,0.429l-8.774-0.106l-0.962,0.053c0,0-0.643-0.104,0.375-1.34L21.454,60.533z"/>
<path fill="#FFFFFF" stroke="#000000" stroke-width="0.1793" d="M43.924,59.836c0,0,0.644,1.23,0.963,1.395
	c0,0,0.589,0.693,0.43-0.537l0.11-15.41c0,0-0.166-0.533,0-1.389l-0.646-1.176c0,0-0.699-0.537-0.699,0.322l-0.105,16.424
	L43.924,59.836z"/>
<path fill="#FFFFFF" d="M32.051,52.504c0,0,0.053,1.283-0.111,2.516c-0.088,0.67,0.217,3.799-0.053,5.404
	c0,0-0.051,0.533-1.182,0.054c0,0-6.843,0.162-7.055-0.054c0,0-1.874,0.054-2.034-0.912c0,0,0.267-7.326,0.106-7.6
	c0,0-0.106-4.01,0-4.382c0,0,0.16-3.69,0.054-4.121c0,0,0.056-0.856-0.105-1.286c0,0,0-0.531,0.908-0.213
	c0,0,0.318,0.591,2.085,0.323c0,0,1.285,0.214,2.517,0.054c0,0,2.727-0.214,3.424,0c0,0,1.071-0.214,1.39,0.965l-0.055,3.315
	l0.322,1.071l0.377-0.27l0.155-0.802l0.054-3.53c0,0,0.215-0.645,1.072-0.75c0,0,1.338-0.164,1.555-0.054
	c0.211,0.106,3.097,0.268,3.903,0.106c0.803-0.162,0.96,0.535,3.372-0.695c0,0,0.641,0.055,0.641,0.479c0,0-0.221,4.551,0,5.407
	c0,0,0,8.344-0.164,8.933l0.109,2.676c0,0,0.105,1.176-1.766,1.285c0,0,1.18,0.161-6.208-0.055c0,0-1.177-0.055-2.457,0.534
	c0,0-0.267-0.056-0.267-0.749c0,0,0.209-2.513,0-4.976l-0.108-2.728L32.051,52.504z"/>
<path d="M27.234,48.712c0,0,0.16,3.958,0,4.493l-0.054,0.855c0,0,0.214,0.588,0.535,0.804c0,0,0.269,0.745-0.376,0.694
	c0,0-1.334-0.108-1.656-0.057c0,0-0.752,0,0-0.958c0,0,0.266-0.377,0.213-1.339c0,0,0-4.493,0.109-4.762
	c0,0,0.104-0.588-0.271-0.748l-0.643,0.053l-0.801,0.748c0,0-0.162,0.805-0.535-0.053v-0.43l0.482-1.283l0.32-0.054
	c0,0,0.482,0.323,0.91,0.429h2.516l0.909-0.429c0,0,0.371,0.054,0.269,0.534c0,0,0.156,1.232-0.537,1.392
	c0,0-0.429-0.159-0.641-0.747C27.984,47.855,27.287,47.482,27.234,48.712z"/>
<path d="M39.053,47.27c0,0-2.028-0.164-2.08,2.031c0,0-0.217,1.498,2.029,2.461c0,0,1.662,0.803,1.553,1.818
	c0,0-0.217,1.818-1.983,0.911c0,0-0.851-0.431-0.798-0.911c0,0-0.271-0.59-0.59-0.48c0,0-0.377,0.105-0.211,1.872
	c0,0,0,0.693,0.801,0l0.427,0.107c0,0,1.446,1.177,2.671-0.27c0,0,1.343-1.229,0.378-2.728c0,0-0.694-1.07-1.924-1.604
	c0,0-1.179-0.537-1.443-1.445c0,0,0.374-1.607,1.814-0.753c0,0,0.537,0.644,0.858,0.753c0,0,0.428,0,0.316-0.966L40.77,47.27
	c0,0-0.105-0.593-0.855,0C39.914,47.27,39.217,47.533,39.053,47.27z"/>
<path d="M32.53,46.143c0.375,0.27,0.427,0.803,0.427,0.803c1.072,2.836,1.981,6.953,1.981,6.953
	c0.265,0.537,0.747,0.966,0.747,0.966c0.907,0.32,0,0.586,0,0.586c-0.375,0.159-1.603-0.052-1.603-0.052
	c-0.644-0.107-0.378-0.319-0.378-0.319c0.268-0.27,0.055-1.341,0.055-1.341c-0.055-0.426-0.533-1.123-0.533-1.123
	c-0.216-0.105-0.588,0.375-0.588,0.375s-0.588,0.215-0.645,0c-0.055-0.215-0.426-0.426-0.426-0.426
	c-0.645,0-0.909,1.603-0.909,1.603c0.37,1.335,0,1.124,0,1.124c-0.323,0.43-1.341,0.107-1.341,0.107
	c-0.479-0.107-0.156-0.481-0.156-0.481c0.587-0.107,0.745-0.75,0.745-0.75c0.269-0.374,1.979-7.33,1.979-7.33
	C32.051,46.514,32.156,45.873,32.53,46.143z M31.676,49.67c-0.056,0.271-0.431,1.768-0.431,1.768l0.323,0.536
	c0,0,0.855,0.054,1.174,0.054c0.32,0,0.378-0.266,0.378-0.533c0-0.266-0.59-1.873-0.59-1.873l-0.269-0.32L31.676,49.67z"/>
<path stroke="#000000" stroke-width="0.3587" d="M17.969,33.188c0,0-0.592,1.875-3.213-0.053L5.77,32.92
	c0,0-1.176,0.377-1.338-0.854c0,0,0.217-2.458,0.107-2.677c0,0,0.055-0.695-1.123-0.695c0,0-1.82,0.217-1.869-1.39
	c0,0-0.326-1.712,2.189-1.659c0,0,0.803,0.377,0.857-0.639c0,0-0.109-6.957-0.055-7.493c0,0,0.217-0.639-1.016-0.744
	c0,0-1.766,0.372-1.977-0.807c0,0-0.111-1.765,1.064-1.871c0,0,1.445,0.106,1.714-0.266c0,0,0.323,0.213,0.269-1.072l0.055-2.191
	c0,0,0.158-0.59,1.067-0.538c0,0,1.657,0.106,1.874-0.052c0,0,0.373-0.481,0.477-0.696c0,0,0.861-0.052,1.023,0.163
	c0,0,1.279,0.854,6.152,0.533c0,0,0.746,0,0.906,0.215c0,0,0.909,0.695,1.443-0.057c0,0,0.801-0.158,3.211-0.106
	c0,0,2.618,0.695,4.44-0.8l0.589,0.109c0,0,0.747,1.229,1.283,0.854c0,0,1.604-0.163,1.871,0.16c0,0,0.537,0.803,0.268,2.889
	c0,0-0.32,0.91,1.229,0.91c0,0,1.769-0.32,1.555,1.336c0,0,0.484,1.874-2.459,1.605c0,0-0.377,0.536-0.324,0.909
	c0,0-0.053,6.098-0.106,6.793c0,0-0.053,0.965,1.23,0.912c0,0,1.714-0.109,1.765,1.442c0,0,0.213,2.034-2.248,1.659
	c0,0-0.747,0.107-0.854,0.586l-0.107,2.677c0,0,0.053,1.339-1.448,1.017c-0.212,0-8.339,0.158-9.034-0.051
	C18.451,33.031,18.076,32.978,17.969,33.188z"/>
<path fill="#FFFFFF" stroke="#000000" stroke-width="0.1793" d="M7.857,11.149c0,0,0.105,1.067,0.105,1.336
	c0,0.268-0.162,15.461-0.162,15.461s0.162,1.179-0.854,1.765c0,0-0.269,0.111-0.321-0.643l0.105-16.046
	C6.731,13.022,6.837,11.042,7.857,11.149z"/>
<path fill="#FFFFFF" d="M6.092,29.873c0,0,0.106-15.087,0.055-15.356c-0.055-0.266,0.052,0.218,0.052,0.218s-0.16-2.621,0.533-3.692
	c0,0-0.215-0.912-1.442,0.213L5.236,13.45c0,0,0,1.229-1.125,1.177c0,0-1.285-0.056-1.873,0.533c0,0-0.321,1.177,0.91,0.964
	c0,0,1.928,0,2.03,0.8l-0.103,8.082c0,0,0.425,1.337-1.072,1.337c0,0-1.818-0.108-1.766,1.015c0,0,0.373,0.966,1.928,0.645
	c0,0,1.123,0.211,1.07,1.282v2.034c0,0-0.109,0.803,0.962,0.854h8.347c0,0,0.426,0.055,0.426-0.484c0,0-0.055-0.42-0.693-0.42
	l-6.954-0.111C7.323,31.156,6.198,31.533,6.092,29.873z"/>
<path fill="#FFFFFF" stroke="#000000" stroke-width="0.1793" d="M7.534,29.979c0,0-0.211,0.752,0.587,0.587h5.514l1.498,0.32
	c0,0,1.553-0.373,0-1.229c0,0-4.924,0.055-5.352-0.049c0,0-1.014-0.27-1.228-0.323C8.554,29.284,8.016,29.068,7.534,29.979z"/>
<path fill="#FFFFFF" d="M16.686,30.73c0,0-1.019,0-0.965,1.335c0,0,0.104,1.017,1.175,1.017c0,0,0.965-0.162,0.858-1.229
	C17.754,31.854,17.164,30.513,16.686,30.73z"/>
<path fill="#FFFFFF" stroke="#000000" stroke-width="0.1793" d="M17.434,30.193c0,0,0.479-0.537,0.801-0.537
	c0,0,5.348,0.485,6.26-0.157c0,0,0.805-0.161,1.018,0c0,0,0.803,0.643,0.803,1.014c0,0-0.057,0.485-1.016,0.218
	c0,0-6.049,0.053-6.367,0.053C18.932,30.783,17.27,31.156,17.434,30.193z"/>
<path fill="#FFFFFF" d="M18.289,31.799c0,0,0-0.426,0.744-0.426l7.496-0.055c0,0,0.69,0.369,0.69-0.91c0,0,0.274-5.832,0.304-12.254
	c0.004-1.907,0.092-3.915,0.019-5.774c0,0-0.159-0.803-0.375-0.965c0,0,0-0.854,0.911-0.533c0,0,0.801,0.054,0.586,1.283
	l0.055,1.873c0,0-0.16,0.8,1.284,0.589c0,0,1.444,0.211,1.496,0.749c0,0,0.431,1.071-1.282,0.961h-1.23c0,0-0.533,0.322-0.373,0.966
	l-0.16,7.756c0,0-0.109,1.336,1.175,1.284c0,0,1.338-0.053,1.604,0.374c0,0,0.91,1.338-1.068,1.229c0,0-1.23-0.052-1.5,0.161
	c0,0-0.211,0.27-0.373,2.778c0,0,0.104,1.503-1.018,1.341c0,0-7.436,0.107-8.127-0.055C19.146,32.172,18.393,32.389,18.289,31.799z"
	/>
<path fill="#FFFFFF" d="M8.656,10.665l-0.158,17.17c0,0-0.053,0.801,1.283,0.964c0,0,1.555,0.16,1.926,0
	c0,0,1.017-0.055,3.638,0.053c0,0,0.644,0.643,0.696-0.16c0,0,0.428-13.909,0.214-16.798c0,0-0.055-1.229-0.964-1.282
	c0,0-4.066,0.319-4.438,0l-1.607-0.431C9.246,10.181,8.602,10.233,8.656,10.665z"/>
<path fill="#FFFFFF" stroke="#000000" stroke-width="0.1793" d="M25.619,11.308l-0.055,16.905c0,0,0.424,1.498,1.123,1.341
	c0,0,0.107-0.322,0.16-0.86l0.215-16.102C27.062,12.592,26.529,10.023,25.619,11.308z"/>
<path fill="#FFFFFF" d="M17.113,11.45c0,0-0.162,8.079-0.109,8.347l-0.102,6.795l-0.217,2.352c0,0,0.318,0.482,0.588,0.162
	c0,0,1.712-0.428,2.781-0.268c0,0,3.426,0.322,4.119-0.215c0,0,0.538,0.269,0.695-0.588c0,0,0.213-14.979,0.107-15.245
	c0,0,0.217-2.142,0.105-2.354c0,0-0.052-0.486-0.961-0.057c0,0,0.107,0.431-4.973,0.269C19.148,10.648,17.221,10.597,17.113,11.45z"
	/>
<path d="M15.462,16.397l-0.484,1.022c0,0-1.171,5.184-1.814,6.254c0,0-0.106,1.073-1.017,0.214c0,0-2.087-6.577-2.195-6.792
	l-0.693-0.483c0,0-0.426-0.586,0.32-0.641l1.98,0.055c0,0,0.641,0.533-0.214,1.123c0,0,0.105,0.854,1.231,4.118
	c0,0,0.318,1.229,0.693,0.318l1.071-3.796l-0.325-1.123c0,0-0.319-0.535,0.164-0.59C14.18,16.077,15.303,15.972,15.462,16.397z"/>
<path d="M18.566,17.254l-0.056,5.674l-0.158,0.426c0,0-0.536,0.695-0.163,0.75c0,0-0.478,0.322,3.426,0.373
	c0,0,1.498,0.271,1.121-1.658c0,0-0.158-0.696-0.693,0.322c0,0-0.162,0.853-2.086,0.584c0,0-0.427-0.371-0.427-0.797v-2.355
	c0,0-0.057-0.589,0.854-0.533c0,0,1.017,0.641,1.18,0.371c0,0,0.369-0.855,0-1.391c0,0-0.486-0.052-0.539,0.161
	c0,0-0.322,0.642-1.229,0.269c0,0-0.428-0.857-0.16-1.553c0,0-0.106-1.337,0.805-1.229c0,0,1.066,0.214,1.174,0.534
	c0,0,0.266,0.643,0.535-0.105l-0.27-0.909c0,0-0.158-0.375-0.427-0.267c0,0-1.817,0.267-2.034,0.052l-1.444,0.16
	c0,0-0.214,0.535,0.429,0.8C18.404,16.932,18.566,17.042,18.566,17.254z"/>
</svg>
