<?xml version="1.0" encoding="iso-8859-1"?>
<!-- Generator: Adobe Illustrator 16.2.1, SVG Export Plug-In . SVG Version: 6.00 Build 0)  -->
<!DOCTYPE svg PUBLIC "-//W3C//DTD SVG 1.1//EN" "http://www.w3.org/Graphics/SVG/1.1/DTD/svg11.dtd">
<svg version="1.1" id="Layer_1" xmlns="http://www.w3.org/2000/svg" xmlns:xlink="http://www.w3.org/1999/xlink" x="0px" y="0px"
	 width="272.491px" height="36.003px" viewBox="0 0 272.491 36.003" style="enable-background:new 0 0 272.491 36.003;"
	 xml:space="preserve">
<g>
	<defs>
		<rect id="SVGID_1_" x="-58.75" y="-32.243" width="428.979" height="136.493"/>
	</defs>
	<clipPath id="SVGID_2_">
		<use xlink:href="#SVGID_1_"  style="overflow:visible;"/>
	</clipPath>
	<path style="clip-path:url(#SVGID_2_);fill:#A51C30;" d="M0.718,0.589h29.345v11.085c0,5.079-1.891,15.85-14.563,23.867
		c0,0-13.731-5.734-14.782-23.867V0.589z"/>
	<path style="clip-path:url(#SVGID_2_);" d="M15.462,35.645l-0.055-0.023c-0.035-0.015-3.496-1.485-7.036-5.159
		c-3.265-3.389-7.273-9.401-7.818-18.799V0.459h29.576v11.198c0,4.423-1.425,15.612-14.616,23.956L15.462,35.645z M0.783,0.689
		v10.968c1.001,17.259,13.716,23.305,14.659,23.729c13.046-8.28,14.456-19.35,14.456-23.729V0.689H0.783z"/>
	<path style="clip-path:url(#SVGID_2_);fill:#FFFFFF;" d="M22.925,14.833c0,0-0.262,0.834-1.425-0.023l-3.994-0.097
		c0,0-0.524,0.169-0.595-0.379c0,0,0.095-1.093,0.048-1.188c0,0,0.023-0.309-0.502-0.309c0,0-0.807,0.095-0.83-0.619
		c0,0-0.142-0.761,0.975-0.736c0,0,0.357,0.166,0.38-0.287c0,0-0.047-3.091-0.023-3.328c0,0,0.095-0.284-0.453-0.332
		c0,0-0.784,0.165-0.879-0.356c0,0-0.048-0.786,0.475-0.833c0,0,0.642,0.047,0.761-0.119c0,0,0.143,0.094,0.119-0.475l0.024-0.978
		c0,0,0.069-0.26,0.476-0.235c0,0,0.735,0.047,0.831-0.025c0,0,0.166-0.213,0.215-0.309c0,0,0.38-0.023,0.451,0.072
		c0,0,0.571,0.38,2.734,0.237c0,0,0.335,0,0.403,0.095c0,0,0.406,0.31,0.643-0.023c0,0,0.356-0.072,1.426-0.047
		c0,0,1.166,0.308,1.974-0.357l0.263,0.047c0,0,0.332,0.545,0.568,0.38c0,0,0.714-0.07,0.832,0.072c0,0,0.238,0.355,0.12,1.285
		c0,0-0.142,0.404,0.548,0.404c0,0,0.784-0.143,0.688,0.593c0,0,0.215,0.833-1.093,0.714c0,0-0.166,0.239-0.143,0.405
		c0,0-0.023,2.709-0.047,3.02c0,0-0.023,0.428,0.547,0.404c0,0,0.761-0.049,0.786,0.641c0,0,0.093,0.904-1.001,0.736
		c0,0-0.332,0.049-0.382,0.263L27.8,14.334c0,0,0.022,0.595-0.641,0.452c-0.095,0-3.709,0.072-4.019-0.022
		C23.14,14.764,22.972,14.74,22.925,14.833"/>
	<path style="clip-path:url(#SVGID_2_);fill:#FFFFFF;" d="M15.247,18.808c0,0,0.165-0.071,0.213-0.187c0,0,0.5-0.05,0.57-0.121
		l1.569,0.121c0,0,1.546,0.116,2.212-0.361c0,0,0.239,0,0.405,0.073c0,0,0.332,0.072,0.427,0.212l0.903-0.024
		c0,0,0.523,0.169,0.475,0.502v0.427c0,0-0.095,0.856,0.143,0.904h0.69c0,0,0.571,0.262,0.5,0.595c0,0,0.024,0.472-0.475,0.569
		c0,0-0.501,0.143-0.665,0.12c0,0-0.167,0.214-0.193,0.476l-0.069,3.113c0,0-0.049,0.333,0.451,0.287c0,0,0.736-0.072,0.951,0.334
		c0,0,0.191,0.688-0.19,0.807l-0.285,0.14l-0.618,0.099c0,0-0.261,0.022-0.286,0.474v0.833c0,0,0.025,0.57-0.429,0.57L20.88,28.82
		c0,0-0.165,0.14-0.498,0.047c0,0-4.042,0.072-4.185,0.023l-0.477,0.096c0,0-0.522,0.476-0.951,0.117l-0.333-0.262
		c0,0-0.237,0.049-0.331,0.026c-0.096-0.026-4.471,0.046-4.471,0.046s-0.928,0.098-0.998-0.212c0,0-0.119-1.214-0.073-1.359
		c0,0,0-0.355-0.214-0.379c0,0-0.927-0.047-0.95-0.143c0,0-0.5-0.355-0.358-0.711c0,0,0.168-0.478,0.667-0.525
		c0,0,0.762,0.121,0.762-0.094c0,0,0.047-0.144,0.047-0.379c0,0,0.046-2.831,0.024-3.021c0,0,0.071-0.357-0.239-0.357
		c0,0-0.333,0.094-0.548-0.047c0,0-0.569,0.023-0.687-0.429c0,0-0.096-0.285,0.047-0.525c0,0,0.26-0.522,1.02-0.356
		c0,0,0.429,0.121,0.478-0.187l-0.023-1.143c0,0-0.096-0.309,0.498-0.475c0,0,0.761,0.214,0.998-0.166c0,0,0.263-0.525,0.474-0.168
		c0,0,0.455,0.429,1.692,0.384c0,0,2.139-0.169,2.185-0.076c0,0,0.524,0.076,0.665,0.24L15.247,18.808z"/>
	<path style="clip-path:url(#SVGID_2_);fill:#FFFFFF;" d="M8.781,14.833c0,0-0.264,0.834-1.427-0.024l-3.995-0.096
		c0,0-0.523,0.169-0.595-0.38c0,0,0.096-1.092,0.047-1.187c0,0,0.025-0.31-0.499-0.31c0,0-0.807,0.097-0.83-0.616
		c0,0-0.144-0.764,0.974-0.738c0,0,0.355,0.166,0.38-0.286c0,0-0.048-3.092-0.025-3.329c0,0,0.098-0.284-0.451-0.331
		c0,0-0.786,0.164-0.878-0.359c0,0-0.048-0.784,0.474-0.831c0,0,0.641,0.047,0.762-0.117c0,0,0.142,0.093,0.118-0.479L2.86,4.775
		c0,0,0.071-0.261,0.475-0.236c0,0,0.737,0.046,0.833-0.025c0,0,0.167-0.213,0.213-0.309c0,0,0.381-0.022,0.453,0.07
		c0,0,0.57,0.382,2.735,0.239c0,0,0.332,0,0.403,0.095c0,0,0.403,0.31,0.641-0.024c0,0,0.357-0.071,1.427-0.046
		c0,0,1.166,0.308,1.974-0.356l0.261,0.047c0,0,0.333,0.545,0.571,0.379c0,0,0.714-0.07,0.834,0.072c0,0,0.237,0.357,0.116,1.285
		c0,0-0.141,0.405,0.548,0.405c0,0,0.784-0.142,0.69,0.592c0,0,0.215,0.833-1.093,0.714c0,0-0.166,0.239-0.145,0.405
		c0,0-0.021,2.709-0.047,3.02c0,0-0.022,0.426,0.548,0.404c0,0,0.761-0.05,0.786,0.642c0,0,0.093,0.903-1,0.735
		c0,0-0.334,0.05-0.382,0.263l-0.046,1.187c0,0,0.025,0.596-0.641,0.455c-0.097,0-3.71,0.069-4.02-0.024
		C8.994,14.764,8.829,14.74,8.781,14.833"/>
	<path style="clip-path:url(#SVGID_2_);" d="M22.925,14.833c0,0-0.262,0.834-1.425-0.023l-3.994-0.097c0,0-0.524,0.169-0.595-0.379
		c0,0,0.095-1.093,0.048-1.188c0,0,0.023-0.309-0.502-0.309c0,0-0.807,0.095-0.83-0.619c0,0-0.142-0.761,0.975-0.736
		c0,0,0.357,0.166,0.38-0.287c0,0-0.047-3.091-0.023-3.328c0,0,0.095-0.284-0.453-0.332c0,0-0.784,0.165-0.879-0.356
		c0,0-0.048-0.786,0.475-0.833c0,0,0.642,0.047,0.761-0.119c0,0,0.143,0.094,0.119-0.475l0.024-0.978c0,0,0.069-0.26,0.476-0.235
		c0,0,0.735,0.047,0.831-0.025c0,0,0.166-0.213,0.215-0.309c0,0,0.38-0.023,0.451,0.072c0,0,0.571,0.38,2.734,0.237
		c0,0,0.335,0,0.403,0.095c0,0,0.406,0.31,0.643-0.023c0,0,0.356-0.072,1.426-0.047c0,0,1.166,0.308,1.974-0.357l0.263,0.047
		c0,0,0.332,0.545,0.568,0.38c0,0,0.714-0.07,0.832,0.072c0,0,0.238,0.355,0.12,1.285c0,0-0.142,0.404,0.548,0.404
		c0,0,0.784-0.143,0.688,0.593c0,0,0.215,0.833-1.093,0.714c0,0-0.166,0.239-0.143,0.405c0,0-0.023,2.709-0.047,3.02
		c0,0-0.023,0.428,0.547,0.404c0,0,0.761-0.049,0.786,0.641c0,0,0.093,0.904-1.001,0.736c0,0-0.332,0.049-0.382,0.263L27.8,14.334
		c0,0,0.022,0.595-0.641,0.452c-0.095,0-3.709,0.072-4.019-0.022C23.14,14.764,22.972,14.74,22.925,14.833"/>
	<path style="clip-path:url(#SVGID_2_);" d="M22.398,15.203c-0.248,0-0.552-0.131-0.901-0.389l-3.992-0.095
		c0.001,0-0.076,0.024-0.173,0.024c-0.171,0-0.382-0.071-0.426-0.408c0.001-0.012,0.094-1.094,0.049-1.187
		c-0.001-0.003,0.005-0.092-0.07-0.172c-0.083-0.089-0.227-0.134-0.428-0.134c0,0-0.036,0.005-0.092,0.005
		c-0.218,0-0.725-0.061-0.743-0.629c0-0.001-0.046-0.256,0.128-0.465c0.159-0.192,0.444-0.285,0.852-0.275
		c0.007,0.001,0.352,0.165,0.375-0.283c-0.001-0.03-0.047-3.094-0.023-3.328c0.001-0.002,0.025-0.077-0.027-0.155
		c-0.061-0.093-0.207-0.153-0.422-0.172c0.001,0.001-0.119,0.025-0.268,0.025c-0.248,0-0.557-0.066-0.615-0.385
		c0-0.009-0.042-0.791,0.479-0.839c0.002,0,0.087,0.007,0.199,0.007c0.176,0,0.482-0.016,0.558-0.123l0.003-0.004l0.004,0.002
		c0,0,0.008,0.006,0.019,0.006c0.012,0,0.023-0.006,0.034-0.017c0.034-0.036,0.072-0.145,0.059-0.46l0.024-0.977
		c0.001-0.004,0.068-0.242,0.427-0.242c0.018,0,0.035,0,0.055,0.002c0.002,0,0.238,0.015,0.458,0.015
		c0.262,0,0.345-0.022,0.369-0.039c0.001-0.002,0.165-0.213,0.214-0.308c0.003-0.003,0.043-0.005,0.1-0.005
		c0.138,0,0.312,0.013,0.359,0.077c0.003,0.001,0.419,0.267,1.818,0.267c0.282,0,0.589-0.011,0.911-0.032h0.001
		c0.016,0,0.338,0.001,0.407,0.097c0.001,0,0.172,0.129,0.353,0.129c0.115,0,0.21-0.051,0.282-0.152
		c0.005-0.002,0.271-0.055,1.003-0.055c0.135,0,0.278,0.002,0.427,0.006c0.004,0.001,0.275,0.071,0.639,0.071
		c0.371,0,0.903-0.074,1.331-0.428l0.267,0.046c0.006,0.006,0.256,0.412,0.471,0.412c0.034,0,0.066-0.01,0.094-0.03
		c0.005-0.001,0.183-0.019,0.373-0.019c0.259,0,0.416,0.031,0.466,0.091c0.003,0.004,0.238,0.368,0.12,1.289
		c0,0.003-0.041,0.124,0.035,0.231c0.078,0.111,0.25,0.167,0.509,0.167c0,0,0.062-0.011,0.147-0.011
		c0.139,0,0.328,0.028,0.447,0.163c0.09,0.103,0.124,0.254,0.099,0.447c0,0.001,0.064,0.256-0.096,0.463
		c-0.166,0.214-0.501,0.302-1,0.256c-0.017,0.026-0.161,0.245-0.141,0.399c0,0.028-0.022,2.714-0.046,3.021
		c0,0.001-0.007,0.149,0.102,0.263c0.086,0.091,0.218,0.136,0.394,0.136c0.014,0,0.029,0,0.046-0.001c0,0,0.011,0,0.032,0
		c0.123,0,0.737,0.031,0.759,0.646c0,0.003,0.03,0.323-0.17,0.545c-0.17,0.189-0.455,0.252-0.837,0.196
		c-0.002,0.001-0.328,0.051-0.376,0.259l-0.045,1.187c0,0.002,0.007,0.217-0.129,0.357c-0.111,0.115-0.287,0.149-0.518,0.1
		c-0.009,0-0.064,0.001-0.154,0.002c-0.399,0.007-1.459,0.025-2.375,0.025c-0.883,0-1.384-0.017-1.491-0.049
		c0,0-0.019-0.002-0.045-0.002c-0.048,0-0.133,0.008-0.164,0.069C22.928,14.838,22.811,15.203,22.398,15.203 M17.504,14.708
		l3.996,0.097c0.351,0.257,0.651,0.386,0.898,0.386c0.404,0,0.521-0.357,0.522-0.36c0.033-0.066,0.123-0.076,0.173-0.076
		c0.028,0,0.047,0.003,0.047,0.003c0.106,0.033,0.607,0.049,1.489,0.049c0.916,0,1.976-0.018,2.375-0.024
		c0.089-0.002,0.145-0.003,0.155-0.003c0.229,0.05,0.401,0.016,0.51-0.097c0.132-0.137,0.126-0.347,0.126-0.35l0.045-1.188
		c0.05-0.215,0.383-0.267,0.386-0.268c0.383,0.058,0.663-0.007,0.829-0.192c0.198-0.22,0.168-0.535,0.168-0.538
		c-0.021-0.591-0.579-0.637-0.749-0.637c-0.02,0-0.032,0-0.032,0c-0.016,0.001-0.031,0.001-0.046,0.001
		c-0.179,0-0.314-0.047-0.401-0.139c-0.112-0.118-0.105-0.269-0.105-0.271c0.024-0.307,0.046-2.993,0.047-3.019
		c-0.023-0.166,0.137-0.398,0.144-0.408l0.002-0.003l0.003,0.001c0.491,0.044,0.829-0.041,0.992-0.252
		c0.158-0.203,0.095-0.454,0.095-0.456c0.025-0.193-0.008-0.34-0.097-0.442c-0.115-0.131-0.302-0.159-0.439-0.159
		c-0.084,0-0.145,0.011-0.146,0.011c-0.264,0-0.438-0.058-0.519-0.171c-0.078-0.112-0.036-0.238-0.035-0.239
		c0.116-0.916-0.117-1.277-0.119-1.281c-0.047-0.057-0.206-0.087-0.458-0.087c-0.19,0-0.367,0.018-0.369,0.018
		c-0.028,0.02-0.062,0.031-0.098,0.031c-0.221,0-0.466-0.397-0.476-0.415l-0.259-0.044c-0.427,0.354-0.962,0.429-1.334,0.429
		c-0.366,0-0.637-0.071-0.64-0.072c-0.148-0.003-0.291-0.004-0.426-0.004c-0.731,0-0.996,0.051-0.998,0.052
		c-0.071,0.101-0.169,0.154-0.287,0.154c-0.185,0-0.358-0.131-0.36-0.132c-0.067-0.093-0.397-0.094-0.4-0.094
		c-0.323,0.021-0.63,0.032-0.912,0.032c-1.402,0-1.82-0.267-1.825-0.27c-0.048-0.065-0.241-0.074-0.352-0.074
		c-0.056,0-0.096,0.002-0.096,0.002c-0.044,0.093-0.21,0.306-0.211,0.308C18.28,4.545,18.154,4.56,17.941,4.56
		c-0.22,0-0.457-0.015-0.459-0.016c-0.019-0.001-0.037-0.001-0.054-0.001c-0.351,0-0.417,0.231-0.417,0.233l-0.025,0.976
		c0.011,0.252-0.01,0.414-0.061,0.467c-0.012,0.013-0.026,0.019-0.041,0.019c-0.009,0-0.016-0.002-0.02-0.004
		c-0.078,0.102-0.349,0.123-0.564,0.123c-0.112,0-0.198-0.006-0.199-0.006c-0.511,0.046-0.47,0.82-0.469,0.828
		c0.057,0.311,0.36,0.376,0.605,0.376c0.148,0,0.267-0.025,0.268-0.025c0.222,0.02,0.367,0.079,0.431,0.177
		c0.054,0.082,0.029,0.159,0.028,0.162c-0.024,0.233,0.022,3.296,0.022,3.327c-0.023,0.458-0.381,0.294-0.386,0.291
		c-0.017,0-0.034,0-0.052,0c-0.374,0-0.641,0.092-0.791,0.272c-0.17,0.205-0.126,0.456-0.125,0.458
		c0.018,0.559,0.518,0.619,0.733,0.619c0.056,0,0.091-0.003,0.092-0.003c0.204,0,0.351,0.045,0.435,0.136
		c0.078,0.084,0.072,0.174,0.072,0.178c0.046,0.092-0.044,1.143-0.048,1.188c0.043,0.329,0.25,0.398,0.416,0.398
		C17.427,14.732,17.503,14.708,17.504,14.708"/>
	<path style="clip-path:url(#SVGID_2_);fill:#FFFFFF;" d="M18.433,5.036c0,0,0.047,0.477,0.047,0.597c0,0.119-0.07,6.871-0.07,6.871
		s0.07,0.523-0.38,0.784c0,0-0.119,0.047-0.143-0.286l0.046-7.13C17.933,5.872,17.98,4.99,18.433,5.036"/>
	<path style="clip-path:url(#SVGID_2_);" d="M18.014,13.296c-0.033,0-0.115-0.028-0.133-0.294l0.046-7.13
		c0-0.009,0.051-0.844,0.472-0.844c0.011,0,0.022,0,0.034,0.002h0.005l0.001,0.005c0,0.005,0.046,0.479,0.046,0.597
		c0,0.118-0.069,6.804-0.07,6.872c0.001,0.004,0.066,0.529-0.383,0.789C18.031,13.294,18.024,13.296,18.014,13.296 M18.399,5.041
		c-0.41,0-0.46,0.824-0.46,0.832l-0.046,7.13c0.022,0.32,0.132,0.279,0.134,0.281c0.441-0.257,0.377-0.773,0.376-0.778
		c0.001-0.069,0.071-6.755,0.071-6.873c0-0.111-0.042-0.54-0.047-0.591C18.418,5.041,18.408,5.041,18.399,5.041"/>
	<path style="clip-path:url(#SVGID_2_);fill:#FFFFFF;" d="M17.648,13.359c0,0,0.047-6.704,0.024-6.823
		c-0.024-0.117,0.023,0.097,0.023,0.097s-0.071-1.167,0.237-1.644c0,0-0.096-0.402-0.642,0.096L17.268,6.06c0,0,0,0.548-0.498,0.524
		c0,0-0.571-0.025-0.833,0.236c0,0-0.143,0.525,0.404,0.43c0,0,0.855,0,0.903,0.355l-0.048,3.591c0,0,0.191,0.597-0.474,0.597
		c0,0-0.81-0.05-0.785,0.449c0,0,0.168,0.427,0.856,0.285c0,0,0.498,0.094,0.475,0.572v0.902c0,0-0.049,0.358,0.428,0.382h3.708
		c0,0,0.19,0.022,0.19-0.215c0,0-0.023-0.189-0.307-0.189l-3.091-0.049C18.195,13.93,17.695,14.098,17.648,13.359"/>
	<path style="clip-path:url(#SVGID_2_);fill:#FFFFFF;" d="M18.361,13.349c0,0-0.095,0.333,0.263,0.263h2.447l0.665,0.143
		c0,0,0.69-0.167,0-0.547c0,0-2.188,0.021-2.377-0.025c0,0-0.452-0.118-0.549-0.142C18.81,13.041,18.575,12.947,18.361,13.349"/>
	<path style="clip-path:url(#SVGID_2_);" d="M21.736,13.761L21.736,13.761l-0.665-0.143h-2.447
		c-0.112,0.024-0.199,0.004-0.244-0.054c-0.062-0.082-0.026-0.211-0.024-0.217c0.149-0.28,0.309-0.322,0.391-0.322
		c0.04,0,0.065,0.01,0.066,0.011c0.095,0.023,0.544,0.14,0.548,0.141c0.079,0.019,0.533,0.03,1.314,0.03
		c0.543,0,1.056-0.005,1.061-0.005c0.221,0.12,0.325,0.233,0.312,0.334c-0.02,0.153-0.299,0.222-0.31,0.225H21.736z M21.072,13.606
		l0.664,0.143c0.021-0.006,0.281-0.075,0.3-0.215c0.013-0.095-0.089-0.204-0.303-0.321c-0.002,0-0.515,0.006-1.058,0.006
		c-0.792,0-1.236-0.01-1.317-0.03c-0.004-0.001-0.453-0.119-0.549-0.142c-0.001-0.001-0.024-0.01-0.062-0.01
		c-0.08,0-0.235,0.041-0.38,0.315c0,0-0.035,0.128,0.023,0.205c0.04,0.054,0.121,0.07,0.233,0.049H21.072z"/>
	<path style="clip-path:url(#SVGID_2_);fill:#FFFFFF;" d="M22.426,13.681c0,0-0.452,0-0.429,0.596c0,0,0.049,0.45,0.524,0.45
		c0,0,0.427-0.07,0.381-0.546C22.902,14.181,22.64,13.587,22.426,13.681"/>
	<path style="clip-path:url(#SVGID_2_);fill:#FFFFFF;" d="M22.759,13.445c0,0,0.214-0.237,0.356-0.237c0,0,2.379,0.213,2.78-0.072
		c0,0,0.359-0.071,0.455,0c0,0,0.355,0.285,0.355,0.452c0,0-0.022,0.215-0.451,0.093c0,0-2.686,0.026-2.83,0.026
		C23.424,13.707,22.687,13.872,22.759,13.445"/>
	<path style="clip-path:url(#SVGID_2_);" d="M23.132,13.745c-0.165,0-0.279-0.035-0.338-0.106c-0.041-0.049-0.054-0.114-0.041-0.195
		c0.01-0.012,0.219-0.242,0.362-0.242c0.01,0.001,0.865,0.077,1.628,0.077c0.625,0,1.011-0.049,1.149-0.147
		c0.004-0.001,0.163-0.033,0.297-0.033c0.08,0,0.135,0.011,0.165,0.033c0.015,0.012,0.357,0.289,0.357,0.456
		c0,0.002-0.016,0.137-0.229,0.137c-0.065,0-0.142-0.012-0.23-0.037c-0.025,0-2.685,0.026-2.828,0.026
		C23.424,13.713,23.283,13.745,23.132,13.745 M23.115,13.213c-0.138,0-0.35,0.233-0.352,0.235c-0.011,0.074,0.002,0.137,0.04,0.182
		c0.057,0.068,0.167,0.102,0.329,0.102c0.15,0,0.289-0.031,0.291-0.031c0.144,0,2.804-0.026,2.831-0.026
		c0.088,0.024,0.164,0.037,0.228,0.037c0.201,0,0.217-0.121,0.217-0.125c0-0.162-0.349-0.444-0.353-0.446
		c-0.027-0.021-0.08-0.031-0.157-0.031c-0.132,0-0.291,0.031-0.293,0.032c-0.137,0.098-0.526,0.148-1.153,0.148
		C23.98,13.291,23.123,13.214,23.115,13.213"/>
	<path style="clip-path:url(#SVGID_2_);fill:#FFFFFF;" d="M23.068,14.216c0,0,0-0.192,0.334-0.192l3.328-0.023
		c0,0,0.31,0.167,0.31-0.403c0,0,0.122-2.592,0.132-5.445c0.002-0.85,0.042-1.741,0.011-2.567c0,0-0.072-0.357-0.169-0.431
		c0,0,0-0.379,0.406-0.236c0,0,0.356,0.024,0.261,0.572l0.025,0.83c0,0-0.072,0.358,0.569,0.262c0,0,0.642,0.096,0.666,0.333
		c0,0,0.189,0.477-0.569,0.429h-0.549c0,0-0.237,0.142-0.166,0.428l-0.071,3.449c0,0-0.048,0.593,0.524,0.571
		c0,0,0.592-0.026,0.712,0.165c0,0,0.406,0.594-0.475,0.547c0,0-0.548-0.025-0.666,0.072c0,0-0.095,0.118-0.167,1.236
		c0,0,0.049,0.667-0.45,0.592c0,0-3.307,0.048-3.615-0.022C23.449,14.383,23.116,14.48,23.068,14.216"/>
	<path style="clip-path:url(#SVGID_2_);fill:#FFFFFF;" d="M18.789,4.821l-0.071,7.635c0,0-0.024,0.354,0.57,0.426
		c0,0,0.689,0.071,0.855,0c0,0,0.455-0.024,1.617,0.024c0,0,0.288,0.288,0.311-0.072c0,0,0.189-6.179,0.094-7.466
		c0,0-0.025-0.547-0.428-0.571c0,0-1.806,0.145-1.972,0l-0.714-0.188C19.051,4.609,18.766,4.632,18.789,4.821"/>
	<path style="clip-path:url(#SVGID_2_);fill:#FFFFFF;" d="M22.544,5.202c0,0-0.071,3.591-0.047,3.711l-0.047,3.018l-0.096,1.046
		c0,0,0.143,0.214,0.262,0.073c0,0,0.761-0.193,1.237-0.118c0,0,1.524,0.141,1.83-0.098c0,0,0.239,0.118,0.309-0.261
		c0,0,0.093-6.656,0.05-6.775c0,0,0.091-0.954,0.043-1.047c0,0-0.02-0.214-0.425-0.025c0,0,0.046,0.192-2.211,0.118
		C23.449,4.844,22.593,4.821,22.544,5.202"/>
	<path style="clip-path:url(#SVGID_2_);fill:#FFFFFF;" d="M26.326,5.108l-0.022,7.512c0,0,0.189,0.668,0.497,0.598
		c0,0,0.047-0.144,0.071-0.381l0.097-7.158C26.969,5.679,26.73,4.54,26.326,5.108"/>
	<path style="clip-path:url(#SVGID_2_);" d="M26.756,13.229c-0.282,0-0.451-0.582-0.458-0.607l0.022-7.514
		c0.078-0.111,0.154-0.165,0.228-0.165c0.27,0,0.421,0.705,0.427,0.735l-0.096,7.159c-0.024,0.236-0.071,0.382-0.072,0.383
		l-0.001,0.003l-0.003,0.001C26.787,13.227,26.772,13.229,26.756,13.229 M26.548,4.955c-0.07,0-0.143,0.053-0.217,0.157
		l-0.021,7.509c0.001,0.004,0.173,0.596,0.446,0.596c0.014,0,0.027-0.001,0.041-0.004c0.007-0.023,0.048-0.162,0.07-0.377
		l0.097-7.157C26.962,5.673,26.808,4.955,26.548,4.955"/>
	<path style="clip-path:url(#SVGID_2_);" d="M23.406,7.358c-0.07-0.19,0.407-0.213,0.407-0.213l0.237,0.047
		c0.166-0.024,0.333,0.048,0.333,0.048c0.165,0.261-0.119,0.403-0.119,0.403l-0.096,0.31c-0.023,0.262,0,2.522,0,2.522
		c0.048,0.116,0.238,0.33,0.238,0.33c0,0.215-0.261,0.168-0.261,0.168l-0.69,0.023c-0.214-0.023-0.143-0.262-0.143-0.262
		c0.238-0.118,0.309-0.548,0.309-0.548V7.833L23.406,7.358z"/>
	<path style="clip-path:url(#SVGID_2_);" d="M20.199,9.57l-0.048,0.737l0.213,0.355c0.143,0.191-0.096,0.334-0.096,0.334
		l-0.76-0.071c-0.141-0.072,0-0.309,0-0.309c0.191-0.118,0.215-0.429,0.215-0.429l-0.024-1.378l0.024-1
		c0-0.118-0.189-0.331-0.189-0.331c-0.167-0.024-0.12-0.238-0.12-0.238c0.046-0.119,0.451-0.048,0.451-0.048h0.999
		c0.951,0.309,0.809,0.999,0.809,0.999c0.071,0.689-0.665,0.975-0.665,0.975l-0.049,0.38l0.69,1.092
		c0.119,0.096,0.095,0.192,0.095,0.192c-0.095,0.262-0.477,0-0.477,0l-0.855-1.332C20.341,9.402,20.199,9.57,20.199,9.57
		 M20.221,7.691c0.024,0.524,0.024,1.237,0.024,1.237c0.453,0.357,0.714-0.144,0.714-0.144c0.593-0.569,0-1.093-0.095-1.235
		c-0.097-0.144-0.572-0.025-0.572-0.025L20.221,7.691z"/>
	<path style="clip-path:url(#SVGID_2_);" d="M15.247,18.808c0,0,0.165-0.071,0.213-0.187c0,0,0.5-0.05,0.57-0.121l1.569,0.121
		c0,0,1.546,0.116,2.212-0.361c0,0,0.239,0,0.405,0.073c0,0,0.332,0.072,0.427,0.212l0.903-0.024c0,0,0.523,0.169,0.475,0.502v0.427
		c0,0-0.095,0.856,0.143,0.904h0.69c0,0,0.571,0.262,0.5,0.595c0,0,0.024,0.472-0.475,0.569c0,0-0.501,0.143-0.665,0.12
		c0,0-0.167,0.214-0.193,0.476l-0.069,3.113c0,0-0.049,0.333,0.451,0.287c0,0,0.736-0.072,0.951,0.334c0,0,0.191,0.688-0.19,0.807
		l-0.285,0.14l-0.618,0.099c0,0-0.261,0.022-0.286,0.474v0.833c0,0,0.025,0.57-0.429,0.57L20.88,28.82c0,0-0.165,0.14-0.498,0.047
		c0,0-4.042,0.072-4.185,0.023l-0.477,0.096c0,0-0.522,0.476-0.951,0.117l-0.333-0.262c0,0-0.237,0.049-0.331,0.026
		c-0.096-0.026-4.471,0.046-4.471,0.046s-0.928,0.098-0.998-0.212c0,0-0.119-1.214-0.073-1.359c0,0,0-0.355-0.214-0.379
		c0,0-0.927-0.047-0.95-0.143c0,0-0.5-0.355-0.358-0.711c0,0,0.168-0.478,0.667-0.525c0,0,0.762,0.121,0.762-0.094
		c0,0,0.047-0.144,0.047-0.379c0,0,0.046-2.831,0.024-3.021c0,0,0.071-0.357-0.239-0.357c0,0-0.333,0.094-0.548-0.047
		c0,0-0.569,0.023-0.687-0.429c0,0-0.096-0.285,0.047-0.525c0,0,0.26-0.522,1.02-0.356c0,0,0.429,0.121,0.478-0.187l-0.023-1.143
		c0,0-0.096-0.309,0.498-0.475c0,0,0.761,0.214,0.998-0.166c0,0,0.263-0.525,0.474-0.168c0,0,0.455,0.429,1.692,0.384
		c0,0,2.139-0.169,2.185-0.076c0,0,0.524,0.076,0.665,0.24L15.247,18.808z"/>
	<path style="clip-path:url(#SVGID_2_);" d="M15.13,29.211c-0.134,0-0.257-0.045-0.364-0.134l-0.333-0.261
		c0.001,0.002-0.151,0.032-0.26,0.032c-0.029,0-0.052-0.003-0.07-0.007c-0.009-0.002-0.064-0.005-0.276-0.005
		c-0.968,0-4.161,0.054-4.193,0.054c-0.001,0-0.137,0.014-0.306,0.014c-0.294,0-0.654-0.04-0.697-0.233
		c-0.005-0.05-0.119-1.217-0.072-1.359c0-0.002-0.003-0.35-0.21-0.372c-0.096-0.005-0.932-0.051-0.955-0.148
		c-0.003-0.001-0.5-0.359-0.357-0.714c0.002-0.005,0.174-0.48,0.671-0.529c0.003,0,0.216,0.034,0.414,0.034
		c0.155,0,0.342-0.021,0.342-0.124c0-0.003,0.048-0.146,0.048-0.38c0-0.028,0.046-2.832,0.024-3.018
		c0.001-0.004,0.034-0.177-0.05-0.278c-0.041-0.05-0.102-0.076-0.184-0.076c0.001,0-0.109,0.031-0.242,0.031
		c-0.125,0-0.229-0.026-0.308-0.077H7.741c-0.094,0-0.57-0.021-0.678-0.433c-0.001-0.002-0.095-0.288,0.047-0.527
		c0.002-0.003,0.201-0.392,0.741-0.392c0.09,0,0.186,0.011,0.285,0.032c0.001,0,0.084,0.024,0.179,0.024
		c0.119,0,0.267-0.037,0.293-0.207l-0.023-1.141c-0.001-0.002-0.025-0.082,0.03-0.184c0.07-0.128,0.228-0.228,0.471-0.297
		c0.005,0,0.219,0.06,0.451,0.06c0.269,0,0.452-0.075,0.545-0.224c0.005-0.011,0.148-0.294,0.312-0.294
		c0.063,0,0.12,0.042,0.17,0.126c0.003,0.002,0.421,0.384,1.505,0.384c0.059,0,0.121-0.001,0.182-0.003
		c0.013-0.001,1.313-0.103,1.9-0.103c0.246,0,0.284,0.018,0.29,0.032c0.018,0,0.524,0.073,0.665,0.237l0.142,0.022
		c-0.001,0,0.16-0.07,0.208-0.185l0.001-0.003h0.002c0.005-0.001,0.498-0.049,0.568-0.118l1.573,0.118
		c0.001,0,0.173,0.013,0.422,0.013c0.474,0,1.336-0.048,1.785-0.372c0.003-0.003,0.244-0.001,0.411,0.073
		c0.013,0.003,0.334,0.073,0.428,0.214l0.9-0.026c0.007,0.002,0.528,0.174,0.48,0.507v0.426c-0.001,0.01-0.092,0.852,0.139,0.899
		h0.689c0.008,0.003,0.575,0.268,0.505,0.6c0.001,0.004,0.018,0.478-0.479,0.575c-0.004,0.001-0.433,0.122-0.625,0.122
		c-0.016,0-0.029-0.001-0.042-0.003c0.003,0-0.162,0.214-0.187,0.47l-0.07,3.116c0,0.002-0.013,0.101,0.056,0.181
		c0.072,0.082,0.205,0.116,0.39,0.099c0,0,0.05-0.005,0.126-0.005c0.242,0,0.672,0.044,0.831,0.342
		c0.002,0.008,0.188,0.695-0.194,0.815l-0.284,0.141l-0.62,0.097c-0.003,0-0.258,0.029-0.282,0.468v0.834
		c0,0.003,0.011,0.296-0.147,0.462c-0.073,0.075-0.169,0.113-0.286,0.113l-0.665,0.049c-0.001,0.002-0.093,0.079-0.278,0.079
		c-0.07,0-0.145-0.011-0.221-0.033c-0.021,0.001-2.271,0.04-3.458,0.04c-0.455,0-0.694-0.005-0.727-0.016l-0.475,0.095
		C15.721,28.961,15.443,29.211,15.13,29.211 M14.436,28.808l0.337,0.262c0.106,0.088,0.226,0.133,0.358,0.133
		c0.309,0,0.583-0.248,0.586-0.25l0.48-0.097c0.035,0.011,0.279,0.016,0.727,0.016c1.187,0,3.437-0.04,3.459-0.04
		c0.077,0.022,0.151,0.033,0.22,0.033c0.181,0,0.273-0.077,0.274-0.078l0.668-0.049c0.116,0,0.209-0.037,0.279-0.111
		c0.156-0.163,0.146-0.452,0.146-0.455v-0.834c0.024-0.449,0.287-0.478,0.289-0.478l0.619-0.097l0.284-0.141
		c0.373-0.117,0.19-0.795,0.188-0.802c-0.157-0.291-0.582-0.335-0.822-0.335c-0.075,0-0.125,0.005-0.125,0.005
		c-0.188,0.017-0.325-0.017-0.399-0.103c-0.072-0.083-0.058-0.183-0.058-0.188l0.071-3.115c0.024-0.26,0.191-0.476,0.193-0.478
		c0.015-0.003,0.03,0,0.045,0c0.191,0,0.618-0.12,0.622-0.121c0.49-0.095,0.473-0.561,0.473-0.566
		c0.067-0.325-0.492-0.588-0.497-0.59h-0.689c-0.241-0.047-0.151-0.873-0.147-0.908v-0.427c0.046-0.326-0.468-0.495-0.473-0.497
		l-0.902,0.025c-0.096-0.14-0.423-0.212-0.427-0.213c-0.166-0.072-0.403-0.073-0.405-0.073c-0.449,0.324-1.312,0.373-1.788,0.373
		c-0.25,0-0.421-0.013-0.423-0.013l-1.569-0.12c-0.066,0.068-0.521,0.115-0.567,0.12c-0.05,0.117-0.207,0.185-0.214,0.188
		l-0.147-0.023c-0.142-0.164-0.661-0.238-0.666-0.239c-0.008-0.012-0.051-0.028-0.285-0.028c-0.587,0-1.886,0.101-1.899,0.102
		c-0.062,0.002-0.123,0.003-0.183,0.003c-1.089,0-1.509-0.384-1.513-0.388c-0.049-0.081-0.103-0.122-0.162-0.122
		c-0.157,0-0.302,0.286-0.304,0.289c-0.094,0.152-0.28,0.229-0.553,0.229c-0.234,0-0.448-0.06-0.451-0.06
		c-0.233,0.067-0.395,0.168-0.462,0.291c-0.053,0.098-0.03,0.178-0.029,0.178l0.023,1.144c-0.028,0.178-0.18,0.215-0.303,0.215
		c-0.096,0-0.18-0.023-0.181-0.023C8.036,20.33,7.939,20.32,7.851,20.32c-0.534,0-0.73,0.383-0.732,0.386
		c-0.14,0.236-0.047,0.517-0.046,0.52c0.105,0.405,0.575,0.426,0.668,0.426h0.014c0.081,0.052,0.183,0.077,0.306,0.077
		c0.131,0,0.24-0.03,0.241-0.03h0.001c0.085,0,0.149,0.026,0.192,0.078c0.087,0.105,0.053,0.278,0.052,0.285
		c0.022,0.186-0.024,2.99-0.025,3.018c0,0.236-0.047,0.38-0.047,0.382c0,0.087-0.119,0.132-0.352,0.132
		c-0.199,0-0.412-0.034-0.415-0.034c-0.488,0.048-0.659,0.518-0.661,0.522c-0.139,0.348,0.351,0.703,0.356,0.706
		c0.02,0.079,0.691,0.129,0.948,0.143c0.216,0.023,0.218,0.38,0.218,0.384c-0.046,0.141,0.072,1.344,0.073,1.355
		c0.042,0.186,0.397,0.225,0.687,0.225c0.169,0,0.304-0.014,0.305-0.014c0.033-0.001,3.226-0.053,4.194-0.053
		c0.173,0,0.265,0.001,0.278,0.004c0.017,0.004,0.04,0.006,0.068,0.006C14.281,28.837,14.435,28.808,14.436,28.808"/>
	<path style="clip-path:url(#SVGID_2_);fill:#FFFFFF;" d="M15.863,28.153c0,0,0.287-0.146,0.478-0.095
		c0.19,0.045,2.971-0.025,2.971-0.025s1.213,0.097,1.404-0.072l0.283-0.096c0,0,0.12-0.142,0.12-0.33
		c0-0.194,0.023-0.834,0.023-0.834l0.073-0.236c0,0-0.024-0.239,0-6.589c0,0,0.093-0.496-0.216-0.807c0,0,0-0.189,0.095-0.166
		c0.097,0.025,0.048,0.025,0.048,0.025s0.428-0.121,0.498,0.046c0,0,0.192,0.568,0.025,0.902c0,0-0.048,0.691,0.311,0.691
		c0,0,0.141,0.144,0.427,0.07c0,0,0.618,0.074,0.618,0.262c0,0,0,0.43-0.429,0.358l-0.571,0.046c0,0-0.381,0.073-0.332,0.523
		c0.048,0.453-0.024,3.687-0.024,3.687s0,0.381,0.595,0.358c0,0,0.737-0.026,0.737,0.187c0,0,0.189,0.477-0.333,0.5
		c0,0-0.999-0.023-0.927,0.261c0,0-0.072,0.667-0.12,0.784c0,0,0.097,0.55-0.024,0.646c0,0-0.07,0.308-0.712,0.259
		c0,0-4.089-0.022-4.731,0.024C16.15,28.532,15.769,28.486,15.863,28.153"/>
	<path style="clip-path:url(#SVGID_2_);fill:#FFFFFF;" d="M15.127,27.7c0,0,0.404,0.071,0.404,0.453
		c0,0.379,0.023,0.594-0.216,0.641c-0.235,0.047-0.497-0.024-0.568-0.331C14.676,28.153,14.793,27.771,15.127,27.7"/>
	<path style="clip-path:url(#SVGID_2_);fill:#FFFFFF;" d="M15.603,27.51c0,0,0.427-0.287,0.595-0.237c0,0,2.161,0.141,2.828,0.024
		c0.665-0.119,0.261-0.024,0.261-0.024s0.572,0,0.735-0.216c0,0,0.169-0.045,0.264,0.121l0.355,0.382c0,0,0.027,0.235-0.379,0.212
		c0,0-3.876,0-3.994,0.023C16.268,27.795,15.532,27.912,15.603,27.51"/>
	<path style="clip-path:url(#SVGID_2_);" d="M16.046,27.816c-0.14,0-0.324-0.021-0.408-0.121c-0.04-0.048-0.054-0.111-0.041-0.187
		c0.017-0.013,0.368-0.248,0.556-0.248c0.018,0,0.033,0.002,0.047,0.006c0.009,0.001,1.09,0.07,1.949,0.07
		c0.406,0,0.701-0.015,0.877-0.045c0.223-0.04,0.35-0.061,0.377-0.061c0.004,0,0.011,0,0.012,0.007
		c0.001,0.005,0.001,0.009-0.071,0.027c0.149-0.007,0.545-0.041,0.674-0.212c0.004-0.002,0.025-0.008,0.056-0.008
		c0.054,0,0.153,0.017,0.218,0.13l0.354,0.381c0.002,0.006,0.008,0.071-0.045,0.131c-0.054,0.062-0.15,0.093-0.284,0.093
		c-0.018,0-0.036-0.001-0.056-0.002c-0.038,0-3.876,0-3.992,0.023C16.268,27.8,16.168,27.816,16.046,27.816 M16.153,27.272
		c-0.185,0-0.543,0.24-0.546,0.242c-0.011,0.069,0.003,0.128,0.041,0.173c0.081,0.097,0.261,0.117,0.398,0.117
		c0.121,0,0.22-0.015,0.221-0.015c0.117-0.024,3.837-0.024,3.995-0.024c0.019,0.001,0.037,0.002,0.055,0.002
		c0.13,0,0.223-0.03,0.275-0.089c0.05-0.055,0.043-0.118,0.043-0.118l-0.353-0.379c-0.059-0.103-0.146-0.125-0.208-0.125
		c-0.029,0-0.049,0.006-0.05,0.006c-0.16,0.214-0.713,0.216-0.737,0.216l-0.001-0.012c0.028-0.007,0.057-0.014,0.079-0.019
		c-0.059,0.006-0.171,0.026-0.337,0.055c-0.176,0.032-0.472,0.047-0.879,0.047c-0.86,0-1.941-0.07-1.952-0.071
		C16.184,27.274,16.169,27.272,16.153,27.272"/>
	<path style="clip-path:url(#SVGID_2_);fill:#FFFFFF;" d="M9.967,19.069c0,0,0.167,0,0.144,0.287l-0.05,7.179
		c0,0,0.073,0.476-0.332,0.785c0,0-0.215,0.261-0.215-0.143l0.098-7.323C9.612,19.854,9.634,19.307,9.967,19.069"/>
	<path style="clip-path:url(#SVGID_2_);" d="M9.601,27.409c-0.062,0-0.093-0.078-0.093-0.231l0.098-7.324
		c0-0.006,0.026-0.552,0.358-0.79c0.004,0,0.055,0,0.097,0.046c0.046,0.05,0.065,0.133,0.055,0.246l-0.049,7.179
		c0.001,0.004,0.069,0.482-0.335,0.79C9.731,27.327,9.662,27.409,9.601,27.409 M9.967,19.075c-0.323,0.233-0.349,0.774-0.35,0.779
		l-0.097,7.324c0,0.143,0.028,0.219,0.081,0.219c0.056,0,0.122-0.08,0.123-0.081c0.399-0.304,0.331-0.775,0.331-0.78l0.05-7.18
		c0.008-0.111-0.009-0.19-0.053-0.238C10.013,19.076,9.967,19.075,9.967,19.075"/>
	<path style="clip-path:url(#SVGID_2_);fill:#FFFFFF;" d="M9.587,19.118c0,0-0.286,0.523-0.262,0.643l-0.024,1.592
		c0,0-0.025,1.022,0,1.141c0.024,0.12-0.025,3.116-0.025,3.116s-0.022,0.568,0,0.76v1.284c0,0-0.046,0.572,0.38,0.426
		c0,0,4.186-0.095,4.449-0.021c0,0,0.379,0.071,0.238,0.261c0,0,0,0.167-0.263,0.119c0,0-1.973,0.189-3.757,0.119
		c0,0-1.189,0.07-1.259-0.071c0,0-0.191-0.024-0.191-0.715c0,0,0-0.641-0.046-0.76c0,0,0.046-0.336-0.549-0.406
		c0,0-0.831,0.144-0.856-0.356c0,0,0.12-0.355,0.927-0.309c0,0,0.595,0.095,0.478-0.382l0.07-3.516c0,0,0.073-0.622-0.333-0.645
		c0,0-0.379-0.022-0.5,0.023c0,0-0.689,0-0.642-0.4c0,0,0.239-0.43,0.927-0.334c0,0,0.524,0.095,0.548-0.498
		c0,0-0.024-1.214,0.261-1.26C9.158,18.929,9.754,18.95,9.587,19.118"/>
	<path style="clip-path:url(#SVGID_2_);fill:#FFFFFF;" d="M10.299,26.986c0,0,0.334,0.355,0.881,0.334l3.231,0.047
		c0,0,0.359,0.025,0.336,0.214c0,0-0.049,0.284-0.476,0.19l-3.9-0.048L9.942,27.75c0,0-0.287-0.05,0.169-0.596L10.299,26.986z"/>
	<path style="clip-path:url(#SVGID_2_);" d="M14.431,27.797c-0.049,0-0.103-0.007-0.161-0.019l-3.899-0.048l-0.429,0.026
		c-0.004,0-0.063-0.012-0.086-0.074c-0.027-0.073-0.005-0.225,0.25-0.531l0.194-0.173l0.004,0.005
		c0.003,0.003,0.318,0.333,0.829,0.333c0.015,0,0.031-0.001,0.047-0.001l3.231,0.047c0.01,0.001,0.229,0.017,0.312,0.118
		c0.025,0.029,0.035,0.064,0.03,0.102C14.753,27.584,14.713,27.797,14.431,27.797 M10.371,27.718l3.9,0.048
		c0.058,0.013,0.112,0.018,0.16,0.018c0.273,0,0.31-0.202,0.311-0.204c0.004-0.034-0.006-0.065-0.028-0.092
		c-0.08-0.098-0.301-0.115-0.303-0.115l-3.231-0.047c-0.016,0.001-0.032,0.001-0.047,0.001c-0.484,0-0.795-0.294-0.834-0.333
		l-0.184,0.165c-0.251,0.301-0.273,0.448-0.248,0.518c0.021,0.057,0.074,0.067,0.076,0.067L10.371,27.718z"/>
	<path style="clip-path:url(#SVGID_2_);fill:#FFFFFF;" d="M20.286,26.676c0,0,0.285,0.547,0.429,0.623c0,0,0.261,0.307,0.191-0.24
		l0.046-6.849c0,0-0.072-0.238,0-0.617l-0.284-0.523c0,0-0.311-0.238-0.311,0.142l-0.047,7.301L20.286,26.676z"/>
	<path style="clip-path:url(#SVGID_2_);" d="M20.846,27.391c-0.06,0-0.132-0.084-0.135-0.088c-0.143-0.075-0.419-0.602-0.431-0.624
		l0.024-0.167l0.047-7.3c0-0.183,0.074-0.222,0.136-0.222c0.086,0,0.181,0.072,0.185,0.074l0.285,0.526
		c-0.07,0.377-0.001,0.616,0,0.618l-0.046,6.851c0.022,0.166,0.014,0.271-0.021,0.311C20.878,27.384,20.863,27.391,20.846,27.391
		 M20.487,19.002c-0.082,0-0.124,0.071-0.124,0.21l-0.047,7.301l-0.024,0.164c0.002,0.002,0.285,0.542,0.426,0.617
		c0.002,0.002,0.073,0.085,0.128,0.085c0.014,0,0.025-0.006,0.035-0.017c0.033-0.038,0.04-0.139,0.019-0.302l0.045-6.85
		c0-0.001-0.07-0.242,0-0.618l-0.282-0.52C20.662,19.072,20.569,19.002,20.487,19.002"/>
	<path style="clip-path:url(#SVGID_2_);fill:#FFFFFF;" d="M15.009,23.42c0,0,0.023,0.569-0.049,1.115
		c-0.039,0.301,0.097,1.69-0.025,2.403c0,0-0.021,0.238-0.523,0.025c0,0-3.042,0.07-3.136-0.025c0,0-0.833,0.025-0.905-0.404
		c0,0,0.118-3.257,0.047-3.379c0,0-0.047-1.781,0-1.948c0,0,0.071-1.641,0.025-1.83c0,0,0.022-0.38-0.048-0.571
		c0,0,0-0.239,0.403-0.096c0,0,0.142,0.262,0.928,0.146c0,0,0.573,0.093,1.117,0.021c0,0,1.213-0.095,1.523,0
		c0,0,0.477-0.095,0.618,0.43L14.96,20.78l0.142,0.475l0.167-0.117l0.07-0.358l0.024-1.57c0,0,0.095-0.285,0.477-0.333
		c0,0,0.594-0.071,0.69-0.021c0.094,0.045,1.378,0.116,1.736,0.045c0.357-0.071,0.426,0.237,1.497-0.308
		c0,0,0.285,0.024,0.285,0.213c0,0-0.096,2.022,0,2.401c0,0,0,3.709-0.073,3.97l0.047,1.19c0,0,0.049,0.524-0.781,0.571
		c0,0,0.522,0.07-2.76-0.024c0,0-0.523-0.023-1.092,0.236c0,0-0.12-0.023-0.12-0.332c0,0,0.094-1.117,0-2.212l-0.046-1.211
		L15.009,23.42z"/>
	<path style="clip-path:url(#SVGID_2_);" d="M12.868,21.734c0,0,0.072,1.758,0,1.996l-0.022,0.38c0,0,0.094,0.261,0.237,0.356
		c0,0,0.12,0.332-0.167,0.309c0,0-0.594-0.048-0.736-0.024c0,0-0.334,0,0-0.426c0,0,0.118-0.169,0.093-0.595
		c0,0,0-1.996,0.049-2.116c0,0,0.047-0.262-0.119-0.334l-0.286,0.023l-0.356,0.334c0,0-0.071,0.359-0.239-0.023v-0.192l0.215-0.57
		l0.144-0.024c0,0,0.212,0.143,0.402,0.192h1.12l0.402-0.192c0,0,0.167,0.024,0.121,0.238c0,0,0.069,0.548-0.239,0.619
		c0,0-0.191-0.071-0.284-0.333C13.203,21.353,12.891,21.187,12.868,21.734"/>
	<path style="clip-path:url(#SVGID_2_);" d="M18.121,21.091c0,0-0.902-0.072-0.923,0.903c0,0-0.098,0.668,0.903,1.096
		c0,0,0.736,0.355,0.687,0.807c0,0-0.096,0.808-0.88,0.404c0,0-0.379-0.19-0.354-0.404c0,0-0.12-0.262-0.264-0.213
		c0,0-0.168,0.047-0.092,0.83c0,0,0,0.31,0.356,0l0.188,0.049c0,0,0.643,0.523,1.188-0.119c0,0,0.596-0.547,0.168-1.211
		c0,0-0.31-0.475-0.855-0.713c0,0-0.523-0.241-0.643-0.645c0,0,0.167-0.714,0.807-0.334c0,0,0.239,0.285,0.381,0.334
		c0,0,0.189,0,0.142-0.43l-0.045-0.354c0,0-0.048-0.265-0.382,0C18.503,21.091,18.193,21.208,18.121,21.091"/>
	<path style="clip-path:url(#SVGID_2_);" d="M15.223,20.591c0.166,0.121,0.188,0.357,0.188,0.357
		c0.477,1.26,0.881,3.091,0.881,3.091c0.118,0.236,0.332,0.428,0.332,0.428c0.406,0.142,0,0.26,0,0.26
		c-0.167,0.073-0.711-0.022-0.711-0.022c-0.287-0.05-0.17-0.143-0.17-0.143c0.12-0.119,0.026-0.595,0.026-0.595
		c-0.026-0.19-0.238-0.498-0.238-0.498c-0.093-0.049-0.262,0.166-0.262,0.166s-0.26,0.095-0.285,0
		c-0.024-0.097-0.191-0.188-0.191-0.188c-0.284,0-0.403,0.709-0.403,0.709c0.166,0.596,0,0.499,0,0.499
		c-0.142,0.193-0.595,0.05-0.595,0.05c-0.212-0.05-0.069-0.216-0.069-0.216c0.259-0.046,0.33-0.333,0.33-0.333
		c0.12-0.166,0.879-3.257,0.879-3.257C15.009,20.756,15.057,20.472,15.223,20.591 M14.843,22.16
		c-0.025,0.119-0.191,0.785-0.191,0.785l0.141,0.239c0,0,0.381,0.023,0.524,0.023c0.141,0,0.166-0.117,0.166-0.238
		c0-0.118-0.26-0.832-0.26-0.832l-0.121-0.141L14.843,22.16z"/>
	<path style="clip-path:url(#SVGID_2_);" d="M8.781,14.833c0,0-0.264,0.834-1.427-0.024l-3.995-0.096c0,0-0.523,0.169-0.595-0.38
		c0,0,0.096-1.092,0.047-1.187c0,0,0.025-0.31-0.499-0.31c0,0-0.807,0.097-0.83-0.616c0,0-0.144-0.764,0.974-0.738
		c0,0,0.355,0.166,0.38-0.286c0,0-0.048-3.092-0.025-3.329c0,0,0.098-0.284-0.451-0.331c0,0-0.786,0.164-0.878-0.359
		c0,0-0.048-0.784,0.474-0.831c0,0,0.641,0.047,0.762-0.117c0,0,0.142,0.093,0.118-0.479L2.86,4.775c0,0,0.071-0.261,0.475-0.236
		c0,0,0.737,0.046,0.833-0.025c0,0,0.167-0.213,0.213-0.309c0,0,0.381-0.022,0.453,0.07c0,0,0.57,0.382,2.735,0.239
		c0,0,0.332,0,0.403,0.095c0,0,0.403,0.31,0.641-0.024c0,0,0.357-0.071,1.427-0.046c0,0,1.166,0.308,1.974-0.356l0.261,0.047
		c0,0,0.333,0.545,0.571,0.379c0,0,0.714-0.07,0.834,0.072c0,0,0.237,0.357,0.116,1.285c0,0-0.141,0.405,0.548,0.405
		c0,0,0.784-0.142,0.69,0.592c0,0,0.215,0.833-1.093,0.714c0,0-0.166,0.239-0.145,0.405c0,0-0.021,2.709-0.047,3.02
		c0,0-0.022,0.426,0.548,0.404c0,0,0.761-0.05,0.786,0.642c0,0,0.093,0.903-1,0.735c0,0-0.334,0.05-0.382,0.263l-0.046,1.187
		c0,0,0.025,0.596-0.641,0.455c-0.097,0-3.71,0.069-4.02-0.024C8.994,14.764,8.829,14.74,8.781,14.833"/>
	<path style="clip-path:url(#SVGID_2_);" d="M8.252,15.202c-0.249,0-0.552-0.131-0.902-0.389l-3.992-0.094
		c0.001,0-0.076,0.024-0.173,0.024c-0.17,0-0.382-0.071-0.426-0.409c0.001-0.012,0.095-1.093,0.047-1.186
		c0-0.003,0.006-0.092-0.069-0.173c-0.082-0.089-0.225-0.134-0.426-0.134c0,0-0.037,0.005-0.095,0.005
		c-0.216,0-0.721-0.061-0.74-0.626c0-0.001-0.046-0.258,0.128-0.468c0.159-0.191,0.447-0.284,0.851-0.274
		c0.007,0,0.351,0.162,0.375-0.282c0-0.03-0.048-3.094-0.024-3.329c0-0.002,0.025-0.077-0.025-0.155
		C2.72,7.619,2.574,7.56,2.359,7.541c0,0.001-0.118,0.024-0.266,0.024c-0.25,0-0.56-0.066-0.617-0.387
		c0-0.009-0.042-0.789,0.479-0.837c0.002,0,0.088,0.007,0.201,0.007c0.175,0,0.48-0.016,0.557-0.122l0.002-0.004L2.72,6.225
		c0,0,0.007,0.005,0.018,0.005c0.012,0,0.023-0.006,0.033-0.017C2.807,6.178,2.844,6.067,2.831,5.75l0.025-0.975
		c0-0.004,0.07-0.244,0.427-0.244c0.017,0,0.034,0.001,0.053,0.002c0.001,0,0.239,0.015,0.459,0.015c0.263,0,0.346-0.021,0.37-0.038
		c0.001-0.002,0.166-0.213,0.212-0.308L4.377,4.2h0.002c0,0,0.04-0.002,0.096-0.002c0.139,0,0.315,0.013,0.362,0.075
		C4.84,4.273,5.256,4.542,6.658,4.542c0.282,0,0.588-0.011,0.909-0.032h0.001c0.016,0,0.335,0.001,0.407,0.097
		c0.001,0,0.171,0.128,0.351,0.128c0.115,0,0.21-0.051,0.282-0.152C8.614,4.58,8.88,4.528,9.612,4.528
		c0.135,0,0.278,0.002,0.427,0.005c0.004,0.001,0.276,0.071,0.641,0.071c0.37,0,0.902-0.073,1.33-0.426l0.265,0.047
		c0.006,0.006,0.255,0.41,0.472,0.41c0.034,0,0.067-0.01,0.095-0.03c0.005-0.001,0.183-0.019,0.374-0.019
		c0.259,0,0.416,0.031,0.467,0.091c0.003,0.004,0.237,0.37,0.117,1.289c0,0.003-0.042,0.125,0.035,0.232
		c0.079,0.111,0.25,0.167,0.508,0.167c0,0,0.062-0.011,0.147-0.011c0.139,0,0.329,0.028,0.448,0.163
		c0.091,0.103,0.125,0.254,0.1,0.446c0.001,0.001,0.064,0.256-0.096,0.463c-0.166,0.214-0.502,0.302-1,0.256
		C13.925,7.708,13.78,7.928,13.8,8.082c0,0.028-0.021,2.714-0.047,3.021c0,0.001-0.006,0.148,0.103,0.262
		c0.094,0.098,0.243,0.143,0.44,0.136c0,0,0.013,0,0.034,0c0.172,0,0.736,0.046,0.757,0.647c0,0.003,0.031,0.323-0.17,0.545
		c-0.17,0.188-0.451,0.255-0.835,0.195c-0.002,0.001-0.33,0.052-0.376,0.259l-0.047,1.187c0,0.001,0.008,0.216-0.128,0.357
		c-0.111,0.117-0.286,0.153-0.519,0.102c-0.009,0-0.064,0.001-0.152,0.002c-0.39,0.007-1.428,0.023-2.336,0.023
		c-0.909,0-1.424-0.016-1.532-0.049c-0.001,0-0.019-0.002-0.045-0.002c-0.047,0-0.131,0.008-0.162,0.069
		C8.784,14.838,8.665,15.202,8.252,15.202 M3.357,14.708l3.996,0.096c0.351,0.257,0.652,0.387,0.899,0.387
		c0.405,0,0.522-0.357,0.523-0.36c0.034-0.066,0.123-0.076,0.172-0.076c0.027,0,0.046,0.003,0.047,0.003
		c0.108,0.033,0.622,0.049,1.53,0.049s1.946-0.016,2.336-0.023c0.088-0.001,0.143-0.002,0.153-0.002
		c0.234,0.049,0.403,0.015,0.511-0.099c0.132-0.138,0.125-0.348,0.125-0.35l0.047-1.188c0.048-0.214,0.383-0.267,0.386-0.268
		c0.385,0.058,0.661-0.006,0.827-0.191c0.198-0.22,0.168-0.535,0.168-0.538c-0.021-0.592-0.577-0.638-0.747-0.638
		c-0.021,0-0.033,0-0.033,0c-0.015,0.001-0.029,0.001-0.044,0.001c-0.18,0-0.316-0.047-0.404-0.14
		c-0.112-0.118-0.105-0.268-0.105-0.27c0.025-0.307,0.046-2.993,0.047-3.019c-0.022-0.166,0.138-0.398,0.145-0.408l0.002-0.003
		l0.002,0.001c0.493,0.044,0.83-0.041,0.994-0.252c0.157-0.203,0.095-0.454,0.094-0.456c0.024-0.192-0.008-0.339-0.097-0.441
		c-0.116-0.131-0.304-0.159-0.441-0.159c-0.084,0-0.145,0.011-0.146,0.011c-0.263,0-0.437-0.058-0.518-0.171
		c-0.079-0.112-0.036-0.239-0.035-0.24c0.119-0.914-0.114-1.277-0.116-1.281c-0.048-0.057-0.207-0.087-0.459-0.087
		c-0.191,0-0.368,0.018-0.37,0.018c-0.029,0.02-0.063,0.031-0.099,0.031c-0.223,0-0.467-0.395-0.477-0.413l-0.258-0.045
		c-0.426,0.353-0.961,0.427-1.332,0.427c-0.367,0-0.639-0.071-0.642-0.071C9.891,4.541,9.748,4.539,9.612,4.539
		c-0.73,0-0.996,0.051-0.999,0.051C8.542,4.691,8.444,4.746,8.326,4.746c-0.184,0-0.356-0.131-0.358-0.132
		C7.899,4.521,7.571,4.52,7.568,4.52C7.247,4.541,6.94,4.551,6.658,4.551c-1.406,0-1.823-0.269-1.828-0.272
		C4.782,4.216,4.587,4.208,4.476,4.208c-0.047,0-0.082,0.001-0.092,0.002C4.336,4.307,4.172,4.516,4.171,4.518
		C4.134,4.544,4.007,4.559,3.794,4.559c-0.22,0-0.458-0.015-0.46-0.015C3.316,4.542,3.298,4.542,3.282,4.542
		c-0.349,0-0.417,0.233-0.418,0.235L2.84,5.75c0.011,0.254-0.01,0.416-0.062,0.47C2.767,6.232,2.753,6.24,2.738,6.24
		c-0.008,0-0.016-0.003-0.02-0.005C2.639,6.335,2.37,6.356,2.156,6.356c-0.113,0-0.2-0.006-0.201-0.006
		c-0.511,0.046-0.47,0.818-0.469,0.826C1.542,7.49,1.847,7.556,2.093,7.556c0.147,0,0.264-0.025,0.265-0.025
		C2.583,7.549,2.727,7.609,2.79,7.707c0.053,0.082,0.027,0.159,0.026,0.162c-0.022,0.234,0.024,3.297,0.025,3.328
		c-0.014,0.265-0.142,0.32-0.246,0.32c-0.075,0-0.138-0.029-0.141-0.03H2.449H2.4c-0.373,0-0.639,0.091-0.789,0.272
		c-0.171,0.206-0.126,0.458-0.125,0.46c0.018,0.557,0.517,0.617,0.73,0.617c0.057,0,0.094-0.004,0.095-0.004
		c0.204,0,0.35,0.045,0.433,0.136c0.078,0.084,0.072,0.175,0.071,0.179c0.049,0.092-0.042,1.142-0.046,1.187
		c0.043,0.33,0.25,0.399,0.416,0.399C3.281,14.732,3.356,14.708,3.357,14.708"/>
	<path style="clip-path:url(#SVGID_2_);fill:#FFFFFF;" d="M4.286,5.038c0,0,0.049,0.475,0.049,0.594
		c0,0.118-0.072,6.871-0.072,6.871s0.072,0.525-0.381,0.785c0,0-0.118,0.049-0.143-0.284l0.048-7.132
		C3.787,5.872,3.833,4.99,4.286,5.038"/>
	<path style="clip-path:url(#SVGID_2_);" d="M3.866,13.297c-0.041,0-0.114-0.038-0.133-0.292L3.78,5.872
		C3.782,5.863,3.831,5.03,4.25,5.03c0.012,0,0.023,0.001,0.036,0.002l0.005,0.001v0.005C4.292,5.042,4.34,5.514,4.34,5.632
		c0,0.117-0.071,6.804-0.072,6.871c0.001,0.005,0.067,0.531-0.384,0.791C3.882,13.294,3.875,13.297,3.866,13.297 M4.25,5.042
		c-0.409,0-0.458,0.822-0.458,0.831l-0.048,7.131c0.024,0.323,0.133,0.279,0.134,0.279c0.444-0.255,0.378-0.774,0.378-0.779
		c0-0.068,0.072-6.755,0.072-6.872c0-0.111-0.043-0.538-0.048-0.589C4.271,5.042,4.261,5.042,4.25,5.042"/>
	<path style="clip-path:url(#SVGID_2_);fill:#FFFFFF;" d="M3.501,13.359c0,0,0.048-6.704,0.024-6.824
		C3.501,6.418,3.549,6.631,3.549,6.631S3.48,5.467,3.787,4.99c0,0-0.095-0.404-0.641,0.094L3.123,6.061c0,0,0,0.547-0.5,0.523
		c0,0-0.572-0.025-0.834,0.238c0,0-0.141,0.523,0.405,0.428c0,0,0.856,0,0.903,0.355l-0.047,3.591c0,0,0.191,0.595-0.476,0.595
		c0,0-0.808-0.046-0.785,0.453c0,0,0.168,0.428,0.859,0.284c0,0,0.498,0.096,0.475,0.569v0.906c0,0-0.051,0.356,0.427,0.379h3.709
		c0,0,0.19,0.023,0.19-0.215c0,0-0.025-0.188-0.309-0.188L4.05,13.93C4.05,13.93,3.549,14.097,3.501,13.359"/>
	<path style="clip-path:url(#SVGID_2_);fill:#FFFFFF;" d="M4.144,13.408c0,0-0.095,0.334,0.261,0.26h2.447l0.668,0.143
		c0,0,0.691-0.166,0-0.547c0,0-2.188,0.025-2.379-0.023c0,0-0.45-0.119-0.546-0.142C4.595,13.099,4.357,13.005,4.144,13.408"/>
	<path style="clip-path:url(#SVGID_2_);" d="M7.521,13.817L7.521,13.817l-0.669-0.143H4.404c-0.114,0.025-0.198,0.006-0.242-0.051
		c-0.062-0.082-0.026-0.211-0.024-0.217c0.148-0.281,0.31-0.323,0.393-0.323c0.04,0,0.065,0.01,0.066,0.01
		c0.094,0.023,0.541,0.141,0.545,0.142c0.076,0.019,0.5,0.029,1.226,0.029c0.576,0,1.146-0.006,1.152-0.006
		c0.221,0.121,0.325,0.233,0.311,0.334C7.812,13.745,7.534,13.813,7.521,13.817L7.521,13.817z M6.853,13.662l0.668,0.142
		c0.021-0.005,0.281-0.074,0.3-0.213c0.012-0.096-0.089-0.204-0.303-0.322c-0.002,0-0.573,0.007-1.149,0.007
		c-0.737,0-1.15-0.01-1.229-0.03c-0.004-0.001-0.451-0.119-0.546-0.142c-0.001,0-0.024-0.009-0.062-0.009
		c-0.081,0-0.237,0.041-0.382,0.316c0,0-0.036,0.128,0.022,0.205c0.041,0.053,0.12,0.069,0.232,0.046H6.853z"/>
	<path style="clip-path:url(#SVGID_2_);fill:#FFFFFF;" d="M8.211,13.742c0,0-0.454,0-0.43,0.591c0,0,0.048,0.455,0.523,0.455
		c0,0,0.428-0.074,0.382-0.547C8.686,14.241,8.423,13.645,8.211,13.742"/>
	<path style="clip-path:url(#SVGID_2_);fill:#FFFFFF;" d="M8.542,13.502c0,0,0.213-0.238,0.356-0.238c0,0,2.378,0.215,2.784-0.07
		c0,0,0.358-0.071,0.45,0c0,0,0.358,0.285,0.358,0.451c0,0-0.025,0.215-0.45,0.097c0,0-2.69,0.022-2.832,0.022
		C9.208,13.764,8.471,13.93,8.542,13.502"/>
	<path style="clip-path:url(#SVGID_2_);" d="M8.916,13.801c-0.164,0-0.278-0.035-0.337-0.105c-0.041-0.05-0.055-0.115-0.042-0.196
		c0.01-0.012,0.218-0.243,0.362-0.243c0.01,0.001,0.871,0.078,1.636,0.078c0.621,0,1.006-0.049,1.145-0.146
		c0.004-0.002,0.163-0.033,0.296-0.033c0.078,0,0.132,0.011,0.161,0.033c0.015,0.012,0.36,0.288,0.36,0.455
		c0,0.002-0.018,0.139-0.233,0.139c-0.064,0-0.14-0.012-0.225-0.036c-0.025,0.001-2.69,0.022-2.83,0.022
		C9.208,13.771,9.066,13.801,8.916,13.801 M8.898,13.27c-0.139,0-0.35,0.234-0.352,0.236c-0.011,0.075,0.002,0.137,0.041,0.183
		c0.057,0.067,0.167,0.101,0.328,0.101c0.15,0,0.29-0.031,0.292-0.031c0.141,0,2.806-0.023,2.833-0.023
		c0.086,0.024,0.16,0.036,0.223,0.036c0.203,0,0.22-0.123,0.221-0.127c0-0.161-0.352-0.443-0.356-0.445
		c-0.025-0.021-0.078-0.031-0.153-0.031c-0.132,0-0.29,0.031-0.292,0.032c-0.138,0.097-0.525,0.147-1.149,0.147
		C9.77,13.348,8.907,13.271,8.898,13.27"/>
	<path style="clip-path:url(#SVGID_2_);fill:#FFFFFF;" d="M8.923,14.216c0,0,0-0.189,0.33-0.189l3.333-0.024
		c0,0,0.306,0.164,0.306-0.405c0,0,0.124-2.593,0.134-5.446c0.003-0.849,0.042-1.74,0.009-2.566c0,0-0.07-0.355-0.165-0.431
		c0,0,0-0.379,0.404-0.235c0,0,0.356,0.023,0.261,0.57l0.024,0.833c0,0-0.072,0.355,0.57,0.261c0,0,0.642,0.094,0.664,0.333
		c0,0,0.192,0.476-0.569,0.428h-0.545c0,0-0.239,0.142-0.168,0.428L13.44,11.22c0,0-0.047,0.594,0.525,0.573
		c0,0,0.593-0.026,0.712,0.164c0,0,0.405,0.595-0.477,0.548c0,0-0.546-0.025-0.665,0.07c0,0-0.095,0.121-0.166,1.236
		c0,0,0.047,0.667-0.452,0.594c0,0-3.305,0.047-3.613-0.023C9.304,14.382,8.97,14.478,8.923,14.216"/>
	<path style="clip-path:url(#SVGID_2_);fill:#FFFFFF;" d="M4.641,4.822l-0.07,7.634c0,0-0.023,0.353,0.571,0.425
		c0,0,0.692,0.072,0.856,0c0,0,0.45-0.022,1.616,0.025c0,0,0.286,0.284,0.31-0.071c0,0,0.191-6.182,0.096-7.467
		c0,0-0.026-0.546-0.43-0.57c0,0-1.806,0.142-1.972,0L4.905,4.607C4.905,4.607,4.618,4.631,4.641,4.822"/>
	<path style="clip-path:url(#SVGID_2_);fill:#FFFFFF;" d="M12.181,5.108l-0.023,7.513c0,0,0.19,0.667,0.5,0.596
		c0,0,0.045-0.143,0.07-0.381l0.097-7.157C12.825,5.679,12.586,4.538,12.181,5.108"/>
	<path style="clip-path:url(#SVGID_2_);" d="M12.611,13.229c-0.284,0-0.453-0.581-0.46-0.606l0.023-7.514
		c0.078-0.112,0.154-0.166,0.229-0.166c0.27,0,0.42,0.705,0.427,0.735l-0.097,7.158c-0.024,0.238-0.07,0.383-0.07,0.384
		l-0.001,0.003l-0.004,0.001C12.643,13.227,12.627,13.229,12.611,13.229 M12.403,4.955c-0.07,0-0.144,0.053-0.218,0.157l-0.022,7.51
		c0.001,0.004,0.174,0.595,0.448,0.595c0.014,0,0.027-0.001,0.041-0.004c0.007-0.023,0.047-0.161,0.069-0.377l0.097-7.156
		C12.817,5.674,12.663,4.955,12.403,4.955"/>
	<path style="clip-path:url(#SVGID_2_);" d="M12.611,13.229c-0.284,0-0.453-0.581-0.46-0.606l0.023-7.514
		c0.078-0.112,0.154-0.166,0.229-0.166c0.27,0,0.42,0.705,0.427,0.735l-0.097,7.158c-0.024,0.238-0.07,0.383-0.07,0.384
		l-0.001,0.003l-0.004,0.001C12.643,13.227,12.627,13.229,12.611,13.229 M12.403,4.955c-0.07,0-0.144,0.053-0.218,0.157l-0.022,7.51
		c0.001,0.004,0.174,0.595,0.448,0.595c0.014,0,0.027-0.001,0.041-0.004c0.007-0.023,0.047-0.161,0.069-0.377l0.097-7.156
		C12.817,5.674,12.663,4.955,12.403,4.955"/>
	<path style="clip-path:url(#SVGID_2_);fill:#FFFFFF;" d="M8.401,5.172c0,0-0.073,3.59-0.05,3.711l-0.044,3.019l-0.096,1.044
		c0,0,0.14,0.216,0.261,0.073c0,0,0.762-0.189,1.235-0.119c0,0,1.525,0.144,1.832-0.095c0,0,0.239,0.118,0.309-0.262
		c0,0,0.095-6.656,0.047-6.775c0,0,0.097-0.952,0.048-1.045c0,0-0.024-0.217-0.427-0.028c0,0,0.046,0.192-2.212,0.121
		C9.304,4.816,8.448,4.792,8.401,5.172"/>
	<path style="clip-path:url(#SVGID_2_);" d="M7.667,7.371L7.452,7.824c0,0-0.522,2.306-0.807,2.781c0,0-0.047,0.477-0.452,0.096
		c0,0-0.927-2.925-0.976-3.02L4.909,7.466c0,0-0.188-0.261,0.142-0.284l0.881,0.023c0,0,0.284,0.237-0.095,0.501
		c0,0,0.047,0.38,0.547,1.83c0,0,0.141,0.546,0.308,0.143l0.476-1.69L7.023,7.491c0,0-0.142-0.239,0.074-0.262
		C7.097,7.229,7.595,7.182,7.667,7.371"/>
	<path style="clip-path:url(#SVGID_2_);" d="M9.047,7.752l-0.024,2.521l-0.072,0.189c0,0-0.238,0.309-0.071,0.333
		c0,0-0.212,0.144,1.52,0.167c0,0,0.668,0.118,0.501-0.738c0,0-0.072-0.308-0.31,0.144c0,0-0.073,0.379-0.927,0.26
		c0,0-0.191-0.166-0.191-0.355V9.226c0,0-0.025-0.262,0.38-0.236c0,0,0.452,0.284,0.524,0.164c0,0,0.167-0.38,0-0.617
		c0,0-0.214-0.023-0.238,0.071c0,0-0.143,0.286-0.546,0.119c0,0-0.19-0.38-0.072-0.69c0,0-0.048-0.595,0.358-0.546
		c0,0,0.475,0.094,0.521,0.238c0,0,0.118,0.286,0.239-0.046l-0.121-0.407c0,0-0.069-0.166-0.188-0.118c0,0-0.809,0.118-0.904,0.022
		L8.783,7.252c0,0-0.094,0.239,0.192,0.356C8.976,7.608,9.047,7.656,9.047,7.752"/>
</g>
<path style="fill:#FFFFFF;" d="M147.852,6.66c0-0.552-0.357-0.957-1.096-1.122V5.183c0.409,0,1.762,0.056,2.145,0.056
	c0.329,0,1.67-0.056,2.078-0.056v0.355c-0.68,0.136-1.037,0.54-1.037,1.122v7.005c0,2.215,1.216,3.474,3.763,3.474
	c2.195,0,3.903-0.986,3.903-3.311V6.632c0-0.518-0.328-0.929-1.148-1.094V5.183c0.297,0,1.42,0.056,1.804,0.056
	c0.327,0,1.506-0.056,1.804-0.056v0.355c-0.795,0.192-1.146,0.549-1.146,1.094v6.809c0,3.058-1.78,4.814-5.618,4.814
	c-3.569,0-5.451-1.625-5.451-4.495V6.66z"/>
<path style="fill:#FFFFFF;" d="M163.204,17.708c0.831-0.155,1.158-0.575,1.158-1.093v-9.68c0-0.823-0.438-1.194-1.183-1.396V5.184
	c0.418,0.029,1.128,0.049,1.489,0.049c0.332,0,0.842-0.005,1.188-0.049l8.392,9.872V6.632c0-0.518-0.329-0.928-1.146-1.093V5.184
	c0.299,0,1.381,0.055,1.764,0.055c0.333,0,1.494-0.055,1.801-0.055v0.355c-0.803,0.191-1.191,0.548-1.191,1.093v11.623h-0.504
	c-0.321-0.074-0.92-0.414-1.834-1.421l-7.518-8.75v8.531c0,0.521,0.301,0.929,1.12,1.093v0.357c-0.301,0-1.38-0.055-1.767-0.055
	c-0.33,0-1.465,0.055-1.769,0.055V17.708z"/>
<path style="fill:#FFFFFF;" d="M229.465,15.097h0.354c0.19,0.723,0.607,1.379,1.188,1.764c0.601,0.426,1.55,0.63,2.312,0.63
	c1.691,0,2.762-0.838,2.762-2.162c0-1.373-1.375-2.085-3.014-2.906c-1.221-0.611-3.626-1.621-3.626-3.944
	c0-2.161,1.65-3.506,4.289-3.506c1.739,0,2.557,0.423,3.731,0.369l-0.022,2.626h-0.357c-0.471-1.548-1.877-2.087-3.411-2.087
	c-1.721,0-2.362,0.985-2.362,1.984c0,1.432,1.399,2.153,2.987,2.861c1.785,0.796,3.722,1.801,3.722,4.038
	c0,2.117-1.655,3.652-4.683,3.652c-1.806,0-2.886-0.513-3.83-0.631L229.465,15.097z"/>
<path style="fill:#FFFFFF;" d="M265.552,12.736l-3.417-5.485c-0.588-0.963-1.031-1.471-1.68-1.712V5.184
	c0.465,0,1.731,0.055,2.093,0.055c0.325,0,1.69-0.055,2.186-0.055v0.355c-0.438,0.078-0.645,0.297-0.645,0.626
	c0,0.293,0.197,0.665,0.395,0.987c0.196,0.325,2.524,4.182,2.524,4.182l2.426-4.178c0.245-0.416,0.42-0.831,0.42-1.107
	c0-0.251-0.175-0.456-0.592-0.51V5.184c0.41,0,1.279,0.055,1.553,0.055c0.272,0,1.268-0.055,1.677-0.055v0.333
	c-0.937,0.382-1.521,1.198-2.083,2.151l-3.111,5.193 M267.51,12.207v4.381c0,0.436,0.333,0.983,1.081,1.12v0.357
	c-0.417,0-1.783-0.055-2.172-0.055c-0.331,0-1.637,0.055-2.111,0.055v-0.357c0.751-0.137,1.11-0.684,1.11-1.12V12.4"/>
<path style="fill:#FFFFFF;" d="M202.022,5.184h8.016c0.246,0,0.684-0.027,0.929-0.138h0.358l-0.057,2.609h-0.355
	c-0.3-0.821-0.619-1.476-2.171-1.476h-3.48v4.538h2.683c0.392,0,0.862-0.033,1.069-0.08c0.605-0.135,0.869-0.467,0.992-0.985h0.354
	c-0.027,0.396-0.027,1.291-0.027,1.556c0,0.264,0.027,1.208,0.027,1.637h-0.354c-0.174-0.513-0.409-0.905-0.992-1.049
	c-0.205-0.05-0.688-0.095-1.069-0.095h-2.683v5.324h3.788c1.652,0,2.132-0.691,2.542-1.665l0.354,0.081l-0.354,2.679
	c-1.232-0.109-1.971-0.109-3.362-0.109h-4.001c-0.384,0-1.801,0.054-2.208,0.054v-0.357c0.715-0.137,1.141-0.494,1.141-1.186V6.673
	c0-0.608-0.33-0.99-1.139-1.127V5.184z"/>
<path style="fill:#FFFFFF;" d="M181.545,6.742c0-0.66-0.396-1.024-1.168-1.188V5.2c0.427,0,1.818,0.054,2.225,0.054
	c0.342,0,1.775-0.054,2.206-0.054v0.354c-0.767,0.166-1.17,0.496-1.17,1.188v9.78c0,0.662,0.396,1.022,1.17,1.186v0.357
	c-0.431,0-1.804-0.054-2.206-0.054c-0.344,0-1.796,0.054-2.226,0.054v-0.357c0.789-0.149,1.169-0.494,1.169-1.186V6.742z"/>
<path style="fill:#FFFFFF;" d="M242.364,6.742c0-0.66-0.396-1.024-1.169-1.188V5.2c0.43,0,1.818,0.054,2.225,0.054
	c0.344,0,1.774-0.054,2.207-0.054v0.354c-0.768,0.166-1.172,0.496-1.172,1.188v9.78c0,0.662,0.397,1.022,1.17,1.186v0.357
	c-0.43,0-1.801-0.054-2.205-0.054c-0.344,0-1.794,0.054-2.225,0.054v-0.357c0.788-0.149,1.169-0.494,1.169-1.186V6.742z"/>
<path style="fill:#FFFFFF;" d="M253.511,5.239c-4.397,0-5.104-0.083-6.001-0.138l0.009,2.652h0.356
	c0.33-1.174,0.982-1.449,1.834-1.449h2.757v10.218c0,0.692-0.38,1.037-1.172,1.186v0.356c0.438,0,1.898-0.054,2.238-0.054
	c0.406,0,1.778,0.054,2.207,0.054v-0.356c-0.772-0.164-1.168-0.525-1.168-1.186V6.304h2.734c0.877,0,1.505,0.301,1.836,1.449h0.354
	l0.009-2.652C258.607,5.156,257.906,5.239,253.511,5.239"/>
<path style="fill:#FFFFFF;" d="M218.438,16.522c0,0.661,0.418,1.022,1.195,1.186v0.356c-0.432,0-1.836-0.054-2.235-0.054
	c-0.346,0-1.719,0.054-2.149,0.054v-0.356c0.719-0.138,1.14-0.495,1.14-1.186V6.644c0-0.608-0.329-0.992-1.14-1.128V5.159
	c0.433,0,1.789,0.054,2.173,0.054c0.629,0,2.42-0.104,3.124-0.104c3.079,0,4.8,1.273,4.8,3.455c0,1.719-1.28,2.877-3.248,3.354
	c0,0,0.447,0.261,0.896,0.781c0.543,0.64,2.012,2.746,2.622,3.482c0.604,0.737,1.381,1.56,2.22,1.6v0.286
	c-0.401,0.089-1.043,0.162-1.53,0.162c-1.049,0-1.886-0.369-2.696-1.351c-0.701-0.853-1.892-2.625-2.593-3.521
	c-0.45-0.57-0.99-1.016-1.981-1.178c-0.197-0.035-0.379-0.061-0.596-0.085V16.522z M218.438,11.274
	c0.408,0.054,1.014,0.081,1.607,0.081c2.414,0,3.17-1.387,3.17-2.614c0-1.74-1.158-2.816-3.269-2.816
	c-0.434,0-1.072,0.056-1.509,0.136V11.274z"/>
<path style="fill:#FFFFFF;" d="M187.9,6.782c-0.284-0.621-0.717-1.074-1.449-1.236V5.181c0.456,0,2.043,0.058,2.39,0.058
	c0.321,0,1.702-0.058,2.174-0.058v0.357c-0.418,0.079-0.895,0.31-0.895,0.736c0,0.303,0.187,0.721,0.535,1.502l3.325,7.552
	l3.14-7.567c0.245-0.611,0.428-1.083,0.428-1.441c0-0.403-0.37-0.677-0.889-0.782V5.181c0.417,0,1.437,0.058,1.755,0.058
	c0.293,0,1.492-0.058,1.951-0.058v0.365c-0.782,0.209-1.261,0.641-1.701,1.662l-4.619,10.903h-1.049L187.9,6.782z"/>
<path style="fill:#FFFFFF;" d="M83.347,6.783c-0.281-0.622-0.717-1.075-1.446-1.237V5.181c0.454,0,1.969,0.056,2.317,0.056
	c0.32,0,1.789-0.056,2.255-0.056v0.356c-0.411,0.08-0.89,0.313-0.89,0.74c0,0.3,0.187,0.716,0.535,1.5l3.325,7.555l3.142-7.57
	c0.249-0.612,0.431-1.081,0.431-1.442c0-0.401-0.372-0.677-0.894-0.783V5.181c0.418,0,1.427,0.056,1.749,0.056
	c0.293,0,1.495-0.056,1.95-0.056v0.345c-0.782,0.211-1.261,0.661-1.699,1.682l-4.628,10.911H88.45L83.347,6.783z"/>
<path style="fill:#FFFFFF;" d="M38.593,17.703c0.606-0.138,1.027-0.411,1.027-1.096V6.606c0-0.657-0.394-0.929-1.027-1.093V5.156
	c0.316,0,1.683,0.055,2.014,0.055c0.385,0,1.817-0.055,2.131-0.055v0.357c-0.603,0.135-1.051,0.41-1.051,1.093v4.179h7.451V6.606
	c0-0.683-0.398-0.958-1.024-1.093V5.156c0.313,0,1.717,0.055,2.099,0.055c0.332,0,1.728-0.055,2.041-0.055v0.357
	c-0.604,0.135-1.052,0.41-1.052,1.093v10.001c0,0.658,0.418,0.93,1.052,1.096v0.328c-0.313,0-1.709-0.027-2.041-0.027
	c-0.382,0-1.786,0.027-2.099,0.027v-0.328c0.597-0.138,1.024-0.411,1.024-1.096V11.88h-7.451v4.727c0,0.685,0.419,0.93,1.051,1.096
	v0.328c-0.314,0-1.746-0.027-2.131-0.027c-0.331,0-1.698,0.027-2.014,0.027V17.703z"/>
<path style="fill:#FFFFFF;" d="M124.777,17.704c0.77-0.139,1.197-0.445,1.197-1.151V6.606c0-0.686-0.418-0.958-1.164-1.094V5.157
	c0.425,0,1.83,0.054,2.217,0.054c0.626,0,2.304-0.137,3.663-0.137c4.583,0,7.369,2.558,7.369,6.452c0,3.783-2.897,6.586-7.624,6.586
	c-1.361,0-2.907-0.107-3.541-0.107c-0.384,0-1.689,0.055-2.117,0.055V17.704z M128.038,17.042c0.466,0.086,1.329,0.141,2.01,0.141
	c3.85,0,5.855-2.317,5.855-5.551c0-3.351-2.116-5.709-5.715-5.709c-0.733,0-1.654,0.055-2.15,0.135V17.042z"/>
<path style="fill:#FFFFFF;" d="M72.892,16.517c0,0.662,0.424,1.021,1.199,1.187v0.356c-0.429,0-1.836-0.055-2.237-0.055
	c-0.342,0-1.716,0.055-2.147,0.055v-0.356c0.718-0.139,1.143-0.494,1.143-1.187V6.642c0-0.609-0.332-0.993-1.143-1.129V5.157
	c0.432,0,1.791,0.054,2.172,0.054c0.632,0,2.419-0.104,3.123-0.104c3.082,0,4.796,1.274,4.796,3.454
	c0,1.719-1.278,2.877-3.243,3.354c0,0,0.444,0.259,0.893,0.781c0.547,0.64,2.047,2.79,2.653,3.525
	c0.608,0.736,1.382,1.561,2.218,1.598v0.289c-0.396,0.088-1.038,0.162-1.523,0.162c-1.052,0-1.887-0.367-2.699-1.353
	c-0.7-0.853-1.925-2.667-2.626-3.563c-0.447-0.57-0.987-1.017-1.979-1.18c-0.197-0.032-0.38-0.061-0.6-0.085V16.517z M72.892,11.271
	c0.413,0.053,1.015,0.081,1.615,0.081c2.407,0,3.168-1.387,3.168-2.614c0-1.739-1.162-2.814-3.273-2.814
	c-0.434,0-1.068,0.055-1.51,0.135V11.271z"/>
<path style="fill:#FFFFFF;" d="M113.523,16.517c0,0.662,0.418,1.021,1.194,1.187v0.356c-0.43,0-1.831-0.055-2.236-0.055
	c-0.346,0-1.718,0.055-2.148,0.055v-0.356c0.715-0.139,1.142-0.494,1.142-1.187V6.642c0-0.609-0.334-0.993-1.14-1.129V5.157
	c0.43,0,1.787,0.054,2.171,0.054c0.63,0,2.418-0.104,3.12-0.104c3.087,0,4.798,1.274,4.798,3.454c0,1.719-1.278,2.877-3.243,3.354
	c0,0,0.447,0.259,0.891,0.781c0.551,0.64,2.049,2.79,2.657,3.525c0.605,0.736,1.384,1.561,2.213,1.598v0.289
	c-0.393,0.088-1.034,0.162-1.517,0.162c-1.055,0-1.891-0.367-2.701-1.353c-0.698-0.853-1.923-2.667-2.626-3.563
	c-0.45-0.57-0.989-1.017-1.98-1.18c-0.199-0.032-0.381-0.061-0.595-0.085V16.517z M113.523,11.271
	c0.41,0.053,1.011,0.081,1.61,0.081c2.41,0,3.167-1.387,3.167-2.614c0-1.739-1.16-2.814-3.269-2.814
	c-0.436,0-1.071,0.055-1.508,0.135V11.271z"/>
<path style="fill:#FFFFFF;" d="M54.212,17.703c0.817-0.192,1.265-0.719,1.563-1.426L59.9,6.348c0.175-0.412,0.381-1.256,0.381-1.256
	h1.153c0,0,0.206,0.847,0.379,1.258l4.362,9.952c0.308,0.687,0.648,1.183,1.513,1.401l-0.003,0.328
	c-0.473,0-1.939-0.026-2.271-0.026c-0.334,0-1.733,0.026-2.206,0.026l0.001-0.328c0.635-0.158,0.834-0.482,0.834-0.792
	c0-0.267-0.11-0.567-0.241-0.879l-0.938-2.136h-4.807L57.2,16.045c-0.097,0.244-0.21,0.588-0.21,0.82
	c0,0.359,0.187,0.646,0.908,0.838l-0.002,0.328c-0.426,0-1.552-0.026-1.817-0.026l-1.867,0.026V17.703z M62.427,12.882L60.377,8.1
	l-1.91,4.782H62.427z"/>
<path style="fill:#FFFFFF;" d="M95.094,17.703c0.815-0.192,1.264-0.719,1.561-1.426l4.126-9.929
	c0.175-0.412,0.382-1.256,0.382-1.256h1.154c0,0,0.205,0.847,0.376,1.258l4.362,9.952c0.31,0.687,0.648,1.183,1.513,1.401
	l-0.002,0.328c-0.471,0-1.941-0.026-2.274-0.026s-1.732,0.026-2.206,0.026l0.001-0.328c0.64-0.158,0.835-0.482,0.835-0.792
	c0-0.267-0.108-0.567-0.237-0.879l-0.94-2.136h-4.807l-0.859,2.149c-0.098,0.244-0.208,0.588-0.208,0.82
	c0,0.359,0.185,0.646,0.906,0.838l-0.001,0.328c-0.428,0-1.551-0.026-1.815-0.026l-1.868,0.026L95.094,17.703z M103.31,12.882
	L101.254,8.1l-1.909,4.782H103.31z"/>
<rect x="-58.75" y="-32.243" style="fill:none;" width="428.979" height="136.493"/>
</svg>
