<?xml version="1.0" encoding="iso-8859-1"?>
<!-- Generator: Adobe Illustrator 16.2.1, SVG Export Plug-In . SVG Version: 6.00 Build 0)  -->
<!DOCTYPE svg PUBLIC "-//W3C//DTD SVG 1.1//EN" "http://www.w3.org/Graphics/SVG/1.1/DTD/svg11.dtd">
<svg version="1.1" id="Layer_1" xmlns="http://www.w3.org/2000/svg" xmlns:xlink="http://www.w3.org/1999/xlink" x="0px" y="0px"
	 width="418.812px" height="78.579px" viewBox="0 0 418.812 78.579" style="enable-background:new 0 0 418.812 78.579;"
	 xml:space="preserve">
<g>
	<g>
		<path style="fill:#231F20;" d="M83.307,64.882c0.998-0.352,1.295-0.865,1.674-1.809l5.426-13.416
			c0.242-0.594,0.621-1.971,0.621-1.971h1.402c0,0,0.352,1.377,0.566,1.971l5.021,13.416c0.379,0.998,0.756,1.537,1.754,1.809v0.35
			c-0.404,0-1.996-0.053-2.402-0.053c-0.404,0-1.943,0.053-2.348,0.053v-0.35c0.729-0.244,0.891-0.648,0.811-1.135
			c-0.027-0.215-0.244-0.836-0.324-1.025l-1.025-2.619h-6.885l-0.916,2.24c-0.109,0.244-0.379,1.189-0.406,1.324
			c-0.107,0.566,0.217,0.971,0.973,1.215v0.35c-0.324,0-1.459-0.053-1.809-0.053c-0.352,0-1.701,0.053-2.133,0.053V64.882z
			 M94.076,58.942l-2.914-7.692l-3.105,7.692H94.076z"/>
		<path style="fill:#231F20;" d="M112.328,64.261c0,0-0.566,0.297-1.135,0.674c-0.432,0.297-0.998,0.756-0.998,0.756
			c-0.377-0.35-0.836-0.943-1.107-1.699c-0.781,0.863-2.293,1.43-3.967,1.43c-2.754,0-4.67-2.645-4.67-5.668
			c0-3.186,2.023-5.966,5.047-5.966c1.377,0,2.564,0.485,3.375,1.377v-5.399c0-0.863-0.486-1.269-1.377-1.457v-0.297l3.131-1.242
			h0.297v16.088c0,0.863,0.27,1.08,0.594,1.08c0.189,0,0.486-0.027,0.621-0.107L112.328,64.261z M108.873,57.188
			c-0.189-1.35-1.566-2.187-3.051-2.187c-2.105,0-3.186,2.24-3.186,4.454c0,2.402,1.27,4.67,3.51,4.67
			c1.053,0,2.186-0.486,2.727-1.459V57.188z"/>
		<path style="fill:#231F20;" d="M113.924,64.907c0.566-0.242,1.188-0.539,1.188-1.053v-7.07c0-0.864-0.484-1.27-1.377-1.459v-0.297
			l3.023-1.241h0.297l0.109,1.755c0.971-0.918,2.078-1.755,3.752-1.755c1.592,0,2.43,0.729,2.779,1.755
			c0.973-0.918,2.375-1.755,4.021-1.755c2.322,0,3.023,1.485,3.023,3.294v6.773c0,0.541,0.568,0.783,1.215,1.053v0.324
			c-0.35,0-1.916-0.053-2.268-0.053c-0.35,0-1.861,0.053-2.186,0.053v-0.324c0.566-0.242,1.188-0.539,1.188-1.053v-5.263
			c0-1.917-0.107-3.428-2.025-3.428c-1.078,0-2.131,0.62-2.752,1.241c0.027,0.217,0.027,0.459,0.027,0.676v6.773
			c0,0.541,0.566,0.783,1.213,1.053v0.324c-0.35,0-1.916-0.053-2.266-0.053c-0.352,0-1.863,0.053-2.188,0.053v-0.324
			c0.566-0.242,1.188-0.539,1.188-1.053v-5.263c0-1.917-0.107-3.428-2.023-3.428c-1.215,0-2.16,0.81-2.699,1.484v7.206
			c0,0.541,0.566,0.783,1.215,1.053v0.324c-0.352,0-1.918-0.053-2.268-0.053c-0.352,0-1.863,0.053-2.188,0.053V64.907z"/>
		<path style="fill:#231F20;" d="M133.904,64.907c0.566-0.242,1.188-0.539,1.188-1.053v-7.07c0-0.864-0.486-1.27-1.377-1.459v-0.297
			l3.131-1.241h0.297v10.067c0,0.541,0.566,0.783,1.215,1.053v0.324c-0.352,0-1.916-0.053-2.268-0.053s-1.863,0.053-2.186,0.053
			V64.907z M136.035,49.333c0.648,0,1.215,0.567,1.215,1.188c0,0.648-0.566,1.188-1.215,1.188c-0.646,0-1.24-0.54-1.24-1.188
			C134.795,49.9,135.389,49.333,136.035,49.333z"/>
		<path style="fill:#231F20;" d="M140.707,62.505h0.352c0.756,1.35,1.619,1.943,3.023,1.943c1.537,0,2.375-0.566,2.375-1.564
			c0-0.648-0.324-1.08-0.891-1.35l-3.348-1.646c-1.08-0.54-1.754-1.377-1.754-2.699c0-2.213,1.996-3.401,4.129-3.401
			c1.107,0,2.484,0.271,3.402,0.54v2.295h-0.352c-0.594-1.053-1.592-1.863-2.996-1.863c-1.322,0-2.16,0.702-2.16,1.701
			c0,0.863,0.324,1.295,1.215,1.727l3.402,1.646c0.594,0.297,1.322,1.025,1.322,2.268c0,2.133-1.674,3.32-4.32,3.32
			c-1.105,0-2.482-0.27-3.4-0.539V62.505z"/>
		<path style="fill:#231F20;" d="M151.102,62.505h0.352c0.756,1.35,1.619,1.943,3.023,1.943c1.539,0,2.375-0.566,2.375-1.564
			c0-0.648-0.324-1.08-0.891-1.35l-3.348-1.646c-1.08-0.54-1.754-1.377-1.754-2.699c0-2.213,1.998-3.401,4.129-3.401
			c1.107,0,2.484,0.271,3.402,0.54v2.295h-0.352c-0.594-1.053-1.592-1.863-2.996-1.863c-1.322,0-2.158,0.702-2.158,1.701
			c0,0.863,0.322,1.295,1.213,1.727l3.402,1.646c0.594,0.297,1.322,1.025,1.322,2.268c0,2.133-1.674,3.32-4.318,3.32
			c-1.107,0-2.484-0.27-3.402-0.539V62.505z"/>
		<path style="fill:#231F20;" d="M160.768,64.907c0.568-0.242,1.188-0.539,1.188-1.053v-7.07c0-0.864-0.484-1.27-1.375-1.459v-0.297
			l3.131-1.241h0.297v10.067c0,0.541,0.566,0.783,1.215,1.053v0.324c-0.352,0-1.918-0.053-2.268-0.053
			c-0.352,0-1.863,0.053-2.188,0.053V64.907z M162.9,49.333c0.648,0,1.215,0.567,1.215,1.188c0,0.648-0.566,1.188-1.215,1.188
			s-1.242-0.54-1.242-1.188C161.658,49.9,162.252,49.333,162.9,49.333z"/>
		<path style="fill:#231F20;" d="M166.924,59.618c0-3.348,2.35-5.831,5.67-5.831s5.668,2.483,5.668,5.831
			c0,3.373-2.295,5.803-5.668,5.803C169.246,65.421,166.924,62.991,166.924,59.618z M176.076,59.591c0-2.213-1-4.832-3.482-4.832
			c-2.484,0-3.482,2.619-3.482,4.832s0.998,4.857,3.482,4.857C175.076,64.448,176.076,61.804,176.076,59.591z"/>
		<path style="fill:#231F20;" d="M180.344,64.907c0.566-0.242,1.188-0.539,1.188-1.053v-7.07c0-0.864-0.486-1.27-1.377-1.459v-0.297
			l3.023-1.241h0.297l0.107,1.755c0.973-0.918,2.188-1.755,3.861-1.755c2.32,0,3.67,1.485,3.67,3.294v6.773
			c0,0.541,0.568,0.783,1.215,1.053v0.324c-0.35,0-1.916-0.053-2.268-0.053c-0.35,0-1.861,0.053-2.186,0.053v-0.324
			c0.566-0.242,1.188-0.539,1.188-1.053v-5.263c0-1.917-0.756-3.428-2.672-3.428c-1.215,0-2.268,0.81-2.809,1.484v7.206
			c0,0.541,0.568,0.783,1.215,1.053v0.324c-0.35,0-1.916-0.053-2.268-0.053c-0.35,0-1.861,0.053-2.186,0.053V64.907z"/>
		<path style="fill:#231F20;" d="M195.004,62.505h0.352c0.756,1.35,1.619,1.943,3.023,1.943c1.537,0,2.375-0.566,2.375-1.564
			c0-0.648-0.324-1.08-0.891-1.35l-3.348-1.646c-1.08-0.54-1.754-1.377-1.754-2.699c0-2.213,1.996-3.401,4.129-3.401
			c1.107,0,2.484,0.271,3.402,0.54v2.295h-0.352c-0.594-1.053-1.592-1.863-2.996-1.863c-1.322,0-2.16,0.702-2.16,1.701
			c0,0.863,0.324,1.295,1.215,1.727l3.402,1.646c0.594,0.297,1.322,1.025,1.322,2.268c0,2.133-1.674,3.32-4.32,3.32
			c-1.105,0-2.482-0.27-3.4-0.539V62.505z"/>
		<path style="fill:#231F20;" d="M217.938,51.397c0.365-0.78,0.494-1.248,0.494-1.638c0-0.416-0.207-0.702-0.545-0.937l0.051-0.338
			c1.326,0.104,2.758,0.078,4.082,0l-0.051,0.338c-0.807,0.286-1.795,0.884-2.34,1.534c-0.26,0.312-0.729,1.456-1.379,2.808
			l-4.705,9.855c0.779,0.494,1.896,0.701,2.678,0.701c4.705,0,6.969-3.432,7.41-8.371c-0.416-0.494-1.248-0.91-1.924-0.91
			c-0.703,0-1.301,0.623-1.535,1.117l-0.545-0.26c0.754-1.248,2.131-2.184,3.406-2.184c2.365,0,2.963,2.99,4.342,2.99
			c0.467,0,0.729-0.469,0.729-0.885c0-0.676-0.625-0.779-0.625-1.456c0-0.416,0.391-0.754,0.779-0.754
			c0.65,0,0.963,0.702,0.963,1.274c0,1.3-1.014,2.99-2.781,2.99c-0.781,0-1.717-0.754-2.186-1.301
			c-0.389,7.281-4.264,9.568-8.449,9.568c-4.004,0-5.852-2.809-5.852-6.137c0-2.859,1.77-7.124,5.514-7.124
			c0.52,0,1.248,0.183,1.82,0.494L217.938,51.397z M216.482,54.491c-0.441-0.494-1.17-0.883-1.951-0.883
			c-2.469,0-3.223,3.119-3.223,4.836c0,0.884,0.207,2.521,1.43,3.926L216.482,54.491z"/>
		<path style="fill:#231F20;" d="M234.441,64.882c0.838-0.162,1.297-0.838,1.297-1.539V49.657c0-0.675-0.486-1.269-1.297-1.458
			v-0.351h7.451c1.564,0,2.699-0.081,3.615-0.135l-0.053,3.023h-0.352c-0.35-1.08-1.16-1.728-2.564-1.728h-4.561v6.694h4.129
			c0.756,0,1.188-0.297,1.539-0.945h0.352c-0.027,0.27-0.027,1.161-0.027,1.484c0,0.297,0.053,1.215,0.053,1.512h-0.35
			c-0.352-0.621-0.811-0.944-1.566-0.944h-4.129v6.612c0,0.676,0.35,1.242,1.781,1.459v0.35c-0.324,0-2.24-0.053-2.699-0.053
			c-0.406,0-2.268,0.053-2.619,0.053V64.882z"/>
		<path style="fill:#231F20;" d="M247.186,64.907c0.566-0.242,1.188-0.539,1.188-1.053v-7.07c0-0.864-0.486-1.27-1.377-1.459v-0.297
			l3.131-1.241h0.297v10.067c0,0.541,0.568,0.783,1.215,1.053v0.324c-0.35,0-1.916-0.053-2.268-0.053
			c-0.35,0-1.861,0.053-2.186,0.053V64.907z M249.318,49.333c0.646,0,1.215,0.567,1.215,1.188c0,0.648-0.568,1.188-1.215,1.188
			c-0.648,0-1.242-0.54-1.242-1.188C248.076,49.9,248.67,49.333,249.318,49.333z"/>
		<path style="fill:#231F20;" d="M253.801,64.907c0.566-0.242,1.188-0.539,1.188-1.053v-7.07c0-0.864-0.486-1.27-1.377-1.459v-0.297
			l3.023-1.241h0.297l0.109,1.755c0.971-0.918,2.186-1.755,3.859-1.755c2.32,0,3.67,1.485,3.67,3.294v6.773
			c0,0.541,0.568,0.783,1.215,1.053v0.324c-0.35,0-1.916-0.053-2.268-0.053c-0.35,0-1.861,0.053-2.186,0.053v-0.324
			c0.566-0.242,1.188-0.539,1.188-1.053v-5.263c0-1.917-0.756-3.428-2.672-3.428c-1.215,0-2.268,0.81-2.807,1.484v7.206
			c0,0.541,0.566,0.783,1.213,1.053v0.324c-0.35,0-1.916-0.053-2.266-0.053c-0.352,0-1.863,0.053-2.188,0.053V64.907z"/>
		<path style="fill:#231F20;" d="M268.109,54.327c1.027-0.297,2.215-0.54,3.807-0.54c3.213,0,3.859,1.646,3.859,3.455v5.614
			c0,0.863,0.271,1.08,0.594,1.08c0.189,0,0.486-0.027,0.621-0.107l0.189,0.432c0,0-0.566,0.297-1.133,0.674
			c-0.434,0.297-1,0.756-1,0.756c-0.377-0.35-0.836-0.943-1.105-1.699c-0.783,0.863-2.053,1.43-3.482,1.43
			c-2.053,0-3.51-0.973-3.51-3.158c0-2.051,1.943-3.104,3.914-3.455c0.539-0.08,2.268-0.107,2.861-0.107v-1.755
			c0-1.214-0.756-2.214-2.402-2.214c-1.322,0-2.213,0.648-2.861,1.782h-0.352V54.327z M273.725,59.563h-1.592
			c-1.594,0-2.996,0.863-2.996,2.592c0,1.24,0.836,1.971,1.861,1.971c1.08,0,2.16-0.594,2.727-1.512V59.563z"/>
		<path style="fill:#231F20;" d="M279.127,64.907c0.566-0.242,1.188-0.539,1.188-1.053v-7.07c0-0.864-0.486-1.27-1.377-1.459v-0.297
			l3.023-1.241h0.297l0.107,1.755c0.973-0.918,2.186-1.755,3.859-1.755c2.322,0,3.672,1.485,3.672,3.294v6.773
			c0,0.541,0.566,0.783,1.215,1.053v0.324c-0.352,0-1.916-0.053-2.268-0.053s-1.863,0.053-2.188,0.053v-0.324
			c0.568-0.242,1.189-0.539,1.189-1.053v-5.263c0-1.917-0.756-3.428-2.674-3.428c-1.215,0-2.268,0.81-2.807,1.484v7.206
			c0,0.541,0.566,0.783,1.215,1.053v0.324c-0.352,0-1.916-0.053-2.268-0.053s-1.863,0.053-2.186,0.053V64.907z"/>
		<path style="fill:#231F20;" d="M302.641,63.423c-0.594,0.703-2.078,1.998-4.211,1.998c-3.807,0-5.83-2.322-5.83-5.83
			c0-3.698,2.51-5.804,5.775-5.804c1.135,0,2.754,0.243,3.779,0.54v2.295h-0.352c-0.646-1.135-1.754-1.863-3.346-1.863
			c-2.268,0-3.672,1.809-3.672,4.535c0,3.023,1.646,4.832,3.994,4.832c1.459,0,2.727-0.514,3.402-1.215L302.641,63.423z"/>
		<path style="fill:#231F20;" d="M304.398,64.907c0.566-0.242,1.188-0.539,1.188-1.053v-7.07c0-0.864-0.486-1.27-1.377-1.459v-0.297
			l3.131-1.241h0.297v10.067c0,0.541,0.566,0.783,1.215,1.053v0.324c-0.352,0-1.916-0.053-2.268-0.053s-1.863,0.053-2.186,0.053
			V64.907z M306.529,49.333c0.648,0,1.215,0.567,1.215,1.188c0,0.648-0.566,1.188-1.215,1.188c-0.646,0-1.24-0.54-1.24-1.188
			C305.289,49.9,305.883,49.333,306.529,49.333z"/>
		<path style="fill:#231F20;" d="M311.93,54.327c1.027-0.297,2.215-0.54,3.807-0.54c3.213,0,3.859,1.646,3.859,3.455v5.614
			c0,0.863,0.271,1.08,0.594,1.08c0.189,0,0.486-0.027,0.621-0.107L321,64.261c0,0-0.566,0.297-1.133,0.674
			c-0.434,0.297-1,0.756-1,0.756c-0.377-0.35-0.836-0.943-1.105-1.699c-0.783,0.863-2.053,1.43-3.482,1.43
			c-2.053,0-3.51-0.973-3.51-3.158c0-2.051,1.943-3.104,3.914-3.455c0.539-0.08,2.268-0.107,2.861-0.107v-1.755
			c0-1.214-0.756-2.214-2.402-2.214c-1.322,0-2.213,0.648-2.861,1.782h-0.352V54.327z M317.545,59.563h-1.592
			c-1.594,0-2.996,0.863-2.996,2.592c0,1.24,0.836,1.971,1.861,1.971c1.08,0,2.16-0.594,2.727-1.512V59.563z"/>
		<path style="fill:#231F20;" d="M322.947,64.907c0.566-0.242,1.188-0.539,1.188-1.053v-14.09c0-0.863-0.486-1.269-1.377-1.457
			v-0.297l3.131-1.242h0.297v17.086c0,0.541,0.566,0.783,1.215,1.053v0.324c-0.352,0-1.916-0.053-2.268-0.053
			s-1.863,0.053-2.186,0.053V64.907z"/>
		<path style="fill:#231F20;" d="M334.15,64.882c1-0.352,1.297-0.865,1.674-1.809l5.426-13.416c0.242-0.594,0.621-1.971,0.621-1.971
			h1.404c0,0,0.35,1.377,0.566,1.971l5.02,13.416c0.379,0.998,0.756,1.537,1.756,1.809v0.35c-0.406,0-1.998-0.053-2.402-0.053
			c-0.406,0-1.943,0.053-2.35,0.053v-0.35c0.73-0.244,0.891-0.648,0.811-1.135c-0.027-0.215-0.242-0.836-0.324-1.025l-1.025-2.619
			h-6.883l-0.918,2.24c-0.107,0.244-0.379,1.189-0.404,1.324c-0.109,0.566,0.215,0.971,0.971,1.215v0.35
			c-0.324,0-1.457-0.053-1.809-0.053s-1.701,0.053-2.133,0.053V64.882z M344.922,58.942l-2.916-7.692l-3.104,7.692H344.922z"/>
		<path style="fill:#231F20;" d="M352.295,64.907c0.566-0.242,1.188-0.539,1.188-1.053v-7.07c0-0.864-0.486-1.27-1.377-1.459v-0.297
			l3.131-1.241h0.297v10.067c0,0.541,0.568,0.783,1.215,1.053v0.324c-0.35,0-1.916-0.053-2.268-0.053
			c-0.35,0-1.861,0.053-2.186,0.053V64.907z M354.428,49.333c0.646,0,1.215,0.567,1.215,1.188c0,0.648-0.568,1.188-1.215,1.188
			c-0.648,0-1.242-0.54-1.242-1.188C353.186,49.9,353.779,49.333,354.428,49.333z"/>
		<path style="fill:#231F20;" d="M370.328,64.261c0,0-0.566,0.297-1.133,0.674c-0.434,0.297-1,0.756-1,0.756
			c-0.377-0.35-0.836-0.943-1.105-1.699c-0.783,0.863-2.295,1.43-3.969,1.43c-2.754,0-4.67-2.645-4.67-5.668
			c0-3.186,2.025-5.966,5.047-5.966c1.377,0,2.564,0.485,3.375,1.377v-5.399c0-0.863-0.486-1.269-1.377-1.457v-0.297l3.131-1.242
			h0.297v16.088c0,0.863,0.271,1.08,0.594,1.08c0.189,0,0.486-0.027,0.621-0.107L370.328,64.261z M366.873,57.188
			c-0.189-1.35-1.566-2.187-3.051-2.187c-2.105,0-3.184,2.24-3.184,4.454c0,2.402,1.268,4.67,3.508,4.67
			c1.053,0,2.188-0.486,2.727-1.459V57.188z"/>
	</g>
	<path style="fill:#A51C30;stroke:#000000;stroke-width:1.056;" d="M0,0h66.025c0,0,0,12.295,0,24.924
		c0,11.416-4.256,35.634-32.764,53.655c0,0-30.896-12.891-33.262-53.655C0,24.924,0,11.52,0,0z"/>
	<path style="fill:#FFFFFF;" d="M49.955,33.06c0,0-0.588,1.873-3.211-0.054l-8.986-0.213c0,0-1.178,0.373-1.338-0.857
		c0,0,0.215-2.459,0.107-2.674c0,0,0.053-0.696-1.125-0.696c0,0-1.818,0.214-1.869-1.39c0,0-0.32-1.715,2.191-1.662
		c0,0,0.803,0.377,0.855-0.641c0,0-0.107-6.955-0.053-7.488c0,0,0.217-0.642-1.016-0.75c0,0-1.766,0.375-1.979-0.8
		c0,0-0.107-1.766,1.068-1.875c0,0,1.443,0.109,1.711-0.269c0,0,0.322,0.215,0.268-1.064l0.055-2.199c0,0,0.158-0.585,1.07-0.532
		c0,0,1.658,0.108,1.871-0.053c0,0,0.373-0.482,0.482-0.695c0,0,0.857-0.052,1.018,0.158c0,0,1.285,0.856,6.148,0.537
		c0,0,0.752,0,0.912,0.214c0,0,0.906,0.694,1.445-0.053c0,0,0.803-0.161,3.207-0.108c0,0,2.621,0.695,4.443-0.8l0.586,0.103
		c0,0,0.746,1.229,1.285,0.858c0,0,1.604-0.161,1.873,0.159c0,0,0.533,0.801,0.266,2.89c0,0-0.322,0.908,1.232,0.908
		c0,0,1.764-0.322,1.549,1.337c0,0,0.482,1.874-2.461,1.606c0,0-0.373,0.537-0.32,0.91c0,0-0.053,6.098-0.109,6.793
		c0,0-0.051,0.964,1.232,0.91c0,0,1.713-0.109,1.768,1.442c0,0,0.211,2.034-2.25,1.659c0,0-0.75,0.107-0.855,0.59l-0.107,2.674
		c0,0,0.057,1.337-1.443,1.017c-0.213,0-8.344,0.161-9.041-0.052C50.436,32.9,50.059,32.846,49.955,33.06z"/>
	<path style="fill:#FFFFFF;" d="M32.586,42.13c0,0,0.371-0.157,0.477-0.425c0,0,1.123-0.109,1.285-0.27l3.535,0.27
		c0,0,3.471,0.268,4.971-0.807c0,0,0.537,0,0.912,0.162c0,0,0.748,0.16,0.959,0.482l2.035-0.056c0,0,1.176,0.375,1.07,1.126v0.959
		c0,0-0.213,1.928,0.32,2.036h1.553c0,0,1.281,0.589,1.125,1.337c0,0,0.049,1.068-1.07,1.281c0,0-1.127,0.322-1.502,0.27
		c0,0-0.373,0.482-0.426,1.068l-0.162,7.01c0,0-0.107,0.75,1.016,0.643c0,0,1.658-0.16,2.145,0.75c0,0,0.426,1.55-0.432,1.819
		l-0.639,0.32l-1.395,0.215c0,0-0.586,0.051-0.637,1.066v1.875c0,0,0.051,1.281-0.967,1.281l-1.498,0.107
		c0,0-0.375,0.32-1.119,0.107c0,0-9.096,0.16-9.42,0.055l-1.072,0.215c0,0-1.174,1.066-2.137,0.264l-0.752-0.588
		c0,0-0.531,0.109-0.746,0.055c-0.213-0.055-10.057,0.107-10.057,0.107s-2.086,0.217-2.246-0.48c0,0-0.266-2.73-0.16-3.053
		c0,0,0-0.801-0.484-0.854c0,0-2.084-0.107-2.139-0.322c0,0-1.123-0.802-0.801-1.601c0,0,0.373-1.073,1.496-1.178
		c0,0,1.713,0.268,1.713-0.216c0,0,0.109-0.321,0.109-0.854c0,0,0.105-6.367,0.053-6.797c0,0,0.158-0.8-0.535-0.8
		c0,0-0.75,0.212-1.232-0.109c0,0-1.285,0.054-1.551-0.961c0,0-0.213-0.642,0.105-1.183c0,0,0.588-1.176,2.301-0.799
		c0,0,0.965,0.268,1.07-0.426l-0.053-2.57c0,0-0.215-0.691,1.125-1.068c0,0,1.713,0.48,2.244-0.375c0,0,0.59-1.176,1.068-0.374
		c0,0,1.018,0.966,3.799,0.858c0,0,4.818-0.377,4.92-0.162c0,0,1.178,0.162,1.5,0.533L32.586,42.13z"/>
	<path style="fill:#FFFFFF;" d="M17.969,33.188c0,0-0.592,1.875-3.213-0.053L5.77,32.92c0,0-1.176,0.377-1.338-0.854
		c0,0,0.217-2.458,0.107-2.677c0,0,0.055-0.695-1.123-0.695c0,0-1.82,0.217-1.869-1.39c0,0-0.326-1.712,2.189-1.659
		c0,0,0.803,0.377,0.857-0.639c0,0-0.109-6.957-0.055-7.493c0,0,0.217-0.639-1.016-0.745c0,0-1.766,0.373-1.977-0.806
		c0,0-0.111-1.765,1.064-1.872c0,0,1.445,0.107,1.715-0.265c0,0,0.322,0.212,0.268-1.073l0.055-2.191c0,0,0.158-0.59,1.068-0.537
		c0,0,1.656,0.105,1.873-0.053c0,0,0.373-0.48,0.477-0.695c0,0,0.861-0.053,1.023,0.163c0,0,1.279,0.854,6.152,0.532
		c0,0,0.746,0,0.906,0.216c0,0,0.91,0.695,1.443-0.058c0,0,0.801-0.158,3.211-0.105c0,0,2.619,0.695,4.441-0.801l0.588,0.11
		c0,0,0.748,1.228,1.283,0.854c0,0,1.604-0.163,1.871,0.159c0,0,0.537,0.803,0.268,2.89c0,0-0.32,0.91,1.229,0.91
		c0,0,1.77-0.32,1.555,1.335c0,0,0.484,1.875-2.459,1.606c0,0-0.377,0.536-0.324,0.909c0,0-0.053,6.098-0.105,6.793
		c0,0-0.053,0.965,1.23,0.912c0,0,1.713-0.109,1.764,1.442c0,0,0.213,2.034-2.248,1.659c0,0-0.746,0.107-0.854,0.586l-0.107,2.677
		c0,0,0.053,1.339-1.447,1.017c-0.213,0-8.34,0.158-9.035-0.051C18.451,33.031,18.076,32.978,17.969,33.188z"/>
	<path style="stroke:#000000;stroke-width:0.3587;" d="M49.955,33.06c0,0-0.588,1.873-3.211-0.054l-8.986-0.213
		c0,0-1.178,0.373-1.338-0.857c0,0,0.215-2.459,0.107-2.674c0,0,0.053-0.696-1.125-0.696c0,0-1.818,0.214-1.869-1.39
		c0,0-0.32-1.715,2.191-1.662c0,0,0.803,0.377,0.855-0.641c0,0-0.107-6.955-0.053-7.488c0,0,0.217-0.642-1.016-0.75
		c0,0-1.766,0.375-1.979-0.8c0,0-0.107-1.766,1.068-1.875c0,0,1.443,0.109,1.711-0.269c0,0,0.322,0.215,0.268-1.064l0.055-2.199
		c0,0,0.158-0.585,1.07-0.532c0,0,1.658,0.108,1.871-0.053c0,0,0.373-0.482,0.482-0.695c0,0,0.857-0.052,1.018,0.158
		c0,0,1.285,0.856,6.148,0.537c0,0,0.752,0,0.912,0.214c0,0,0.906,0.694,1.445-0.053c0,0,0.803-0.161,3.207-0.108
		c0,0,2.621,0.695,4.443-0.8l0.586,0.103c0,0,0.746,1.229,1.285,0.858c0,0,1.604-0.161,1.873,0.159c0,0,0.533,0.801,0.266,2.89
		c0,0-0.322,0.908,1.232,0.908c0,0,1.764-0.322,1.549,1.337c0,0,0.482,1.874-2.461,1.606c0,0-0.373,0.537-0.32,0.91
		c0,0-0.053,6.098-0.109,6.793c0,0-0.051,0.964,1.232,0.91c0,0,1.713-0.109,1.768,1.442c0,0,0.211,2.034-2.25,1.659
		c0,0-0.75,0.107-0.855,0.59l-0.107,2.674c0,0,0.057,1.337-1.443,1.017c-0.213,0-8.344,0.161-9.041-0.052
		C50.436,32.9,50.059,32.846,49.955,33.06z"/>
	<path style="fill:#FFFFFF;stroke:#000000;stroke-width:0.1793;" d="M39.844,11.017c0,0,0.105,1.072,0.105,1.339
		c0,0.271-0.16,15.461-0.16,15.461s0.16,1.178-0.855,1.764c0,0-0.268,0.107-0.318-0.641l0.104-16.047
		C38.719,12.893,38.826,10.91,39.844,11.017z"/>
	<path style="fill:#FFFFFF;" d="M38.08,29.744c0,0,0.104-15.086,0.053-15.354c-0.053-0.269,0.051,0.213,0.051,0.213
		s-0.156-2.621,0.535-3.692c0,0-0.215-0.906-1.445,0.217l-0.049,2.192c0,0,0,1.231-1.125,1.176c0,0-1.285-0.055-1.871,0.533
		c0,0-0.324,1.179,0.91,0.965c0,0,1.922,0,2.029,0.802l-0.107,8.078c0,0,0.43,1.342-1.066,1.342c0,0-1.824-0.111-1.766,1.012
		c0,0,0.373,0.964,1.924,0.643c0,0,1.121,0.213,1.072,1.285v2.031c0,0-0.109,0.806,0.959,0.858h8.348c0,0,0.426,0.054,0.426-0.483
		c0,0-0.055-0.428-0.691-0.428l-6.955-0.107C39.311,31.025,38.184,31.4,38.08,29.744z"/>
	<path style="fill:#FFFFFF;stroke:#000000;stroke-width:0.1793;" d="M39.525,29.848c0,0-0.215,0.75,0.586,0.59h5.512l1.498,0.323
		c0,0,1.547-0.374,0-1.229c0,0-4.924,0.049-5.352-0.055c0,0-1.016-0.268-1.23-0.322C40.539,29.154,40.004,28.939,39.525,29.848z"/>
	<path style="fill:#FFFFFF;" d="M48.668,30.598c0,0-1.012,0-0.959,1.338c0,0,0.105,1.017,1.178,1.017c0,0,0.959-0.159,0.854-1.229
		C49.74,31.723,49.15,30.387,48.668,30.598z"/>
	<path style="fill:#FFFFFF;stroke:#000000;stroke-width:0.1793;" d="M49.42,30.063c0,0,0.482-0.532,0.801-0.532
		c0,0,5.354,0.479,6.26-0.162c0,0,0.803-0.16,1.018,0c0,0,0.801,0.641,0.801,1.018c0,0-0.053,0.479-1.016,0.211
		c0,0-6.045,0.056-6.365,0.056C50.918,30.653,49.258,31.025,49.42,30.063z"/>
	<path style="fill:#FFFFFF;" d="M50.277,31.668c0,0,0-0.428,0.746-0.428l7.488-0.055c0,0,0.697,0.375,0.697-0.908
		c0,0,0.273-5.829,0.301-12.254c0.008-1.907,0.096-3.913,0.023-5.773c0,0-0.164-0.802-0.379-0.966c0,0,0-0.856,0.91-0.533
		c0,0,0.803,0.055,0.59,1.287l0.053,1.868c0,0-0.162,0.806,1.285,0.589c0,0,1.439,0.217,1.496,0.749c0,0,0.43,1.07-1.281,0.963
		h-1.23c0,0-0.539,0.319-0.375,0.963l-0.164,7.758c0,0-0.104,1.338,1.18,1.287c0,0,1.336-0.057,1.604,0.371
		c0,0,0.912,1.339-1.07,1.23c0,0-1.23-0.053-1.496,0.159c0,0-0.217,0.269-0.375,2.785c0,0,0.109,1.496-1.016,1.337
		c0,0-7.438,0.107-8.131-0.054C51.133,32.044,50.385,32.257,50.277,31.668z"/>
	<path style="fill:#FFFFFF;" d="M40.646,10.532l-0.158,17.173c0,0-0.057,0.802,1.281,0.963c0,0,1.551,0.159,1.928,0
		c0,0,1.016-0.055,3.637,0.056c0,0,0.643,0.642,0.695-0.163c0,0,0.426-13.907,0.215-16.799c0,0-0.053-1.229-0.965-1.283
		c0,0-4.064,0.323-4.438,0l-1.607-0.427C41.234,10.052,40.592,10.104,40.646,10.532z"/>
	<path style="fill:#FFFFFF;" d="M49.1,11.389c0,0-0.164,8.078-0.109,8.344l-0.104,6.795l-0.219,2.354c0,0,0.322,0.483,0.59,0.165
		c0,0,1.713-0.434,2.781-0.27c0,0,3.426,0.318,4.119-0.217c0,0,0.537,0.267,0.693-0.588c0,0,0.217-14.977,0.111-15.245
		c0,0,0.211-2.144,0.105-2.356c0,0-0.051-0.479-0.963-0.054c0,0,0.107,0.429-4.973,0.267C51.133,10.584,49.205,10.532,49.1,11.389z"
		/>
	<path style="fill:#FFFFFF;stroke:#000000;stroke-width:0.1793;" d="M57.605,11.178l-0.055,16.904c0,0,0.43,1.498,1.123,1.341
		c0,0,0.104-0.321,0.16-0.857l0.215-16.104C59.049,12.462,58.512,9.896,57.605,11.178z"/>
	<path d="M51.039,16.239c-0.162-0.428,0.91-0.48,0.91-0.48l0.531,0.108c0.377-0.056,0.752,0.104,0.752,0.104
		c0.375,0.588-0.268,0.91-0.268,0.91l-0.215,0.695c-0.053,0.59,0,5.672,0,5.672c0.107,0.266,0.535,0.745,0.535,0.745
		c0,0.483-0.588,0.378-0.588,0.378l-1.555,0.055c-0.479-0.055-0.318-0.59-0.318-0.59c0.535-0.269,0.693-1.232,0.693-1.232v-5.293
		L51.039,16.239z"/>
	<path d="M43.816,21.213l-0.107,1.66l0.482,0.801c0.32,0.43-0.215,0.752-0.215,0.752l-1.711-0.162c-0.32-0.16,0-0.696,0-0.696
		c0.43-0.267,0.48-0.964,0.48-0.964l-0.051-3.103l0.051-2.247c0-0.266-0.428-0.748-0.428-0.748
		c-0.373-0.054-0.266-0.535-0.266-0.535c0.105-0.267,1.014-0.104,1.014-0.104h2.248c2.141,0.691,1.814,2.242,1.814,2.242
		c0.162,1.555-1.496,2.198-1.496,2.198l-0.105,0.854l1.553,2.457c0.268,0.217,0.211,0.43,0.211,0.43c-0.211,0.59-1.064,0-1.064,0
		l-1.928-2.997C44.137,20.838,43.816,21.213,43.816,21.213z M43.871,16.988c0.051,1.178,0.051,2.781,0.051,2.781
		c1.021,0.803,1.605-0.32,1.605-0.32c1.336-1.283,0-2.461-0.213-2.783c-0.217-0.322-1.287-0.054-1.287-0.054L43.871,16.988z"/>
	<path style="stroke:#000000;stroke-width:0.3587;" d="M32.586,42.13c0,0,0.371-0.157,0.477-0.425c0,0,1.123-0.109,1.285-0.27
		l3.535,0.27c0,0,3.471,0.268,4.971-0.807c0,0,0.537,0,0.912,0.162c0,0,0.748,0.16,0.959,0.482l2.035-0.056
		c0,0,1.176,0.375,1.07,1.126v0.959c0,0-0.213,1.928,0.32,2.036h1.553c0,0,1.281,0.589,1.125,1.337c0,0,0.049,1.068-1.07,1.281
		c0,0-1.127,0.322-1.502,0.27c0,0-0.373,0.482-0.426,1.068l-0.162,7.01c0,0-0.107,0.75,1.016,0.643c0,0,1.658-0.16,2.145,0.75
		c0,0,0.426,1.55-0.432,1.819l-0.639,0.32l-1.395,0.215c0,0-0.586,0.051-0.637,1.066v1.875c0,0,0.051,1.281-0.967,1.281
		l-1.498,0.107c0,0-0.375,0.32-1.119,0.107c0,0-9.096,0.16-9.42,0.055l-1.072,0.215c0,0-1.174,1.066-2.137,0.264l-0.752-0.588
		c0,0-0.531,0.109-0.746,0.055c-0.213-0.055-10.057,0.107-10.057,0.107s-2.086,0.217-2.246-0.48c0,0-0.266-2.73-0.16-3.053
		c0,0,0-0.801-0.484-0.854c0,0-2.084-0.107-2.139-0.322c0,0-1.123-0.802-0.801-1.601c0,0,0.373-1.073,1.496-1.178
		c0,0,1.713,0.268,1.713-0.216c0,0,0.109-0.321,0.109-0.854c0,0,0.105-6.367,0.053-6.797c0,0,0.158-0.8-0.535-0.8
		c0,0-0.75,0.212-1.232-0.109c0,0-1.285,0.054-1.551-0.961c0,0-0.213-0.642,0.105-1.183c0,0,0.588-1.176,2.301-0.799
		c0,0,0.965,0.268,1.07-0.426l-0.053-2.57c0,0-0.215-0.691,1.125-1.068c0,0,1.713,0.48,2.244-0.375c0,0,0.59-1.176,1.068-0.374
		c0,0,1.018,0.966,3.799,0.858c0,0,4.818-0.377,4.92-0.162c0,0,1.178,0.162,1.5,0.533L32.586,42.13z"/>
	<path style="fill:#FFFFFF;" d="M33.973,63.153c0,0,0.646-0.32,1.074-0.211c0.428,0.104,6.686-0.055,6.686-0.055
		s2.729,0.211,3.154-0.162l0.641-0.215c0,0,0.27-0.318,0.27-0.748s0.055-1.873,0.055-1.873l0.16-0.534c0,0-0.053-0.533,0-14.819
		c0,0,0.215-1.12-0.484-1.817c0,0,0-0.426,0.215-0.374c0.217,0.057,0.109,0.057,0.109,0.057s0.963-0.271,1.119,0.104
		c0,0,0.434,1.281,0.053,2.03c0,0-0.104,1.557,0.703,1.557c0,0,0.318,0.319,0.957,0.157c0,0,1.393,0.162,1.393,0.587
		c0,0,0,0.965-0.963,0.805l-1.283,0.106c0,0-0.859,0.162-0.75,1.176c0.105,1.018-0.057,8.293-0.057,8.293s0,0.859,1.34,0.806
		c0,0,1.662-0.056,1.662,0.425c0,0,0.426,1.069-0.752,1.124c0,0-2.25-0.055-2.088,0.586c0,0-0.162,1.498-0.266,1.766
		c0,0,0.215,1.23-0.053,1.445c0,0-0.162,0.695-1.605,0.586c0,0-9.201-0.051-10.643,0.055C34.619,64.009,33.76,63.903,33.973,63.153z
		"/>
	<path style="fill:#FFFFFF;" d="M32.316,62.142c0,0,0.91,0.158,0.91,1.012c0,0.855,0.053,1.338-0.484,1.445
		c-0.533,0.105-1.121-0.055-1.279-0.748C31.297,63.153,31.568,62.3,32.316,62.142z"/>
	<path style="fill:#FFFFFF;stroke:#000000;stroke-width:0.1793;" d="M33.387,61.708c0,0,0.961-0.643,1.336-0.531
		c0,0,4.869,0.318,6.365,0.053c1.5-0.268,0.59-0.053,0.59-0.053s1.283,0,1.658-0.484c0,0,0.373-0.105,0.588,0.27l0.801,0.859
		c0,0,0.057,0.531-0.854,0.479c0,0-8.721,0-8.986,0.053C34.885,62.353,33.227,62.618,33.387,61.708z"/>
	<path style="fill:#FFFFFF;stroke:#000000;stroke-width:0.1793;" d="M20.709,42.719c0,0,0.371,0,0.32,0.643l-0.111,16.155
		c0,0,0.162,1.07-0.744,1.766c0,0-0.484,0.588-0.484-0.32l0.215-16.475C19.904,44.487,19.959,43.254,20.709,42.719z"/>
	<path style="fill:#FFFFFF;" d="M19.852,42.828c0,0-0.643,1.176-0.588,1.443l-0.055,3.584c0,0-0.055,2.301,0,2.566
		c0.055,0.271-0.055,7.01-0.055,7.01s-0.051,1.282,0,1.713v2.886c0,0-0.105,1.285,0.857,0.961c0,0,9.416-0.213,10.004-0.049
		c0,0,0.855,0.156,0.537,0.588c0,0,0,0.373-0.59,0.268c0,0-4.443,0.424-8.455,0.266c0,0-2.674,0.158-2.836-0.16
		c0,0-0.426-0.053-0.426-1.604c0,0,0-1.445-0.105-1.713c0,0,0.105-0.752-1.232-0.91c0,0-1.871,0.322-1.924-0.802
		c0,0,0.266-0.799,2.084-0.695c0,0,1.34,0.215,1.072-0.855l0.16-7.916c0,0,0.162-1.395-0.748-1.447c0,0-0.855-0.051-1.125,0.053
		c0,0-1.553,0-1.443-0.908c0,0,0.533-0.963,2.084-0.749c0,0,1.178,0.214,1.232-1.122c0,0-0.055-2.729,0.59-2.833
		C18.891,42.401,20.227,42.45,19.852,42.828z"/>
	<path style="fill:#FFFFFF;stroke:#000000;stroke-width:0.1793;" d="M21.455,60.532c0,0,0.752,0.801,1.982,0.75l7.268,0.105
		c0,0,0.809,0.055,0.758,0.482c0,0-0.111,0.641-1.072,0.43l-8.773-0.107l-0.963,0.053c0,0-0.643-0.104,0.375-1.34L21.455,60.532z"/>
	<path style="fill:#FFFFFF;stroke:#000000;stroke-width:0.1793;" d="M43.924,59.835c0,0,0.645,1.23,0.963,1.395
		c0,0,0.59,0.693,0.43-0.537l0.111-15.409c0,0-0.166-0.533,0-1.389l-0.646-1.176c0,0-0.699-0.537-0.699,0.322l-0.105,16.423
		L43.924,59.835z"/>
	<path style="fill:#FFFFFF;" d="M32.051,52.504c0,0,0.053,1.283-0.111,2.516c-0.088,0.67,0.217,3.799-0.053,5.403
		c0,0-0.051,0.533-1.182,0.055c0,0-6.842,0.162-7.055-0.055c0,0-1.873,0.055-2.033-0.912c0,0,0.266-7.325,0.105-7.599
		c0,0-0.105-4.01,0-4.382c0,0,0.16-3.69,0.055-4.121c0,0,0.055-0.856-0.105-1.286c0,0,0-0.531,0.908-0.213
		c0,0,0.318,0.591,2.084,0.323c0,0,1.285,0.214,2.518,0.054c0,0,2.727-0.214,3.424,0c0,0,1.07-0.214,1.389,0.965l-0.055,3.315
		l0.322,1.071l0.377-0.27l0.156-0.802l0.053-3.53c0,0,0.215-0.645,1.072-0.75c0,0,1.338-0.164,1.555-0.054
		c0.211,0.106,3.098,0.268,3.904,0.106c0.803-0.162,0.959,0.535,3.371-0.695c0,0,0.641,0.055,0.641,0.479c0,0-0.221,4.551,0,5.407
		c0,0,0,8.344-0.164,8.933l0.109,2.676c0,0,0.105,1.175-1.766,1.284c0,0,1.18,0.162-6.207-0.055c0,0-1.178-0.055-2.457,0.535
		c0,0-0.268-0.057-0.268-0.75c0,0,0.209-2.512,0-4.975l-0.107-2.728L32.051,52.504z"/>
	<path d="M27.234,48.712c0,0,0.16,3.958,0,4.493l-0.053,0.855c0,0,0.213,0.588,0.535,0.804c0,0,0.268,0.745-0.377,0.694
		c0,0-1.334-0.108-1.656-0.057c0,0-0.752,0,0-0.958c0,0,0.266-0.377,0.213-1.339c0,0,0-4.493,0.109-4.762
		c0,0,0.104-0.588-0.271-0.748l-0.643,0.053l-0.801,0.748c0,0-0.162,0.805-0.535-0.053v-0.43l0.482-1.283l0.32-0.054
		c0,0,0.482,0.323,0.91,0.429h2.516l0.91-0.429c0,0,0.371,0.054,0.268,0.534c0,0,0.156,1.232-0.537,1.392
		c0,0-0.428-0.159-0.641-0.747C27.984,47.855,27.287,47.482,27.234,48.712z"/>
	<path d="M39.053,47.27c0,0-2.027-0.164-2.08,2.031c0,0-0.217,1.498,2.029,2.461c0,0,1.662,0.803,1.553,1.818
		c0,0-0.217,1.818-1.982,0.911c0,0-0.852-0.431-0.799-0.911c0,0-0.27-0.59-0.59-0.48c0,0-0.377,0.105-0.211,1.872
		c0,0,0,0.693,0.801,0l0.428,0.107c0,0,1.445,1.177,2.67-0.27c0,0,1.344-1.229,0.379-2.728c0,0-0.695-1.07-1.924-1.604
		c0,0-1.18-0.537-1.443-1.445c0,0,0.373-1.607,1.814-0.753c0,0,0.537,0.644,0.857,0.753c0,0,0.428,0,0.316-0.966L40.77,47.27
		c0,0-0.105-0.593-0.855,0C39.914,47.27,39.217,47.533,39.053,47.27z"/>
	<path d="M32.531,46.143c0.375,0.27,0.426,0.803,0.426,0.803c1.072,2.836,1.982,6.953,1.982,6.953
		c0.264,0.537,0.746,0.966,0.746,0.966c0.908,0.32,0,0.586,0,0.586c-0.375,0.159-1.602-0.052-1.602-0.052
		c-0.645-0.107-0.379-0.319-0.379-0.319c0.268-0.27,0.055-1.341,0.055-1.341c-0.055-0.426-0.533-1.123-0.533-1.123
		c-0.215-0.105-0.588,0.375-0.588,0.375s-0.588,0.215-0.645,0c-0.055-0.215-0.426-0.426-0.426-0.426
		c-0.645,0-0.908,1.603-0.908,1.603c0.369,1.335,0,1.124,0,1.124c-0.324,0.43-1.342,0.107-1.342,0.107
		c-0.479-0.107-0.156-0.481-0.156-0.481c0.588-0.107,0.746-0.75,0.746-0.75c0.268-0.374,1.979-7.33,1.979-7.33
		C32.051,46.514,32.156,45.873,32.531,46.143z M31.676,49.67c-0.055,0.271-0.43,1.768-0.43,1.768l0.322,0.536
		c0,0,0.855,0.054,1.174,0.054c0.32,0,0.379-0.266,0.379-0.533c0-0.266-0.59-1.873-0.59-1.873l-0.27-0.32L31.676,49.67z"/>
	<path style="stroke:#000000;stroke-width:0.3587;" d="M17.969,33.188c0,0-0.592,1.875-3.213-0.053L5.77,32.92
		c0,0-1.176,0.377-1.338-0.854c0,0,0.217-2.458,0.107-2.677c0,0,0.055-0.695-1.123-0.695c0,0-1.82,0.217-1.869-1.39
		c0,0-0.326-1.712,2.189-1.659c0,0,0.803,0.377,0.857-0.639c0,0-0.109-6.957-0.055-7.493c0,0,0.217-0.639-1.016-0.745
		c0,0-1.766,0.373-1.977-0.806c0,0-0.111-1.765,1.064-1.872c0,0,1.445,0.107,1.715-0.265c0,0,0.322,0.212,0.268-1.073l0.055-2.191
		c0,0,0.158-0.59,1.068-0.537c0,0,1.656,0.105,1.873-0.053c0,0,0.373-0.48,0.477-0.695c0,0,0.861-0.053,1.023,0.163
		c0,0,1.279,0.854,6.152,0.532c0,0,0.746,0,0.906,0.216c0,0,0.91,0.695,1.443-0.058c0,0,0.801-0.158,3.211-0.105
		c0,0,2.619,0.695,4.441-0.801l0.588,0.11c0,0,0.748,1.228,1.283,0.854c0,0,1.604-0.163,1.871,0.159c0,0,0.537,0.803,0.268,2.89
		c0,0-0.32,0.91,1.229,0.91c0,0,1.77-0.32,1.555,1.335c0,0,0.484,1.875-2.459,1.606c0,0-0.377,0.536-0.324,0.909
		c0,0-0.053,6.098-0.105,6.793c0,0-0.053,0.965,1.23,0.912c0,0,1.713-0.109,1.764,1.442c0,0,0.213,2.034-2.248,1.659
		c0,0-0.746,0.107-0.854,0.586l-0.107,2.677c0,0,0.053,1.339-1.447,1.017c-0.213,0-8.34,0.158-9.035-0.051
		C18.451,33.031,18.076,32.978,17.969,33.188z"/>
	<path style="fill:#FFFFFF;stroke:#000000;stroke-width:0.1793;" d="M7.857,11.148c0,0,0.105,1.068,0.105,1.337
		c0,0.267-0.162,15.461-0.162,15.461s0.162,1.179-0.854,1.765c0,0-0.268,0.111-0.32-0.643l0.105-16.046
		C6.732,13.022,6.838,11.042,7.857,11.148z"/>
	<path style="fill:#FFFFFF;" d="M6.092,29.873c0,0,0.107-15.087,0.055-15.356c-0.055-0.266,0.053,0.218,0.053,0.218
		s-0.16-2.621,0.533-3.692c0,0-0.215-0.913-1.443,0.213l-0.053,2.194c0,0,0,1.23-1.125,1.178c0,0-1.285-0.057-1.873,0.533
		c0,0-0.32,1.177,0.91,0.964c0,0,1.928,0,2.031,0.8l-0.104,8.082c0,0,0.426,1.337-1.072,1.337c0,0-1.818-0.108-1.766,1.015
		c0,0,0.373,0.966,1.928,0.645c0,0,1.123,0.211,1.07,1.282v2.034c0,0-0.109,0.803,0.963,0.854h8.346c0,0,0.426,0.055,0.426-0.484
		c0,0-0.055-0.42-0.693-0.42l-6.953-0.111C7.324,31.156,6.199,31.533,6.092,29.873z"/>
	<path style="fill:#FFFFFF;stroke:#000000;stroke-width:0.1793;" d="M7.535,29.979c0,0-0.211,0.752,0.586,0.587h5.514l1.498,0.32
		c0,0,1.553-0.373,0-1.229c0,0-4.924,0.055-5.352-0.049c0,0-1.014-0.27-1.227-0.323C8.555,29.284,8.016,29.068,7.535,29.979z"/>
	<path style="fill:#FFFFFF;" d="M16.686,30.73c0,0-1.018,0-0.965,1.335c0,0,0.105,1.017,1.176,1.017c0,0,0.965-0.162,0.857-1.229
		C17.754,31.854,17.164,30.513,16.686,30.73z"/>
	<path style="fill:#FFFFFF;stroke:#000000;stroke-width:0.1793;" d="M17.434,30.193c0,0,0.48-0.537,0.801-0.537
		c0,0,5.348,0.485,6.26-0.157c0,0,0.805-0.161,1.018,0c0,0,0.803,0.643,0.803,1.014c0,0-0.057,0.485-1.016,0.218
		c0,0-6.049,0.053-6.367,0.053C18.932,30.783,17.27,31.156,17.434,30.193z"/>
	<path style="fill:#FFFFFF;" d="M18.289,31.799c0,0,0-0.426,0.744-0.426l7.496-0.055c0,0,0.691,0.369,0.691-0.91
		c0,0,0.273-5.832,0.303-12.254c0.004-1.907,0.092-3.915,0.02-5.774c0,0-0.16-0.803-0.375-0.965c0,0,0-0.854,0.91-0.533
		c0,0,0.801,0.054,0.586,1.283l0.055,1.872c0,0-0.16,0.801,1.285,0.59c0,0,1.443,0.211,1.496,0.748c0,0,0.43,1.072-1.283,0.962
		h-1.23c0,0-0.533,0.322-0.373,0.966l-0.16,7.756c0,0-0.109,1.336,1.176,1.284c0,0,1.338-0.053,1.604,0.374
		c0,0,0.91,1.338-1.068,1.229c0,0-1.23-0.052-1.5,0.161c0,0-0.211,0.27-0.373,2.778c0,0,0.104,1.503-1.018,1.341
		c0,0-7.436,0.107-8.127-0.055C19.146,32.172,18.393,32.389,18.289,31.799z"/>
	<path style="fill:#FFFFFF;" d="M8.656,10.665l-0.158,17.17c0,0-0.053,0.801,1.283,0.964c0,0,1.555,0.16,1.926,0
		c0,0,1.018-0.055,3.639,0.053c0,0,0.643,0.643,0.695-0.16c0,0,0.428-13.909,0.215-16.799c0,0-0.055-1.228-0.965-1.281
		c0,0-4.066,0.318-4.438,0l-1.607-0.431C9.246,10.181,8.602,10.233,8.656,10.665z"/>
	<path style="fill:#FFFFFF;stroke:#000000;stroke-width:0.1793;" d="M25.619,11.308l-0.055,16.905c0,0,0.424,1.498,1.123,1.341
		c0,0,0.107-0.322,0.16-0.86l0.215-16.102C27.062,12.592,26.529,10.023,25.619,11.308z"/>
	<path style="fill:#FFFFFF;" d="M17.113,11.45c0,0-0.162,8.079-0.109,8.347l-0.102,6.795l-0.217,2.352c0,0,0.318,0.482,0.588,0.162
		c0,0,1.713-0.428,2.781-0.268c0,0,3.426,0.322,4.119-0.215c0,0,0.539,0.269,0.695-0.588c0,0,0.213-14.979,0.107-15.245
		c0,0,0.217-2.142,0.105-2.354c0,0-0.051-0.485-0.961-0.056c0,0,0.107,0.431-4.973,0.269C19.148,10.648,17.221,10.597,17.113,11.45z
		"/>
	<path d="M15.463,16.396l-0.484,1.023c0,0-1.172,5.184-1.814,6.254c0,0-0.107,1.073-1.018,0.214c0,0-2.086-6.577-2.195-6.792
		l-0.693-0.483c0,0-0.426-0.586,0.32-0.642l1.98,0.056c0,0,0.641,0.532-0.213,1.123c0,0,0.105,0.854,1.23,4.118
		c0,0,0.318,1.229,0.693,0.318l1.072-3.796l-0.326-1.124c0,0-0.318-0.535,0.164-0.589C14.18,16.077,15.303,15.971,15.463,16.396z"/>
	<path d="M18.566,17.254l-0.055,5.674l-0.158,0.426c0,0-0.537,0.695-0.164,0.75c0,0-0.477,0.322,3.426,0.373
		c0,0,1.498,0.271,1.121-1.658c0,0-0.158-0.696-0.693,0.322c0,0-0.162,0.853-2.086,0.584c0,0-0.426-0.371-0.426-0.797v-2.355
		c0,0-0.057-0.589,0.854-0.533c0,0,1.018,0.641,1.18,0.371c0,0,0.369-0.855,0-1.391c0,0-0.486-0.052-0.539,0.161
		c0,0-0.322,0.642-1.229,0.269c0,0-0.428-0.857-0.16-1.553c0,0-0.105-1.338,0.805-1.23c0,0,1.066,0.215,1.174,0.535
		c0,0,0.266,0.643,0.535-0.105l-0.27-0.91c0,0-0.158-0.374-0.426-0.266c0,0-1.818,0.266-2.035,0.051l-1.443,0.16
		c0,0-0.215,0.535,0.428,0.801C18.404,16.932,18.566,17.042,18.566,17.254z"/>
	<g>
		<path style="fill:#231F20;" d="M83.334,34.127c0.971-0.252,1.547-1.079,1.547-1.799V14.546c0-0.684-0.539-1.512-1.547-1.8v-0.899
			c0.611,0,2.844,0.071,3.383,0.071c0.611,0,2.916-0.071,3.564-0.071v0.899c-0.973,0.252-1.549,1.08-1.549,1.8v7.199h12.418v-7.199
			c0-0.756-0.504-1.512-1.512-1.8v-0.899c0.613,0,2.916,0.071,3.527,0.071c0.541,0,2.736-0.071,3.385-0.071v0.899
			c-0.973,0.252-1.549,1.08-1.549,1.8v17.782c0,0.684,0.541,1.512,1.549,1.799v0.9c-0.613,0-2.844-0.072-3.385-0.072
			c-0.611,0-2.879,0.072-3.527,0.072v-0.9c0.973-0.252,1.512-1.043,1.512-1.799v-8.531H88.732v8.531c0,0.72,0.504,1.512,1.549,1.799
			v0.9c-0.613,0-2.953-0.072-3.564-0.072c-0.539,0-2.736,0.072-3.383,0.072V34.127z"/>
		<path style="fill:#231F20;" d="M110.262,34.127c1.439-0.359,1.871-1.151,2.375-2.375l7.199-17.35
			c0.324-0.756,0.793-2.772,0.793-2.772h2.447c0,0,0.504,2.017,0.791,2.772l6.695,17.35c0.469,1.224,0.936,2.016,2.375,2.375v0.9
			c-0.898,0-3.023-0.072-3.562-0.072c-0.541,0-2.771,0.072-3.672,0.072v-0.9c1.045-0.359,1.152-0.863,1.08-1.331
			c-0.035-0.216-0.287-0.973-0.396-1.225l-1.223-3.131h-8.459l-1.297,3.131c-0.107,0.252-0.359,1.009-0.396,1.225
			c-0.07,0.468,0.289,0.972,1.332,1.331v0.9c-0.791,0-2.41-0.072-2.879-0.072s-2.268,0.072-3.203,0.072V34.127z M124.371,26.389
			l-3.275-8.459l-3.527,8.459H124.371z"/>
		<path style="fill:#231F20;" d="M136.686,34.127c1.188-0.252,1.691-1.115,1.691-1.835V14.546c0-0.684-0.469-1.512-1.729-1.8v-0.899
			c0.793,0,3.023,0.071,3.637,0.071c1.043,0,3.994-0.216,5.184-0.216c4.174,0,8.459,1.908,8.459,6.875
			c0,2.916-2.125,5.184-5.293,6.083l5.328,6.84c0.791,1.044,1.908,2.052,2.988,2.627v0.792c-3.275,0.504-4.68,0.288-6.516-2.087
			l-6.156-7.884c-0.791,0-1.402-0.071-2.051-0.144v7.487c0,0.72,0.396,1.548,1.619,1.835v0.9c-0.791,0-3.059-0.072-3.672-0.072
			c-0.539,0-2.662,0.072-3.49,0.072V34.127z M142.229,23.113c0.648,0.071,1.512,0.144,2.447,0.144c3.924,0,5.111-2.556,5.111-4.716
			c0-3.06-1.908-5.147-5.326-5.147c-0.686,0-1.512,0.072-2.232,0.217V23.113z"/>
		<path style="fill:#231F20;" d="M159.473,14.438c-0.396-1.079-0.863-1.403-1.98-1.728v-0.863c0.9,0,2.988,0.071,3.564,0.071
			c0.539,0,2.627-0.071,3.562-0.071v0.899c-0.863,0.144-1.439,0.54-1.439,0.9c0,0.216,0.18,0.756,0.396,1.295l5.688,15.083
			l5.867-14.723c0.252-0.612,0.18-1.439,0.145-1.655c-0.109-0.54-0.289-0.721-1.08-0.9v-0.899c0.863,0,2.375,0.071,2.916,0.071
			c0.504,0,2.016-0.071,2.914-0.071v0.899c-1.188,0.288-1.727,0.792-2.158,1.836l-8.424,20.806h-2.016L159.473,14.438z"/>
		<path style="fill:#231F20;" d="M177.76,34.127c1.439-0.359,1.873-1.151,2.377-2.375l7.199-17.35
			c0.322-0.756,0.791-2.772,0.791-2.772h2.447c0,0,0.504,2.017,0.793,2.772l6.695,17.35c0.467,1.224,0.936,2.016,2.375,2.375v0.9
			c-0.9,0-3.023-0.072-3.562-0.072c-0.541,0-2.773,0.072-3.672,0.072v-0.9c1.043-0.359,1.15-0.863,1.08-1.331
			c-0.037-0.216-0.289-0.973-0.396-1.225l-1.225-3.131h-8.459l-1.295,3.131c-0.109,0.252-0.361,1.009-0.396,1.225
			c-0.072,0.468,0.287,0.972,1.332,1.331v0.9c-0.793,0-2.412-0.072-2.879-0.072c-0.469,0-2.27,0.072-3.205,0.072V34.127z
			 M191.871,26.389l-3.275-8.459l-3.527,8.459H191.871z"/>
		<path style="fill:#231F20;" d="M204.184,34.127c1.189-0.252,1.693-1.115,1.693-1.835V14.546c0-0.684-0.469-1.512-1.729-1.8v-0.899
			c0.791,0,3.023,0.071,3.635,0.071c1.045,0,3.996-0.216,5.184-0.216c4.176,0,8.459,1.908,8.459,6.875
			c0,2.916-2.123,5.184-5.291,6.083l5.328,6.84c0.791,1.044,1.906,2.052,2.986,2.627v0.792c-3.275,0.504-4.68,0.288-6.514-2.087
			l-6.156-7.884c-0.791,0-1.404-0.071-2.051-0.144v7.487c0,0.72,0.395,1.548,1.619,1.835v0.9c-0.793,0-3.061-0.072-3.672-0.072
			c-0.539,0-2.664,0.072-3.492,0.072V34.127z M209.729,23.113c0.646,0.071,1.512,0.144,2.447,0.144c3.924,0,5.111-2.556,5.111-4.716
			c0-3.06-1.908-5.147-5.328-5.147c-0.684,0-1.512,0.072-2.23,0.217V23.113z"/>
		<path style="fill:#231F20;" d="M228.086,34.127c1.225-0.216,1.729-1.151,1.729-1.907V14.546c0-0.684-0.504-1.512-1.729-1.8v-0.899
			c0.793,0,3.025,0.071,3.637,0.071c1.043,0,4.176-0.216,6.443-0.216c7.271,0,12.166,5.291,12.166,12.131
			c0,6.623-4.967,11.338-12.166,11.338c-2.268,0-5.4-0.216-6.443-0.216c-0.611,0-2.809,0.072-3.637,0.072V34.127z M233.666,33.048
			c0.793,0.144,2.016,0.216,3.131,0.216c5.508,0,9.396-3.852,9.396-9.575c0-5.507-3.816-10.295-9.215-10.295
			c-1.152,0-2.52,0.072-3.312,0.217V33.048z"/>
		<path d="M282.805,30.096l-0.217,4.14c-0.18-0.036-1.008,0.072-1.871,0.252c-2.016,0.432-3.924,0.9-6.012,0.9
			c-8.1,0-12.418-5.328-12.418-11.951c0-6.695,4.787-11.95,12.418-11.95c1.943,0,3.779,0.504,5.65,0.899
			c1.008,0.217,1.477,0.252,1.873,0.252l0.215,4.14h-0.898c-1.297-2.556-4.033-3.348-6.84-3.348c-5.256,0-8.279,4.428-8.279,10.007
			c0,4.571,2.881,10.007,8.279,10.007c2.951,0,5.795-0.611,7.199-3.348H282.805z"/>
		<path d="M285.146,23.509c0-6.407,4.572-12.022,11.771-12.022c7.162,0,11.734,5.579,11.734,12.022
			c0,6.407-4.572,11.879-11.734,11.879C289.719,35.388,285.146,29.952,285.146,23.509z M304.514,23.509
			c0-5.184-2.232-10.079-7.596-10.079s-7.631,4.896-7.631,10.079s2.268,9.935,7.631,9.935S304.514,28.692,304.514,23.509z"/>
		<path d="M312.795,34.127c1.223-0.216,1.727-1.151,1.727-1.907V14.546c0-0.899-0.504-1.512-1.871-1.8v-0.899
			c0.611,0,3.203,0.071,3.816,0.071c0.539,0,3.166-0.071,3.814-0.071v0.899c-1.367,0.36-1.908,0.9-1.908,1.8v18.43h6.264
			c2.123,0,3.061-0.972,3.996-2.844l0.898,0.216l-0.574,4.823c-2.16-0.216-3.385-0.216-5.688-0.216h-6.84
			c-0.611,0-2.807,0.072-3.635,0.072V34.127z"/>
		<path d="M333.674,34.127c1.225-0.216,1.729-1.151,1.729-1.907V14.546c0-0.899-0.504-1.512-1.873-1.8v-0.899
			c0.613,0,3.205,0.071,3.816,0.071c0.539,0,3.168-0.071,3.816-0.071v0.899c-1.369,0.36-1.908,0.9-1.908,1.8v18.43h6.264
			c2.123,0,3.059-0.972,3.994-2.844l0.9,0.216l-0.576,4.823c-2.16-0.216-3.383-0.216-5.688-0.216h-6.838
			c-0.613,0-2.809,0.072-3.637,0.072V34.127z"/>
		<path d="M353.689,34.127c1.225-0.216,1.729-1.151,1.729-1.907V14.51c0-0.684-0.504-1.476-1.729-1.764v-0.899h14.004
			c0.359,0,0.936-0.072,1.332-0.288h0.898l-0.107,4.499h-0.9c-0.504-1.476-1.584-2.231-3.311-2.231h-6.336v8.099h5.58
			c0.898,0,1.512-0.432,1.979-1.332h0.936c-0.07,0.721-0.07,1.872-0.07,2.269c0,0.396,0.035,1.583,0.035,2.304h-0.9
			c-0.504-0.864-1.115-1.332-1.979-1.332h-5.58v9.143h6.264c2.195,0,3.275-0.828,3.959-2.124l0.936,0.216l-0.576,4.104
			c-2.158-0.216-3.383-0.216-5.686-0.216h-6.84c-0.611,0-2.809,0.072-3.637,0.072V34.127z"/>
		<path d="M391.957,27.108c0-0.648-0.18-1.404-2.053-1.728v-0.937c0.793,0,3.168,0.072,3.779,0.072c0.541,0,2.305-0.072,3.133-0.072
			v0.9c-0.756,0.216-1.008,0.972-1.008,1.871v6.947c0,0-1.225,0.108-2.988,0.612c-1.043,0.288-3.312,0.612-5.615,0.612
			c-7.486,0-13.031-4.32-13.031-12.022c0-7.271,5.436-11.879,12.744-11.879c2.086,0,3.418,0.504,5.326,0.899
			c1.008,0.217,1.477,0.252,1.871,0.252l0.217,4.14h-0.9c-1.223-2.159-3.742-3.348-6.371-3.348c-5.254,0-8.746,4.104-8.746,9.503
			c0,6.012,3.24,10.511,9.287,10.511c1.654,0,3.635-0.899,4.355-1.296V27.108z"/>
		<path d="M402.074,34.127c1.225-0.216,1.729-1.151,1.729-1.907V14.51c0-0.684-0.504-1.476-1.729-1.764v-0.899h14.002
			c0.359,0,0.936-0.072,1.332-0.288h0.9l-0.109,4.499h-0.898c-0.504-1.476-1.584-2.231-3.312-2.231h-6.334v8.099h5.578
			c0.9,0,1.512-0.432,1.98-1.332h0.936c-0.072,0.721-0.072,1.872-0.072,2.269c0,0.396,0.037,1.583,0.037,2.304h-0.9
			c-0.504-0.864-1.117-1.332-1.98-1.332h-5.578v9.143h6.262c2.197,0,3.275-0.828,3.961-2.124l0.936,0.216l-0.576,4.104
			c-2.16-0.216-3.383-0.216-5.688-0.216h-6.84c-0.611,0-2.807,0.072-3.635,0.072V34.127z"/>
	</g>
</g>
</svg>
