<?xml version="1.0" encoding="iso-8859-1"?>
<!-- Generator: Adobe Illustrator 16.2.1, SVG Export Plug-In . SVG Version: 6.00 Build 0)  -->
<!DOCTYPE svg PUBLIC "-//W3C//DTD SVG 1.1//EN" "http://www.w3.org/Graphics/SVG/1.1/DTD/svg11.dtd">
<svg version="1.1" id="Layer_1" xmlns="http://www.w3.org/2000/svg" xmlns:xlink="http://www.w3.org/1999/xlink" x="0px" y="0px"
	 width="308px" height="73px" viewBox="0 0 308 73" style="enable-background:new 0 0 308 73;" xml:space="preserve">
<path d="M182.864,10.604c-0.643-1.412-1.626-2.441-3.287-2.811V6.97c1.038,0,4.471,0.124,5.262,0.124
	c0.726,0,4.055-0.124,5.116-0.124v0.803c-0.942,0.183-2.02,0.708-2.02,1.678c0,0.683,0.425,1.628,1.215,3.405l7.54,17.139
	l7.133-17.169c0.559-1.392,0.973-2.455,0.973-3.277c0-0.912-0.843-1.533-2.028-1.776V6.97c0.946,0,3.238,0.124,3.971,0.124
	c0.662,0,3.39-0.124,4.424-0.124v0.777c-1.779,0.479-2.864,1.502-3.856,3.822l-10.491,24.748h-2.371L182.864,10.604"/>
<path d="M81.331,35.373c1.369-0.312,2.331-0.931,2.331-2.485V10.2c0-1.492-0.895-2.108-2.331-2.483V6.911
	c0.717,0,3.817,0.122,4.57,0.122c0.869,0,4.117-0.122,4.832-0.122v0.806c-1.371,0.311-2.384,0.932-2.384,2.483v9.478h16.903V10.2
	c0-1.551-0.901-2.172-2.329-2.483V6.911c0.714,0,3.904,0.122,4.77,0.122c0.749,0,3.919-0.122,4.627-0.122v0.806
	c-1.368,0.311-2.385,0.932-2.385,2.483v22.688c0,1.491,0.953,2.112,2.385,2.485v0.747c-0.708,0-3.878-0.063-4.627-0.063
	c-0.866,0-4.056,0.063-4.77,0.063v-0.747c1.363-0.312,2.329-0.931,2.329-2.485V22.166H88.349v10.722
	c0,1.554,0.949,2.112,2.384,2.485v0.747c-0.715,0-3.963-0.063-4.832-0.063c-0.753,0-3.853,0.063-4.57,0.063V35.373"/>
<path d="M276.852,35.373c1.757-0.312,2.72-1.005,2.72-2.609V10.2c0-1.555-0.953-2.172-2.647-2.483V6.911
	c0.976,0,4.155,0.122,5.034,0.122c1.421,0,5.386-0.31,8.472-0.31c10.399,0,16.713,5.805,16.713,14.637
	c0,8.582-6.569,14.941-17.293,14.941c-3.09,0-6.754-0.244-8.19-0.244c-0.871,0-3.834,0.125-4.808,0.125V35.373 M284.252,33.879
	c1.061,0.194,3.018,0.313,4.561,0.313c8.734,0,13.281-5.258,13.281-12.588c0-7.602-4.797-12.952-12.963-12.952
	c-1.666,0-3.756,0.122-4.879,0.307V33.879z"/>
<path d="M159.149,32.682c0,1.5,0.953,2.318,2.712,2.691v0.809c-0.978,0-4.161-0.125-5.073-0.125c-0.777,0-3.894,0.125-4.872,0.125
	v-0.809c1.628-0.312,2.59-1.119,2.59-2.691V10.278c0-1.379-0.75-2.25-2.589-2.561V6.911c0.979,0,4.063,0.122,4.93,0.122
	c1.429,0,5.486-0.238,7.083-0.238c6.99,0,10.884,2.891,10.884,7.84c0,3.897-2.901,6.523-7.357,7.608c0,0,1.006,0.588,2.024,1.772
	c1.234,1.452,4.641,6.325,6.02,7.997c1.375,1.67,3.138,3.539,5.03,3.625v0.655c-0.904,0.197-2.354,0.367-3.459,0.367
	c-2.386,0-4.28-0.836-6.12-3.069c-1.589-1.934-4.365-6.052-5.958-8.084c-1.018-1.295-2.241-2.305-4.492-2.675
	c-0.443-0.075-0.861-0.135-1.352-0.19V32.682 M159.149,20.781c0.929,0.122,2.298,0.184,3.653,0.184c5.47,0,7.188-3.146,7.188-5.928
	c0-3.949-2.632-6.385-7.422-6.385c-0.987,0-2.427,0.122-3.42,0.307V20.781z"/>
<path d="M251.321,32.682c0,1.5,0.955,2.318,2.709,2.691v0.809c-0.976,0-4.151-0.125-5.071-0.125c-0.781,0-3.894,0.125-4.873,0.125
	v-0.809c1.625-0.312,2.586-1.119,2.586-2.691V10.278c0-1.379-0.748-2.25-2.582-2.561V6.911c0.983,0,4.055,0.122,4.926,0.122
	c1.433,0,5.486-0.238,7.078-0.238c7.002,0,10.888,2.891,10.888,7.84c0,3.897-2.898,6.523-7.359,7.608c0,0,1.013,0.588,2.022,1.772
	c1.244,1.452,4.65,6.325,6.025,7.997c1.379,1.67,3.146,3.539,5.024,3.625v0.655c-0.896,0.197-2.349,0.367-3.445,0.367
	c-2.391,0-4.29-0.836-6.129-3.069c-1.584-1.934-4.358-6.052-5.957-8.084c-1.016-1.295-2.243-2.305-4.489-2.675
	c-0.447-0.075-0.858-0.135-1.353-0.19V32.682 M251.321,20.781c0.933,0.122,2.297,0.184,3.651,0.184c5.47,0,7.187-3.146,7.187-5.928
	c0-3.949-2.631-6.385-7.414-6.385c-0.995,0-2.43,0.122-3.424,0.307V20.781z"/>
<path d="M116.768,35.372c1.85-0.436,2.865-1.631,3.54-3.235l9.361-22.524c0.398-0.935,0.861-2.849,0.861-2.849h2.621
	c0,0,0.469,1.92,0.859,2.855l9.892,22.579c0.704,1.556,1.471,2.677,3.437,3.174l-0.005,0.748c-1.073,0-4.401-0.063-5.159-0.063
	c-0.756,0-3.931,0.063-5.005,0.063l0.005-0.748c1.44-0.356,1.894-1.09,1.894-1.797c0-0.602-0.247-1.281-0.548-1.989l-2.127-4.851
	h-10.903l-1.947,4.879c-0.219,0.553-0.477,1.334-0.477,1.859c0,0.815,0.424,1.463,2.058,1.899l-0.004,0.748
	c-0.967,0-3.521-0.063-4.122-0.063l-4.234,0.063L116.768,35.372 M135.404,24.436l-4.654-10.848l-4.336,10.848H135.404z"/>
<g>
	<defs>
		<rect id="SVGID_1_" x="0.06" y="0.246" width="307.083" height="72.694"/>
	</defs>
	<clipPath id="SVGID_2_">
		<use xlink:href="#SVGID_1_"  style="overflow:visible;"/>
	</clipPath>
	<path style="clip-path:url(#SVGID_2_);" d="M209.514,35.372c1.848-0.436,2.867-1.631,3.538-3.235l9.366-22.524
		c0.396-0.935,0.862-2.849,0.862-2.849h2.621c0,0,0.463,1.92,0.853,2.855l9.897,22.579c0.698,1.556,1.467,2.677,3.428,3.174
		l-0.002,0.748c-1.067,0-4.401-0.063-5.16-0.063c-0.75,0-3.928,0.063-5.002,0.063l0.003-0.748c1.45-0.356,1.893-1.09,1.893-1.797
		c0-0.602-0.243-1.281-0.543-1.989l-2.133-4.851h-10.901l-1.945,4.879c-0.221,0.553-0.478,1.334-0.478,1.859
		c0,0.815,0.423,1.463,2.06,1.899l-0.002,0.748c-0.969,0-3.523-0.063-4.126-0.063l-4.234,0.063L209.514,35.372 M228.153,24.436
		l-4.66-10.848l-4.334,10.848H228.153z"/>
	<path style="clip-path:url(#SVGID_2_);" d="M135.604,68.681L135.364,72c-0.12-0.039-0.76,0.08-1.599,0.24
		c-1.84,0.359-3.4,0.76-5.32,0.76c-7.318,0-10.918-4.319-10.918-9.718c0-5.439,4.24-9.679,10.918-9.679c2,0,3.36,0.44,4.28,0.6
		c1.08,0.2,1.96,0.36,2.319,0.36l0.24,3.358h-0.519c-1.201-2.159-4-2.919-6.32-2.919c-4.799,0-7.598,3.68-7.598,8.279
		c0,3.719,2.719,8.317,7.598,8.317c2.44,0,5.36-0.639,6.639-2.919H135.604"/>
	<path style="clip-path:url(#SVGID_2_);" d="M151.565,53.604c6.279,0,10.278,4.438,10.278,9.679c0,5.239-3.999,9.718-10.278,9.718
		c-6.319,0-10.358-4.479-10.358-9.718C141.207,58.042,145.246,53.604,151.565,53.604 M158.523,63.282
		c0-4.24-2.079-8.279-6.958-8.279c-4.879,0-7.039,4.039-7.039,8.279c0,4.239,2.16,8.317,7.039,8.317
		C156.444,71.6,158.523,67.521,158.523,63.282z"/>
</g>
<path d="M168.606,72.2c1.079-0.2,1.519-1.04,1.519-1.679V56.003c0-0.76-0.439-1.36-1.639-1.6v-0.521c0.439,0,2.639,0.08,3.198,0.08
	c0.48,0,2.721-0.08,3.16-0.08v0.521c-1.16,0.279-1.68,0.8-1.68,1.6v15.038h5.799c1.96,0,2.92-0.681,3.72-2.28l0.521,0.12
	l-0.521,3.919c-1.8-0.16-2.88-0.16-4.92-0.16h-6.079c-0.56,0-2.479,0.08-3.078,0.08V72.2"/>
<path d="M189.166,72.2c1.08-0.2,1.52-1.04,1.52-1.679V56.003c0-0.76-0.439-1.36-1.64-1.6v-0.521c0.44,0,2.64,0.08,3.2,0.08
	c0.479,0,2.719-0.08,3.159-0.08v0.521c-1.16,0.279-1.681,0.8-1.681,1.6v15.038h5.8c1.96,0,2.92-0.681,3.72-2.28l0.519,0.12
	l-0.519,3.919c-1.8-0.16-2.88-0.16-4.92-0.16h-6.078c-0.561,0-2.48,0.08-3.08,0.08V72.2"/>
<g>
	<defs>
		<rect id="SVGID_3_" x="0.06" y="0.246" width="307.083" height="72.694"/>
	</defs>
	<clipPath id="SVGID_4_">
		<use xlink:href="#SVGID_3_"  style="overflow:visible;"/>
	</clipPath>
	<path style="clip-path:url(#SVGID_4_);" d="M209.606,72.2c1.079-0.2,1.519-1.04,1.519-1.679V56.003c0-0.6-0.479-1.4-1.519-1.6
		v-0.521h12.276c0.361,0,1-0.04,1.361-0.2h0.52l-0.08,3.681h-0.52c-0.441-1.2-1.521-2-3.12-2h-5.879v6.799h5.199
		c0.84,0,1.479-0.32,1.92-1.04h0.519c-0.039,0.479-0.039,1.4-0.039,1.72c0,0.32,0.039,1.2,0.039,1.719h-0.519
		c-0.44-0.679-1.08-1-1.92-1h-5.199v7.64h5.799c1.999,0,3.119-0.679,3.72-1.879l0.521,0.12l-0.521,3.358
		c-1.801-0.16-2.88-0.16-4.92-0.16h-6.078c-0.561,0-2.479,0.08-3.079,0.08V72.2"/>
	<path style="clip-path:url(#SVGID_4_);" d="M246.284,66.201c0-0.601-0.201-1.32-1.92-1.56v-0.52c0.599,0,2.638,0.08,3.199,0.08
		c0.479,0,2.079-0.08,2.68-0.08v0.52c-0.68,0.159-0.92,0.959-0.92,1.68V72c0,0-1,0.08-2.561,0.48c-0.92,0.239-2.599,0.52-4.639,0.52
		c-6.599,0-11.758-3.479-11.758-9.758c0-5.919,4.799-9.639,11.198-9.639c1.839,0,3.118,0.44,3.959,0.6
		c1.079,0.2,1.96,0.36,2.318,0.36l0.241,3.358h-0.52c-1.12-1.999-3.641-2.919-5.88-2.919c-4.76,0-7.999,3.439-7.999,7.879
		c0,4.959,3.359,8.718,8.8,8.718c1.8,0,3.158-0.639,3.8-0.959V66.201"/>
</g>
<path d="M257.485,72.2c1.08-0.2,1.519-1.04,1.519-1.679V56.003c0-0.6-0.478-1.4-1.519-1.6v-0.521h12.277c0.361,0,1-0.04,1.361-0.2
	h0.519l-0.08,3.681h-0.52c-0.44-1.2-1.519-2-3.119-2h-5.88v6.799h5.2c0.839,0,1.479-0.32,1.92-1.04h0.519
	c-0.04,0.479-0.04,1.4-0.04,1.72c0,0.32,0.04,1.2,0.04,1.719h-0.519c-0.441-0.679-1.081-1-1.92-1h-5.2v7.64h5.8
	c1.999,0,3.119-0.679,3.719-1.879l0.521,0.12l-0.521,3.358c-1.8-0.16-2.879-0.16-4.919-0.16h-6.078c-0.562,0-2.48,0.08-3.08,0.08
	V72.2"/>
<path style="fill:#A51D31;" d="M0.282,0.731V24.37c0,29.007,28.969,47.486,29.263,47.672c0.002,0,0.093,0.058,0.093,0.058
	c0.075-0.004,0.258-0.128,0.258-0.128c4.928-3.232,29.511-20.724,29.511-47.455l0.008-23.786H0.282"/>
<g>
	<defs>
		<rect id="SVGID_5_" x="0.06" y="0.246" width="307.083" height="72.694"/>
	</defs>
	<clipPath id="SVGID_6_">
		<use xlink:href="#SVGID_5_"  style="overflow:visible;"/>
	</clipPath>
	<path style="clip-path:url(#SVGID_6_);fill:none;stroke:#231F20;stroke-width:0.5;" d="M0.282,0.731V24.37
		c0,29.007,28.969,47.486,29.263,47.672c0.002,0,0.093,0.058,0.093,0.058c0.075-0.004,0.258-0.128,0.258-0.128
		c4.928-3.232,29.511-20.724,29.511-47.455l0.008-23.786H0.282z"/>
</g>
<path style="fill:#FFFFFF;" d="M42.227,6.039l-0.528,0.019c-0.009,0-0.744-0.001-0.744-0.001l-1.513,0.117
	c-0.011,0.001-1.189,0.051-1.189,0.051c-0.005,0-2.282,0.044-2.282,0.044l-0.244-0.046c0,0-0.095-0.013-0.188-0.027
	C35.492,6.386,35.416,6.7,35.416,6.7s0.05,0.694,0.05,0.705c0,0.172-0.009,1.377-0.009,1.377c-0.281,0.732-0.881,0.716-1.17,0.707
	l-0.308,0.018c0-0.002-0.487,0.072-0.487,0.072c-0.034,0.003-0.192,0.014-0.234,0.017c-0.016,0.052-0.052,0.241-0.052,0.241
	l0.114,0.608c0.015,0.064,0.036,0.141,0.036,0.141c0.012,0.049,0.017,0.087,0.424,0.175c0.004,0,0.083,0.018,0.133,0.031
	c0.191-0.049,0.636-0.162,0.636-0.162c0.042,0.006,0.261,0.079,0.261,0.079c0.191,0.065,0.563,0.193,0.709,0.634
	c0.007,0.028,0.018,0.281,0.018,0.281l-0.011,0.95c-0.002,0.032-0.034,0.626-0.034,0.626l0.076,0.616
	c0.003,0.02,0.003,0.044,0.003,0.069c0,0.084-0.009,0.179-0.009,0.179c-0.007,0.03-0.025,0.487-0.025,0.494
	c0.002,0.003,0.031,0.306,0.031,0.306c0,0.316-0.116,0.58-0.344,0.784l-0.327,0.133c0,0-1.034,0.044-1.289,0.055
	c-0.06,0.052-0.154,0.158-0.154,0.511l0.054,0.593c0.003-0.021,0.098,0.051,0.19,0.058c0.001,0,0.505-0.017,0.505-0.017
	c0.333-0.048,0.933-0.13,1.296,0.416l0.089,0.296l-0.002,1.095c0,0.007-0.042,1.915-0.042,1.922c0-0.006,0.01,0.043,0.017,0.094
	c0.454-0.03,1.465-0.027,3.97-0.014c-0.036,0-0.062,0.025-0.089,0.041c0.12-0.049,0.35-0.094,0.804-0.179
	c0.822,0.145,1.498,0.117,2.153,0.086c0.007,0,1.29-0.011,1.29-0.011c0.057,0.005,0.447,0.14,0.447,0.14
	c0.002,0,0.236,0.179,0.236,0.179c0.335,0.462,0.568,0.704,0.835,0.689c0.094-0.11,0.258-0.281,0.559-0.585l0.076-0.1l0.336-0.193
	c0.002,0,1.174-0.168,1.174-0.168c0.038-0.003,0.054-0.004,6.433-0.023c0,0,0.468-0.001,0.711-0.002
	c-0.013-0.368-0.092-2.539-0.092-2.539c0-0.021,0.004-0.265,0.004-0.266l-0.004-0.123c0-0.458,0.183-0.769,0.544-0.926
	c0.034-0.011,0.821-0.051,0.821-0.051c0.606,0.023,0.836-0.003,0.943-0.191c0.097-0.14,0.117-0.42,0.052-0.551
	c-0.126-0.294-0.316-0.323-0.95-0.288c-0.009,0-0.543,0.01-0.543,0.01c-1.039-0.209-0.874-1.149-0.81-1.503l-0.002,0.001
	c0-0.017,0.037-0.485,0.037-0.485c-0.004-0.003-0.02-0.932-0.02-0.932c-0.011-0.175-0.02-0.361-0.02-0.554
	c0-0.343,0.033-0.714,0.16-1.109l0.223-0.284c0.388-0.239,0.826-0.207,1.176-0.181c0.528,0.042,0.545,0.001,0.601-0.148
	c0.108-0.273,0.078-0.699,0.004-0.977c-0.062-0.066-0.299-0.076-0.83-0.042c-0.011,0-0.582,0.012-0.582,0.012l-0.266-0.078
	l-0.167-0.104c-0.16-0.101-0.243-0.239-0.245-0.408l-0.01-1.012c0-0.001-0.01-0.983-0.01-0.983c0,0.005-0.018-0.357-0.018-0.357
	c0-0.425-0.036-0.51-0.086-0.553c-0.169,0.014-0.723,0.056-0.723,0.056c-0.013,0.001-0.735,0.016-0.735,0.016
	c0.009-0.001-0.517,0.014-0.517,0.014c0-0.003-0.516-0.065-0.743-0.094c-0.001,0,0,0.004-0.001,0.004
	c-1.171,0.125-2.392,0.125-3.533,0c0.011,0,0.018-0.008,0.027-0.009c-0.013,0.001-0.027,0.005-0.045,0.008
	c-0.004-0.001-0.008,0-0.013-0.001c0.005,0.001,0.009,0,0.013,0.001c-0.138,0.017-0.414,0.044-1.092,0.104
	c-0.011,0.001-0.547,0.022-0.571,0.023c-0.12,0.049-0.257,0.098-0.54,0.191c-0.016,0.005-0.999,0.262-0.999,0.262
	c-0.1,0.006-0.78-0.174-0.78-0.174l-1.172-0.315c-0.053,0.004-0.091,0.016-0.157,0.016c-0.038-0.003-0.348-0.073-0.579-0.124
	C42.236,6.022,42.238,6.039,42.227,6.039"/>
<path style="fill:#231F20;" d="M43.109,5.621c0.63,0.146,1.153,0.314,1.76,0.481c0.587,0,1.006-0.377,1.571-0.461
	c0.567-0.042,1.154,0,1.739-0.126c1.131,0.126,2.326,0.126,3.479,0c0.357,0.231,0.818,0.021,1.215,0.084
	c0.607-0.167,1.131,0.147,1.718-0.084c0.565,0.252,0.379,0.922,0.441,1.403c0.084,0.713-0.062,1.342,0.02,1.991l0.168,0.106
	c0.671,0.041,1.487-0.252,1.906,0.418c0.104,0.398,0.126,0.923-0.02,1.299c-0.357,0.922-1.383,0.209-1.99,0.587
	c-0.274,0.837-0.044,1.529-0.106,2.387c0.127,0.505-0.419,1.363,0.274,1.509c0.669,0.042,1.591-0.272,1.946,0.566
	c0.148,0.294,0.128,0.776-0.061,1.048c-0.398,0.692-1.362,0.377-2.013,0.462c-0.336,0.145-0.186,0.544-0.23,0.795
	c0.106,0.922,0.106,2.032,0.106,2.912l-0.252,0.189l-7.353,0.021l-1.175,0.167c-0.253,0.314-0.523,0.692-0.838,0.859
	c-0.691,0.168-1.13-0.418-1.466-0.88l-0.271-0.104c-1.091-0.063-2.245,0.168-3.333-0.084l-0.775,0.147l-4.275-0.021
	c-0.251-0.084-0.251-0.377-0.273-0.607c0.084-0.964,0.022-1.99,0.044-2.997c-0.294-0.44-0.902-0.063-1.405-0.167
	c-0.292-0.021-0.586-0.23-0.67-0.503c-0.084-0.566-0.167-1.363,0.396-1.698l1.489-0.063c0.399-0.355-0.063-0.837,0.19-1.299
	c-0.234-0.816,0.04-1.591-0.044-2.451c-0.082-0.25-0.334-0.272-0.523-0.355c-0.208-0.021-0.461,0-0.629,0.167
	c-0.397-0.104-0.92-0.126-1.025-0.628c-0.107-0.398-0.273-0.901-0.065-1.321c0.211-0.481,0.757-0.21,1.112-0.375
	c0.357-0.106,0.88,0.125,1.048-0.274c0.228-0.984-0.357-2.138,0.21-3.059c0.271-0.041,0.565-0.021,0.795,0.084
	c0.754-0.063,1.551-0.105,2.262-0.042c0.924-0.126,1.865,0.042,2.745-0.168c0.419,0.063,0.837-0.041,1.28-0.021
	C42.461,5.725,42.836,5.578,43.109,5.621"/>
<path style="fill:none;stroke:#231F20;stroke-width:0.01;" d="M43.109,5.621c0.63,0.146,1.153,0.314,1.76,0.481
	c0.587,0,1.006-0.377,1.571-0.461c0.567-0.042,1.154,0,1.739-0.126c1.131,0.126,2.326,0.126,3.479,0
	c0.357,0.231,0.818,0.021,1.215,0.084c0.607-0.167,1.131,0.147,1.718-0.084c0.565,0.252,0.379,0.922,0.441,1.403
	c0.084,0.713-0.062,1.342,0.02,1.991l0.168,0.106c0.671,0.041,1.487-0.252,1.906,0.418c0.104,0.398,0.126,0.923-0.02,1.299
	c-0.357,0.922-1.383,0.209-1.99,0.587c-0.274,0.837-0.044,1.529-0.106,2.387c0.127,0.505-0.419,1.363,0.274,1.509
	c0.669,0.042,1.591-0.272,1.946,0.566c0.148,0.294,0.128,0.776-0.061,1.048c-0.398,0.692-1.362,0.377-2.013,0.462
	c-0.336,0.145-0.186,0.544-0.23,0.795c0.106,0.922,0.106,2.032,0.106,2.912l-0.252,0.189l-7.353,0.021l-1.175,0.167
	c-0.253,0.314-0.523,0.692-0.838,0.859c-0.691,0.168-1.13-0.418-1.466-0.88l-0.271-0.104c-1.091-0.063-2.245,0.168-3.333-0.084
	l-0.775,0.147l-4.275-0.021c-0.251-0.084-0.251-0.377-0.273-0.607c0.084-0.964,0.022-1.99,0.044-2.997
	c-0.294-0.44-0.902-0.063-1.405-0.167c-0.292-0.021-0.586-0.23-0.67-0.503c-0.084-0.566-0.167-1.363,0.396-1.698l1.489-0.063
	c0.399-0.355-0.063-0.837,0.19-1.299c-0.234-0.816,0.04-1.591-0.044-2.451c-0.082-0.25-0.334-0.272-0.523-0.355
	c-0.208-0.021-0.461,0-0.629,0.167c-0.397-0.104-0.92-0.126-1.025-0.628c-0.107-0.398-0.273-0.901-0.065-1.321
	c0.211-0.481,0.757-0.21,1.112-0.375c0.357-0.106,0.88,0.125,1.048-0.274c0.228-0.984-0.357-2.138,0.21-3.059
	c0.271-0.041,0.565-0.021,0.795,0.084c0.754-0.063,1.551-0.105,2.262-0.042c0.924-0.126,1.865,0.042,2.745-0.168
	c0.419,0.063,0.837-0.041,1.28-0.021C42.461,5.725,42.836,5.578,43.109,5.621"/>
<path style="fill:#FFFFFF;" d="M54.215,6.395l0.126,2.913c0.355,0.67,1.214,0.23,1.843,0.378c0.168,0.02,0.378,0.145,0.378,0.333
	c0,0.21-0.045,0.503-0.294,0.503c-0.441-0.062-0.859,0.105-1.236,0.043c-0.274,0.02-0.609,0.062-0.691,0.355
	c-0.106,1.531,0.02,3.122,0,4.652l0.375,0.272l1.636-0.042c0.165,0.042,0.293,0.252,0.377,0.399
	c-0.022,0.229-0.167,0.44-0.377,0.503c-0.691-0.021-1.594-0.335-2.011,0.356l-0.064,0.502c0.042,0.903,0.042,1.822-0.02,2.767
	c-0.064,0.314-0.483,0.23-0.756,0.273c-0.396-0.105-0.795,0.104-1.153-0.043c-0.585,0.084-1.172,0.251-1.717,0.043
	c-1.298-0.105-2.765,0.124-4.023,0c-0.104-0.043-0.126-0.19-0.062-0.295c0.481-0.251,1.006-0.041,1.571-0.105
	c1.843-0.041,3.624-0.02,5.384-0.041c0.315-0.125,0.335-0.44,0.357-0.733c0.103-1.719,0.125-3.332,0.062-5.051
	c-0.027-0.219,0.041-0.291,0-0.46c-0.23-1.508,0.147-3.08-0.04-4.568c-0.21-0.859,0.335-1.739-0.274-2.431
	c-0.146-0.188-0.461-0.293-0.377-0.543C53.48,6.123,53.983,6.206,54.215,6.395"/>
<path style="fill:#FFFFFF;" d="M51.134,6.291c0.23,0.021,0.502-0.022,0.607,0.208c-0.187,0.818,0.19,1.635-0.042,2.39
	c0.126,0.439-0.084,0.942,0.084,1.362c-0.125,1.507,0.042,2.933,0.064,4.336c-0.148,1.006,0.062,2.137,0,3.101
	c-0.022,0.168-0.148,0.294-0.335,0.272c-0.651,0.041-1.196-0.188-1.803,0c-0.294-0.146-0.671-0.02-0.985,0
	c-1.046-0.146-2.053,0.041-3.017,0.231c-0.147,0-0.209-0.148-0.231-0.251c-0.02-1.383,0.168-2.933,0.022-4.295
	c0.146-0.944-0.167-1.802-0.022-2.725c-0.124-1.256,0.022-2.618-0.02-3.918c0.273-0.481,0.902-0.627,1.467-0.649
	c1.069-0.124,2.075,0.146,3.101-0.062H51.134"/>
<path style="fill:#FFFFFF;" d="M44.491,6.96c0.148,0.482-0.019,0.922,0.106,1.404c-0.042,1.28,0.21,2.514,0.084,3.774
	c0.042,1.988,0,4.147,0.064,6.158c-0.168,0.169-0.377,0-0.545-0.064c-0.546,0.043-1.027-0.231-1.594-0.25
	c-0.984,0.082-2.052-0.126-3.017,0.082c-0.419-0.25-1.257,0.378-1.257-0.461c0.041-0.292,0.041-0.564-0.084-0.836
	c0.021-0.398,0.148-0.818,0.063-1.195L38.29,7.149c-0.042-0.231-0.042-0.44,0.021-0.67l0.21-0.104
	c1.488,0.083,3.205-0.063,4.776,0.02C43.717,6.521,44.242,6.521,44.491,6.96"/>
<path style="fill:#FFFFFF;" d="M37.054,6.499c-0.188,0.503-0.775,0.609-0.921,1.111c0.042,1.55,0.042,3.227,0.104,4.777
	l-0.062,0.524c-0.022,0.776,0.166,1.613,0.02,2.368c0.106,0.167-0.042,0.357,0,0.544c0.064,1.362,0,2.724,0.064,4.107
	c0.104,0.209,0.314,0.399,0.565,0.356c0.986-0.23,2.158,0.043,3.101-0.25l0.753,0.125l2.893-0.043
	c0.106,0.064,0.189,0.127,0.271,0.211c-0.103,0.523-0.796,0.251-1.174,0.335c-0.856-0.062-1.758-0.021-2.576,0.021
	c-1.006-0.252-2.074,0.272-3.017-0.065c-0.397-0.018-1.048,0.19-1.214-0.313c-0.293-0.775,0.166-1.592-0.127-2.389
	c0-0.376,0.063-0.879-0.378-1.067l-1.591-0.022c-0.19-0.105-0.293-0.272-0.271-0.503c-0.064-0.168,0.166-0.314,0.313-0.356
	c0.609-0.105,1.571,0.231,1.887-0.42c0-1.508,0.146-3.078-0.022-4.63c-0.505-0.837-1.488,0.106-2.116-0.524
	c-0.084-0.145-0.062-0.377,0.042-0.522l0.167-0.188c0.587-0.042,1.09-0.106,1.655-0.126l0.252-0.295l0.062-2.535
	c0.042-0.439,0.545-0.231,0.818-0.355C36.72,6.417,36.93,6.375,37.054,6.499"/>
<path style="fill:#FFFFFF;" d="M53.125,7.464c0.104,3.037,0.02,6.348,0.148,9.387c-0.128,0.585,0.062,1.318-0.064,1.885
	l-0.104,0.084l-0.525-0.671c-0.126-0.713,0.084-1.34,0.02-2.095c0.022-2.996-0.084-6.223-0.084-9.155
	c0.106-0.169,0.232,0,0.336,0.061L53.125,7.464"/>
<path style="fill:#FFFFFF;" d="M37.515,7.506c0.126,1.467,0.062,3.079,0.146,4.568c-0.062,1.989,0,3.938-0.04,5.886
	c0.04,0.441-0.294,0.817-0.567,1.005c-0.23-0.69-0.084-1.381-0.124-2.136c0.062-0.754-0.106-1.466-0.044-2.2
	c-0.146-0.126,0.044-0.252,0.022-0.377c-0.084-1.949,0.084-4.023-0.042-6.013c0.02-0.397,0.084-0.775,0.461-0.964
	C37.475,7.254,37.559,7.401,37.515,7.506"/>
<path style="fill:#231F20;" d="M43.213,9.686c0.336,0.481,0.441,1.255,0.126,1.759c-0.251,0.523-0.733,1.027-1.298,1.11
	c-0.253,0.168,0,0.377,0.104,0.525c0.567,0.502,0.901,1.194,1.572,1.57c0,0.334-0.378,0.273-0.608,0.357
	c-0.397-0.043-0.816-0.19-1.048-0.567c-0.313-0.628-0.962-0.943-1.299-1.571c-0.124-0.042-0.186,0.042-0.25,0.126
	c0.064,0.566-0.168,1.341,0.272,1.76c-0.292,0.44-0.943,0.104-1.404,0.168c-0.23-0.252,0.105-0.441,0.084-0.712
	c0.021-1.363-0.022-2.744-0.043-4.15c0.148-0.375-0.838-0.753-0.125-0.922c1.216-0.103,2.43-0.376,3.52,0.148L43.213,9.686"/>
<path style="fill:#231F20;" d="M48.998,9.287c0.125,0.209-0.168,0.293-0.19,0.46c-0.271,0.524,0.084,1.09-0.041,1.613
	c0.041,1.027-0.209,2.096,0.041,3.039c0.084,0.23,0.525,0.209,0.398,0.524l-0.146,0.105c-0.627-0.085-1.32,0.082-1.885-0.147
	c-0.19-0.294,0.314-0.441,0.314-0.734c0.021-1.005-0.062-2.116,0-3.121c0.145-0.314-0.062-0.566-0.021-0.922
	c0.166-0.377-0.735-0.881,0.042-1.006C48.034,9.203,48.558,9.015,48.998,9.287"/>
<path style="fill:#FFFFFF;" d="M41.915,9.727c0.358,0.188,0.523,0.566,0.546,0.942c-0.042,0.63-0.316,1.216-0.88,1.509
	c-0.274,0.084-0.566,0.189-0.882,0.104c-0.187-0.314-0.167-0.754-0.187-1.11c-0.064-0.503,0.064-0.921,0.084-1.425
	c0.21-0.293,0.627-0.187,0.942-0.187C41.622,9.664,41.768,9.706,41.915,9.727"/>
<path style="fill:#FFFFFF;" d="M52.58,19.112c0,0.127,0.126,0.21,0.042,0.336c-0.986,0.315-1.991-0.083-3.017,0.042
	c-1.13,0-2.159,0.147-3.247,0.083c-0.19-0.083-0.377-0.313-0.399-0.543c0-0.189,0.167-0.253,0.335-0.253
	c1.74-0.208,3.666-0.124,5.447-0.188C52.139,18.547,52.393,18.841,52.58,19.112"/>
<path style="fill:#FFFFFF;" d="M43.194,18.715c0.335,0.062,0.67,0.145,0.88,0.44c0.02,0.167-0.126,0.356-0.294,0.377
	c-0.712,0.022-1.467-0.167-2.116,0.041c-1.34,0.042-2.452-0.167-3.792-0.019c-0.083-0.022-0.189-0.043-0.231-0.126
	c-0.02-0.336,0.377-0.568,0.628-0.692c0.693,0.146,1.237-0.251,1.908-0.041L43.194,18.715"/>
<path style="fill:#FFFFFF;" d="M45.687,19.721c0.042,0.67,0.104,1.507-0.503,1.887c-0.251-0.023-0.523-0.106-0.629-0.38
	c-0.147-0.608-0.126-1.423,0.272-1.947C45.246,18.757,45.436,19.532,45.687,19.721"/>
<path style="fill:#FFFFFF;" d="M6.093,6.457h0.001L4.92,6.454c0.01,0,0.014,0.004,0.014,0.012c0,0.032-0.074,0.119-0.089,0.187
	c0.014,0.239,0.073,1.189,0.073,1.189c0,0.007,0.02,1.034,0.02,1.034L4.89,9.128C4.605,9.722,4.018,9.694,3.735,9.682
	c0,0-0.113,0.002-0.184,0.004c-0.021,0.18-0.097,0.756-0.097,0.756s0.025,0.241,0.037,0.383c0.079,0.025,0.18,0.056,0.18,0.056
	c0.009,0.002,0.307,0.04,0.307,0.04c0.038,0.009,0.674,0.188,0.674,0.188c0.282,0.078,0.285,0.34,0.285,0.44
	c0.001,0.043,0.021,0.567,0.021,0.567c0,0.002,0.022,0.704,0.022,0.707c0-0.016,0.036,0.103,0.036,0.103
	c-0.001-0.002-0.001-0.002-0.001-0.002c0,0.014,0.124,0.447,0.124,0.447l-0.073,0.236c0,0.037-0.02,1.61-0.02,1.61
	c0,0.001-0.119,0.326-0.119,0.326c-0.301,0.365-0.724,0.389-1.003,0.403c0.002,0,0.003,0,0.003,0c0,0.003-0.154,0.038-0.268,0.066
	c-0.121,0.158-0.257,0.413-0.257,0.719l0.073,0.367c0.06,0.133,0.287,0.166,0.74,0.182l0.434,0.126
	C4.938,17.65,5.08,18.015,5.08,18.52l-0.032,0.5c0,0.002-0.024,0.334-0.024,0.334c0-0.013,0.036,0.855,0.036,0.855
	c-0.002,0.038-0.013,0.38-0.013,0.38s0.084,0.299,0.125,0.444c0.325-0.001,2.718-0.011,2.718-0.011l2.65-0.028
	c0.527,0.105,0.972,0.062,1.442,0.016c0.022,0,1.418-0.014,1.418-0.014c0.085,0.012,0.79,0.472,0.79,0.472l0.498,0.339
	c-0.002-0.01,0.023-0.001,0.273-0.267c0.25-0.268,0.625-0.672,1.244-0.584c-0.076-0.01-0.152,0.012-0.208,0.06
	c-0.018,0.015-0.017,0.04-0.028,0.059c0.192-0.123,1.029-0.129,4.807-0.156c0.002,0,2.391,0.008,3.008,0.011
	c0.006-0.286,0.028-1.305,0.028-1.305c0-0.001,0.051-1.811,0.051-1.811c0-0.001,0.144-0.326,0.144-0.326
	c0.439-0.457,1-0.421,1.409-0.394c0.386,0.024,0.521,0.014,0.624-0.09c0.104-0.223,0.169-0.685,0.03-0.92
	c-0.054-0.137-0.14-0.141-0.156-0.141c-0.017-0.003-0.703,0.014-0.703,0.014c-0.017,0-0.537-0.017-0.537-0.017
	c-0.002,0-0.328-0.085-0.328-0.085c-0.518-0.344-0.483-0.862-0.463-1.171c0,0.032-0.026-0.392-0.026-0.392
	c0.002,0.021-0.012-0.148-0.012-0.148c0,0.002-0.021-1.133-0.021-1.133l-0.023-1.161c0.171-1.082,1.088-1.067,1.529-1.059
	c0.231,0.004,0.492,0.008,0.573-0.079c0.182-0.219,0.169-0.676,0.047-0.988c-0.096-0.116-0.618-0.078-1.039-0.047
	C24.907,9.678,24.555,9.7,24.555,9.7l-0.393-0.153L24.014,9.4l-0.151-0.336l-0.022-2.079c0,0.006,0,0.009,0,0.008
	c0-0.016-0.034-0.352-0.034-0.352c0-0.011-0.054-0.227-0.077-0.328c-0.197,0.016-0.894,0.067-0.894,0.067
	c-0.087,0.01-2.38-0.075-2.38-0.075c-0.539,0.17-1.233,0.113-1.902,0.058l-0.51-0.038c-0.892-0.035-1.697,0.067-2.703,0.244
	c-0.028,0.004-0.369,0.089-0.369,0.089c-0.181,0.085-0.539,0.248-0.992,0.104c-0.574-0.326-1.223-0.349-1.91-0.372
	c-0.011-0.001-1.176-0.087-1.176-0.087C9.346,6.477,7.766,6.467,6.093,6.457 M23.75,6.311c0.014,0.004,0.044-0.003,0.107-0.007
	C23.857,6.304,23.769,6.31,23.75,6.311z M3.553,9.674c0.002-0.003,0.018,0,0.018-0.004c0-0.012-0.006-0.031-0.006-0.066
	c0-0.012,0.001-0.025,0.004-0.041C3.569,9.563,3.557,9.648,3.553,9.674z"/>
<path style="fill:#231F20;" d="M14.139,6.263c0.461,0.147,0.734-0.252,1.11-0.21c0.942-0.167,1.823-0.292,2.83-0.251
	c0.775,0.043,1.613,0.189,2.407-0.02c0.733,0.063,1.552,0.104,2.265,0.084c0.397-0.105,0.837-0.084,1.278-0.084
	c0.397,0.293,0.251,0.796,0.335,1.215c-0.042,0.67-0.064,1.361,0.022,2.032l0.146,0.148c0.629-0.022,1.508-0.21,1.906,0.355
	c0.188,0.483,0.188,1.131-0.147,1.53c-0.545,0.607-1.801-0.209-1.969,0.817c-0.106,0.775,0.168,1.488,0.042,2.305
	c0.168,0.439-0.167,0.941,0.272,1.237c0.461-0.085,0.858,0.145,1.278,0c0.251,0,0.524,0.145,0.607,0.396
	c0.273,0.462,0.127,1.133-0.104,1.552c-0.567,0.586-1.488-0.085-2.031,0.482c-0.127,1.132,0.02,2.284-0.086,3.415l-0.293,0.187
	c-2.64,0.043-5.258-0.104-7.878,0.022c-0.732-0.106-0.9,1.069-1.676,0.796c-0.418-0.146-0.671-0.547-1.089-0.755
	c-0.942-0.147-1.886,0.208-2.829,0c-1.905-0.063-3.771,0.148-5.72,0.042c-0.524-0.608-0.147-1.487-0.314-2.221
	c0-0.44,0.209-1.194-0.189-1.528c-0.482-0.022-1.09,0-1.319-0.503c-0.252-0.588-0.063-1.278,0.314-1.719
	c0.336-0.292,0.922-0.021,1.215-0.378l0.021-1.675c0.23-0.251-0.168-0.46-0.084-0.754c0.063-0.461-0.104-0.776-0.042-1.216
	c-0.209-0.167-0.565-0.083-0.838-0.167c-0.231-0.041-0.46-0.126-0.586-0.335c-0.126-0.565-0.042-1.195,0.126-1.739
	c0.356-0.399,1.048,0.105,1.298-0.42c-0.105-0.775,0.084-1.57-0.084-2.368C4.396,6.263,4.648,6.011,4.92,5.928
	c2.095,0,4.023,0.063,6.034-0.146C12.044,5.95,13.259,5.739,14.139,6.263"/>
<path style="fill:none;stroke:#231F20;stroke-width:0.01;" d="M14.139,6.263c0.461,0.147,0.734-0.252,1.11-0.21
	c0.942-0.167,1.823-0.292,2.83-0.251c0.775,0.043,1.613,0.189,2.407-0.02c0.733,0.063,1.552,0.104,2.265,0.084
	c0.397-0.105,0.837-0.084,1.278-0.084c0.397,0.293,0.251,0.796,0.335,1.215c-0.042,0.67-0.064,1.361,0.022,2.032l0.146,0.148
	c0.629-0.022,1.508-0.21,1.906,0.355c0.188,0.483,0.188,1.131-0.147,1.53c-0.545,0.607-1.801-0.209-1.969,0.817
	c-0.106,0.775,0.168,1.488,0.042,2.305c0.168,0.439-0.167,0.941,0.272,1.237c0.461-0.085,0.858,0.145,1.278,0
	c0.251,0,0.524,0.145,0.607,0.396c0.273,0.462,0.127,1.133-0.104,1.552c-0.567,0.586-1.488-0.085-2.031,0.482
	c-0.127,1.132,0.02,2.284-0.086,3.415l-0.293,0.187c-2.64,0.043-5.258-0.104-7.878,0.022c-0.732-0.106-0.9,1.069-1.676,0.796
	c-0.418-0.146-0.671-0.547-1.089-0.755c-0.942-0.147-1.886,0.208-2.829,0c-1.905-0.063-3.771,0.148-5.72,0.042
	c-0.524-0.608-0.147-1.487-0.314-2.221c0-0.44,0.209-1.194-0.189-1.528c-0.482-0.022-1.09,0-1.319-0.503
	c-0.252-0.588-0.063-1.278,0.314-1.719c0.336-0.292,0.922-0.021,1.215-0.378l0.021-1.675c0.23-0.251-0.168-0.46-0.084-0.754
	c0.063-0.461-0.104-0.776-0.042-1.216c-0.209-0.167-0.565-0.083-0.838-0.167c-0.231-0.041-0.46-0.126-0.586-0.335
	c-0.126-0.565-0.042-1.195,0.126-1.739c0.356-0.399,1.048,0.105,1.298-0.42c-0.105-0.775,0.084-1.57-0.084-2.368
	C4.396,6.263,4.648,6.011,4.92,5.928c2.095,0,4.023,0.063,6.034-0.146C12.044,5.95,13.259,5.739,14.139,6.263"/>
<path style="fill:#FFFFFF;" d="M21.138,6.872c0.061,0.963-0.148,1.906,0.081,2.828c-0.062,1.592-0.081,3.351-0.04,4.987
	c-0.063,1.068,0.146,2.136,0.04,3.226l-0.229,0.169c-1.844,0.186-4.128-0.462-5.783,0.48c-0.126,0.021-0.271-0.02-0.271-0.145
	c-0.063-0.818,0.125-1.677-0.084-2.389c0.188-0.986,0.084-2.012,0-2.977c0.125-1.989-0.044-3.896,0.042-5.908
	c0.607-0.565,1.571-0.481,2.368-0.544c1.068-0.084,2.22,0.083,3.224-0.167C20.782,6.432,21.157,6.515,21.138,6.872"/>
<path style="fill:#FFFFFF;" d="M23.567,6.766c0.126,0.985-0.084,2.012,0.23,2.912c0.589,0.357,1.322-0.041,1.971,0.148
	c0.229,0.146,0.188,0.46,0.104,0.628l-0.21,0.209c-0.627,0.105-1.529-0.251-1.927,0.399c-0.02,1.612-0.042,3.08-0.042,4.735
	c0.084,0.146,0.146,0.355,0.336,0.376c0.565-0.126,1.09-0.167,1.675-0.145c0.21,0.167,0.357,0.44,0.188,0.67
	c-0.543,0.627-1.444,0.042-2.115,0.398l-0.104,0.251c-0.085,1.048-0.022,2.158-0.044,3.227c-0.229,0.294-0.69,0.169-1.004,0.188
	c-0.461-0.167-0.88,0.272-1.34,0c-1.112-0.041-2.2,0.188-3.206,0.106l-2.055-0.106c-0.104-0.041-0.126-0.167-0.062-0.272
	c0.691-0.441,1.593,0.148,2.326-0.292c0.504,0.103,1.152,0.229,1.633,0c0.546-0.168,0.839,0.418,1.342,0.103
	c0.544,0.231,1.153,0,1.717-0.041l0.252-0.42c-0.022-1.863,0.02-3.709,0.042-5.448c-0.042-1.591-0.042-3.33-0.106-4.943
	c0.106-0.651,0.022-1.342-0.02-2.012l-0.732-0.755c0.125-0.292,0.627-0.125,0.942-0.147L23.567,6.766"/>
<path style="fill:#FFFFFF;" d="M13.993,7.018c0.188,2.934,0.042,6.096,0.124,8.967l0.086,0.21c-0.022,0.796-0.086,1.634,0.04,2.41
	c-0.355,0.167-0.647-0.273-1.026-0.294c-0.921,0.021-1.843-0.46-2.786-0.189c-0.651-0.189-1.342,0.063-2.013-0.021l-0.209-0.188
	c0.064-3.121-0.188-6.432-0.062-9.555C8.041,7.919,8.083,7.333,8.083,6.872l0.19-0.19c1.675,0.105,3.184-0.042,4.84-0.125
	C13.448,6.599,13.826,6.703,13.993,7.018"/>
<path style="fill:#FFFFFF;" d="M6.597,6.787C6.45,7.312,5.695,7.542,5.822,8.19c0.083,2.012,0.146,4.045,0.083,6.077
	c0.126,0.713-0.042,1.445,0.041,2.201c-0.189,0.314,0.064,0.585-0.02,0.901c0.064,0.942,0.064,1.82,0.105,2.766
	c0.146,0.503,0.733,0.335,1.131,0.335c1.279-0.065,2.64,0.02,3.876-0.085c0.735,0.085,1.613-0.042,2.304,0.168
	c0,0.085,0,0.231-0.125,0.273c-1.613,0.146-3.143-0.083-4.799,0l-2.869-0.021l-0.21-0.21l-0.083-3.289
	c-0.441-0.65-1.949,0.335-1.738-0.901c0.417-0.588,1.318,0.126,1.738-0.545c0.042-1.531-0.084-3.143-0.105-4.819
	c-0.063-0.147-0.189-0.251-0.336-0.293c-0.356,0.188-0.628-0.168-0.985-0.062c-0.187-0.106-0.251-0.337-0.209-0.547
	c0.357-0.481,1.299,0.085,1.509-0.69l0.062-2.514c0.272-0.378,0.902-0.189,1.342-0.253L6.597,6.787"/>
<path style="fill:#FFFFFF;" d="M22.499,9.05c0.106,3.059-0.041,6.222,0.146,9.177c-0.168,0.231,0.084,0.692-0.355,0.712
	c-0.168,0-0.064-0.25-0.188-0.334L21.87,18.29c0.21-1.969,0.022-3.771,0.042-5.783c-0.125-0.734,0.022-1.383-0.02-2.137
	c0.02-0.858-0.022-1.717-0.085-2.598c0-0.167,0.021-0.398,0.169-0.524C22.855,7.396,22.352,8.443,22.499,9.05"/>
<path style="fill:#FFFFFF;" d="M7.309,8.171C7.288,9.029,7.456,9.93,7.35,10.79c0.064,0.943,0.023,1.906,0.085,2.849
	c-0.126,0.9,0.021,1.865-0.021,2.723c0.124,0.399-0.169,0.922,0.042,1.342c0,0.481-0.042,1.068-0.503,1.341
	c-0.104,0.019-0.189-0.044-0.231-0.126c0.063-3.71-0.188-7.333-0.063-11c0.084-0.147,0.21-0.398,0.42-0.419
	C7.456,7.542,7.205,7.94,7.309,8.171"/>
<path style="fill:#231F20;" d="M13.49,9.364C13.512,9.7,13.113,9.7,12.965,9.952c-0.733,1.529-1.109,3.204-1.717,4.756
	c-0.104,0.104-0.251,0.229-0.439,0.188c-0.713-0.586-0.462-1.571-0.987-2.222c-0.208-0.754-0.607-1.403-0.755-2.177
	c-0.083-0.441-0.543-0.671-0.649-1.048c0.168-0.168,0.506-0.063,0.735-0.085c0.314-0.019,0.795-0.146,0.963,0.19
	c-0.314,0.712,0.357,1.256,0.419,1.948c0.168,0.482,0.314,1.047,0.691,1.404h0.084c0.294-1.173,1.048-2.284,0.776-3.583
	c0.314-0.294,0.963-0.294,1.362-0.084L13.49,9.364"/>
<path style="fill:#231F20;" d="M19.125,9.742c0.021,0.21,0.168,0.397,0.083,0.628c-0.062,0.252-0.333,0.147-0.481,0.084
	c-0.251-0.272-0.523-0.544-0.836-0.754c-0.254,0.084-0.673-0.022-0.735,0.335c0.062,0.651-0.126,1.298,0.084,1.885
	c0.168,0.169,0.397,0.106,0.607,0.042c0.232-0.167,0.293-0.523,0.609-0.523c0.188,0.46,0.167,0.984,0.02,1.487
	c-0.439,0.168-0.671-0.754-1.194-0.293l-0.126,0.168l0.062,1.655c0.19,0.356,0.629,0.126,0.945,0.147
	c0.564-0.042,0.816-0.65,0.942-1.09c0.062-0.021,0.125-0.084,0.23-0.063c0.335,0.357,0.125,0.86,0.147,1.277
	c-0.106,0.357-0.483,0.273-0.733,0.357l-1.006-0.02c-0.713,0-1.593,0.126-2.304,0c-0.126-0.064-0.106-0.252-0.042-0.337
	c0.669-0.019,0.481-0.753,0.669-1.172c-0.082-1.132,0.168-2.473-0.124-3.561c-0.128-0.231-0.567-0.274-0.483-0.566
	c0.629-0.273,1.32-0.064,2.01-0.147C18.037,9.554,19.146,8.569,19.125,9.742"/>
<path style="fill:#FFFFFF;" d="M21.807,19.086c0.147,0.084,0.253,0.294,0.211,0.504l-0.211,0.105
	c-1.193,0.145-2.389-0.065-3.603,0.061c-0.735,0.042-1.529-0.061-2.242,0c-0.252,0.021-0.483-0.126-0.587-0.334
	c-0.105-0.294,0.231-0.336,0.377-0.421c1.57-0.377,3.311-0.166,4.966-0.272C21.094,18.562,21.597,18.772,21.807,19.086"/>
<path style="fill:#FFFFFF;" d="M13.826,19.317c0.124,0.251-0.17,0.398-0.336,0.439c-1.781,0.126-3.416-0.103-5.197,0
	c-0.252-0.041-0.627,0.042-0.837-0.166c0.104-0.295,0.376-0.526,0.627-0.671c0.965-0.041,1.949-0.295,2.914-0.062
	C11.939,18.772,13.029,18.835,13.826,19.317"/>
<path style="fill:#FFFFFF;" d="M15.187,20.553c-0.063,0.377,0.105,0.943-0.379,1.048c-0.187,0.063-0.417,0.02-0.565-0.085
	c-0.25-0.356-0.23-0.815-0.23-1.256c0.126-0.251,0.274-0.545,0.567-0.67C15.02,19.63,15.081,20.198,15.187,20.553"/>
<path style="fill:#FFFFFF;" d="M33.716,46.75c-0.029,0.015-0.017,0.016-0.048,0.017c0,0-1.166,0.049-1.175,0.049
	c-0.004,0.006-0.755,0.192-0.755,0.192c-0.414,0.063-0.751,0.114-0.961,0.324c-0.14,0.14-0.321,0.189-0.499,0.137l-1.1-0.32
	c0,0-1.192-0.343-1.197-0.344c-0.372,0.036-1.108,0.042-2.58,0.057c-0.004,0-3.775-0.027-3.775-0.027
	c-0.618-0.019-0.948,0.022-1.074,0.266c0.038,0.321,0.057,0.967,0.091,2.405c0,0.013-0.103,0.327-0.103,0.327l-0.19,0.25
	c0,0.001-0.394,0.211-0.394,0.211c-0.001,0-0.246,0.021-0.246,0.021c-0.036,0.001-0.541-0.029-0.649-0.037
	c-0.035,0.014-0.075,0.031-0.098,0.039c0.023-0.009-0.173,0.019-0.314,0.037c0,0.003-0.135,0.278-0.138,0.284
	c0.002,0.001,0.002,0.004,0.002,0.012c0,0.045-0.015,0.23-0.015,0.23c0,0.263,0.096,0.448,0.237,0.621
	c0.124,0,0.275,0.013,0.477,0.029c0.336-0.016,0.775-0.035,1.172,0.196c0.159,0.093,0.259,0.268,0.259,0.452v3.584l-0.162,0.378
	c-0.37,0.354-0.838,0.378-1.214,0.396c-0.348,0.019-0.505,0.041-0.578,0.135c-0.08,0.274-0.149,0.523-0.016,0.769
	c0.067,0.079,0.299,0.1,0.749,0.096c0.014,0.003,0.669,0.033,0.669,0.033c0.179,0.009,0.317,0.102,0.408,0.275
	c0.212,0.399,0.239,0.789,0.239,1.085l-0.014,0.419c0,0.032,0.022,0.896,0.022,0.896l-0.059,0.74
	c-0.003,0.021-0.056,0.458-0.056,0.458c0,0.104,0.04,0.131,0.081,0.166c0.254-0.029,0.694-0.042,1.565-0.064l1.593-0.06
	c0.616,0.164,1.068,0.104,1.591,0.035c0.019-0.001,1.237-0.076,1.237-0.076c0.078,0.006,0.623,0.096,0.623,0.096
	c0.002,0,0.541,0.057,0.541,0.057c0.006,0,0.006,0.009,0.01,0.01c0.409-0.162,0.856-0.13,1.212-0.046l0.179,0.041l0.339,0.243
	c0.125,0.215,0.398,0.561,0.784,0.676c0.076-0.041,0.207-0.107,0.251-0.131c0.045-0.083,0.08-0.143,0.109-0.192
	c0.006-0.065,0.015-0.14,0.015-0.14c0.279-0.527,0.8-0.542,1.112-0.55c-0.011,0.001,0.248-0.019,0.248-0.019
	c0.002,0,0.448-0.021,0.448-0.021c0.365-0.021,0.844-0.024,1.271,0.144c-0.102-0.019,0.191-0.025,0.191-0.025
	c0.026,0.002,0.164,0.005,0.164,0.005c-0.04-0.001-0.08,0.054-0.114,0.07l0.386-0.175l0.494-0.037c0.02,0,0.875,0.001,0.875,0.001
	c-0.015,0-0.015,0.021-0.025,0.023c0.148-0.009,0.386,0.005,0.853,0.047c0.009,0.001,0.59,0.07,0.592,0.07
	c0.002-0.005,0.884-0.104,0.884-0.104c0.764,0.009,0.824-0.062,0.87-0.218c-0.01-0.185-0.011-0.552-0.013-1.444l0.002-1.564
	l0.118-0.356l0.188-0.23l0.352-0.189c0.004,0,1.247-0.12,1.289-0.123c0.005-0.016,0.096-0.199,0.096-0.199
	c0.006-0.009,0.039-0.076,0.071-0.138c-0.025-0.073-0.058-0.159-0.058-0.159s0.033-0.24,0.036-0.269
	c-0.016-0.023-0.036-0.049-0.04-0.06c-0.043-0.103-0.16-0.141-0.567-0.182l-0.333,0.02c-0.224,0.046-0.809,0.165-1.114-0.406
	c0-0.004-0.06-0.242-0.06-0.242c0-0.001-0.022-3.521-0.022-3.521c-0.002-0.183,0.091-0.349,0.248-0.447l0.166-0.104
	c0.002,0,0.314-0.079,0.314-0.079c0.72,0.053,1.149-0.074,1.341-0.212c0.015-0.042,0.018-0.081,0.037-0.124
	c0.009-0.011,0.013-0.028,0.013-0.028c0-0.02,0-0.04,0-0.059c0-0.438-0.017-0.688-0.192-0.897c-0.066-0.02-0.44-0.016-0.713-0.013
	c-0.007,0-0.486-0.011-0.486-0.011l-0.25-0.077c-0.531-0.332-0.491-0.899-0.467-1.239c0,0.005,0.011-0.222,0.011-0.222l-0.016-1.083
	c0-0.004-0.004-0.456-0.004-0.697c-0.153-0.13-0.443-0.149-0.917-0.104c-0.013,0-0.682,0.028-0.682,0.028s-0.25-0.091-0.302-0.111
	c-0.155,0.012-1.087,0.08-1.087,0.08c-0.004,0-0.973,0.053-0.973,0.053c-0.092-0.003-0.615-0.078-0.615-0.078
	C34.099,46.72,33.887,46.676,33.716,46.75"/>
<path style="fill:#231F20;" d="M34.954,46.333c0.754-0.085,1.507-0.021,2.262-0.147l0.147,0.126
	c0.671,0.042,1.676-0.314,2.117,0.315c0.041,0.775-0.042,1.34,0.02,2.073c0,0.377-0.126,0.797,0.209,1.007
	c0.504,0.042,1.131-0.084,1.572,0.21c0.336,0.397,0.315,0.858,0.315,1.381h-0.043c0.043,0.104-0.084,0.315-0.146,0.441
	c-0.419,0.355-1.174,0.398-1.76,0.355l-0.167,0.104l0.02,3.52c0.19,0.357,0.629,0.043,0.965,0.106
	c0.397,0.041,0.878,0.062,1.068,0.502c0.272,0.21-0.126,0.522,0.146,0.733c-0.21,0.293-0.21,0.755-0.671,0.816l-1.299,0.126
	l-0.188,0.23c0.105,1.069-0.105,2.138,0,3.165c-0.273,0.984-1.57,0.397-2.305,0.71c-0.501-0.021-0.923-0.165-1.445-0.146
	c-0.419-0.103-0.859,0.064-1.299,0.043c-0.167,0.189-0.483,0.063-0.712,0.104c-0.421-0.228-1.069-0.104-1.572-0.104
	c-0.335,0.063-0.776-0.062-0.964,0.293c0.064,0.231-0.272,0.231-0.167,0.461l-0.65,0.336c-0.567-0.084-0.984-0.524-1.256-0.986
	c-0.399-0.082-0.944-0.271-1.258,0c-0.461,0.105-0.776-0.165-1.194-0.146c-1.006-0.062-1.865,0.336-2.829,0.043
	c-1.152-0.043-2.221,0.189-3.394,0.104c-0.691-0.397-0.188-1.215-0.252-1.821c-0.145-0.796,0.168-1.53-0.188-2.2
	c-0.628-0.104-1.403,0.146-1.823-0.397c-0.251-0.463-0.106-0.9,0.062-1.343c0.441-0.564,1.362-0.125,1.845-0.585v-3.584
	c-0.503-0.292-1.194,0.021-1.719-0.209c-0.376-0.377-0.481-0.858-0.419-1.402c0.084-0.252,0.167-0.628,0.503-0.734
	c0.209,0.126,0.377-0.125,0.629-0.062c0.251,0.104,0.545,0,0.818,0l0.188-0.252l-0.063-2.618c0.271-0.607,0.964-0.607,1.592-0.588
	c2.095,0.169,4.379-0.063,6.496,0c0.775,0.147,1.485,0.482,2.262,0.649c0.545-0.544,1.404-0.377,2.075-0.669l1.026-0.022
	C33.989,46.061,34.472,46.312,34.954,46.333"/>
<path style="fill:none;stroke:#231F20;stroke-width:0.01;" d="M34.954,46.333c0.754-0.085,1.507-0.021,2.262-0.147l0.147,0.126
	c0.671,0.042,1.676-0.314,2.117,0.315c0.041,0.775-0.042,1.34,0.02,2.073c0,0.377-0.126,0.797,0.209,1.007
	c0.504,0.042,1.131-0.084,1.572,0.21c0.336,0.397,0.315,0.858,0.315,1.381h-0.043c0.043,0.104-0.084,0.315-0.146,0.441
	c-0.419,0.355-1.174,0.398-1.76,0.355l-0.167,0.104l0.02,3.52c0.19,0.357,0.629,0.043,0.965,0.106
	c0.397,0.041,0.878,0.062,1.068,0.502c0.272,0.21-0.126,0.522,0.146,0.733c-0.21,0.293-0.21,0.755-0.671,0.816l-1.299,0.126
	l-0.188,0.23c0.105,1.069-0.105,2.138,0,3.165c-0.273,0.984-1.57,0.397-2.305,0.71c-0.501-0.021-0.923-0.165-1.445-0.146
	c-0.419-0.103-0.859,0.064-1.299,0.043c-0.167,0.189-0.483,0.063-0.712,0.104c-0.421-0.228-1.069-0.104-1.572-0.104
	c-0.335,0.063-0.776-0.062-0.964,0.293c0.064,0.231-0.272,0.231-0.167,0.461l-0.65,0.336c-0.567-0.084-0.984-0.524-1.256-0.986
	c-0.399-0.082-0.944-0.271-1.258,0c-0.461,0.105-0.776-0.165-1.194-0.146c-1.006-0.062-1.865,0.336-2.829,0.043
	c-1.152-0.043-2.221,0.189-3.394,0.104c-0.691-0.397-0.188-1.215-0.252-1.821c-0.145-0.796,0.168-1.53-0.188-2.2
	c-0.628-0.104-1.403,0.146-1.823-0.397c-0.251-0.463-0.106-0.9,0.062-1.343c0.441-0.564,1.362-0.125,1.845-0.585v-3.584
	c-0.503-0.292-1.194,0.021-1.719-0.209c-0.376-0.377-0.481-0.858-0.419-1.402c0.084-0.252,0.167-0.628,0.503-0.734
	c0.209,0.126,0.377-0.125,0.629-0.062c0.251,0.104,0.545,0,0.818,0l0.188-0.252l-0.063-2.618c0.271-0.607,0.964-0.607,1.592-0.588
	c2.095,0.169,4.379-0.063,6.496,0c0.775,0.147,1.485,0.482,2.262,0.649c0.545-0.544,1.404-0.377,2.075-0.669l1.026-0.022
	C33.989,46.061,34.472,46.312,34.954,46.333"/>
<path style="fill:#FFFFFF;" d="M36.253,47.088c0,3.876,0.208,7.667,0.02,11.522c-0.314,0.378-0.838,0-1.256,0.128
	c-0.566,0.271-1.152-0.084-1.761,0.019c-0.859,0.064-1.716,0.148-2.451,0.524c-0.084,0-0.168-0.104-0.126-0.209
	c-0.082-0.713,0.148-1.383-0.104-1.99c0-0.462,0.146-0.86,0.126-1.341c-0.022-0.42-0.064-0.839-0.084-1.299
	c-0.106-0.231-0.397-0.084-0.587-0.127l-0.104,0.127c-0.19,1.57,0.02,3.079,0.02,4.566c-0.02,0.168,0.148,0.272,0.042,0.44
	c-0.084,0.104-0.335,0.104-0.42,0c-0.481-0.398-1.172-0.314-1.716-0.544c-0.358,0.167-0.692-0.084-1.049-0.064l-2.787,0.042
	c-0.292-0.062-0.272-0.229-0.334-0.481c0.042-0.607-0.084-1.069,0.021-1.677c-0.105-0.523,0-1.152-0.062-1.653
	c0.041-1.595,0.019-3.458-0.084-5.094c0.084-0.607-0.042-1.298,0-1.885c0.146-0.397-0.274-0.983,0.313-1.152
	c1.927,0.419,4.107-0.356,5.866,0.649c0.148,0.649-0.106,1.447,0.23,2.013c0.254-0.17,0.735,0.188,0.777-0.189l-0.064-1.529
	c0.315-0.524,0.964-0.566,1.489-0.755c1.276-0.146,2.66-0.271,3.959-0.125L36.253,47.088"/>
<path style="fill:none;stroke:#231F20;stroke-width:0.25;" d="M36.253,47.088c0,3.876,0.208,7.667,0.02,11.522
	c-0.314,0.378-0.838,0-1.256,0.128c-0.566,0.271-1.152-0.084-1.761,0.019c-0.859,0.064-1.716,0.148-2.451,0.524
	c-0.084,0-0.168-0.104-0.126-0.209c-0.082-0.713,0.148-1.383-0.104-1.99c0-0.462,0.146-0.86,0.126-1.341
	c-0.022-0.42-0.064-0.839-0.084-1.299c-0.106-0.231-0.397-0.084-0.587-0.127l-0.104,0.127c-0.19,1.57,0.02,3.079,0.02,4.566
	c-0.02,0.168,0.148,0.272,0.042,0.44c-0.084,0.104-0.335,0.104-0.42,0c-0.481-0.398-1.172-0.314-1.716-0.544
	c-0.358,0.167-0.692-0.084-1.049-0.064l-2.787,0.042c-0.292-0.062-0.272-0.229-0.334-0.481c0.042-0.607-0.084-1.069,0.021-1.677
	c-0.105-0.523,0-1.152-0.062-1.653c0.041-1.595,0.019-3.458-0.084-5.094c0.084-0.607-0.042-1.298,0-1.885
	c0.146-0.397-0.274-0.983,0.313-1.152c1.927,0.419,4.107-0.356,5.866,0.649c0.148,0.649-0.106,1.447,0.23,2.013
	c0.254-0.17,0.735,0.188,0.777-0.189l-0.064-1.529c0.315-0.524,0.964-0.566,1.489-0.755c1.276-0.146,2.66-0.271,3.959-0.125
	L36.253,47.088"/>
<path style="fill:#FFFFFF;" d="M38.726,47.088c0.083,1.027,0.041,2.011,0.126,3.018c0.522,0.629,1.487-0.063,1.988,0.587
	c0.064,0.292-0.104,0.587-0.375,0.605c-0.504,0.168-1.3-0.272-1.636,0.273c-0.083,0.461,0,0.858,0.023,1.278
	c-0.064,0.481,0.103,0.984-0.064,1.486c0.021,0.63,0.105,1.279,0.041,1.97c0.398,0.586,1.236,0.211,1.843,0.314
	c0.086,0.146,0.336,0.169,0.212,0.378c-0.567,0.608-1.613-0.042-2.096,0.65c-0.084,0.606-0.042,1.277-0.021,1.864
	c-0.189,0.586,0.315,1.381-0.313,1.76c-1.364,0.042-2.725,0.021-4.087,0.021c-0.817,0.125-1.782,0-2.618,0.041
	c-0.126,0-0.315-0.085-0.294-0.252l0.043-0.127c2.2-0.208,4.294-0.04,6.515-0.124l0.209-0.252c0.252-0.942-0.084-2.052,0.104-3.017
	c-0.083-3.164-0.062-6.411-0.124-9.534c-0.127-0.356-0.483-0.523-0.69-0.836c-0.023-0.105,0.062-0.211,0.187-0.253
	C38.055,46.961,38.432,46.899,38.726,47.088"/>
<path style="fill:#FFFFFF;" d="M22.005,47.193c-0.084,0.312-0.419,0.461-0.565,0.731c-0.21,1.069,0.084,2.136-0.042,3.122
	c0.062,0.922-0.042,1.97,0.168,2.871c-0.106,0.795-0.21,1.635-0.042,2.429l-0.105,0.378l0.105,3.877
	c0.251,0.608,1.068,0.314,1.55,0.354c1.948-0.04,4.043,0.044,5.991,0.021c0.022,0.063,0.106,0.105,0.086,0.188
	c-0.399,0.19-0.902,0.588-1.32,0.211c-1.403-0.042-2.703,0.021-4.045,0c-0.375-0.062-0.816-0.083-1.214,0.021
	c-0.483-0.167-1.112,0.167-1.532-0.188c-0.187-0.734,0.086-1.761-0.229-2.453c0.21-0.314,0.168-0.817-0.042-1.131l-0.145-0.104
	l-1.53-0.085c-0.126-0.188-0.4-0.396-0.19-0.628c0.482-0.355,1.09-0.167,1.698-0.251c0.293-0.211,0.229-0.565,0.293-0.858
	c-0.147-1.195,0.104-2.619-0.126-3.876c-0.313-0.965-2.242,0.188-2.013-1.175c0.568-0.566,1.678,0.21,2.055-0.671l0.042-2.682
	c0.042-0.187,0.232-0.229,0.398-0.271C21.502,47.045,21.839,46.94,22.005,47.193"/>
<path style="fill:#FFFFFF;" d="M22.886,47.695l0.041,2.765c0.23,0.232-0.041,0.504-0.019,0.754c0.04,2.62-0.106,5.386,0.019,7.942
	c-0.229,0.146-0.293,0.647-0.628,0.461c-0.252-0.21-0.104-0.524-0.062-0.776c0.019-0.586-0.022-1.108-0.042-1.716
	c-0.106-0.841,0.125-1.741-0.086-2.537l0.086-0.209c-0.042-1.592-0.126-3.478-0.086-5.092c0-0.587-0.124-1.403,0.567-1.738
	C22.78,47.506,22.886,47.612,22.886,47.695"/>
<path style="fill:#FFFFFF;" d="M37.489,48.281c0.148,1.571,0.023,3.039,0.106,4.568c-0.168,0.377,0.062,0.774,0,1.109
	c0,1.803,0,3.773,0,5.554c-0.064,0.083-0.147,0.146-0.232,0.083l-0.295-0.587c0-3.729-0.04-7.501-0.062-11.209
	C37.363,47.485,37.363,48.115,37.489,48.281"/>
<path style="fill:#231F20;" d="M35.603,49.77v1.132c-0.084,0.083-0.168,0.251-0.294,0.209c-0.585-0.146-0.23-1.05-0.963-1.133
	c-0.357-0.02-0.796,0.022-0.964,0.422c-0.19,0.228-0.146,0.585-0.043,0.836c0.838,1.215,3.018,1.781,2.432,3.562
	c-0.106,0.398-0.48,0.69-0.817,0.901c-0.525,0.062-1.089-0.062-1.572,0.188c-0.293,0.085-0.461-0.146-0.712-0.146
	c-0.482,0-1.109,0.146-1.488-0.126c0.064-0.314,0.525-0.566,0.252-0.944c-0.022-0.25-0.188-0.48-0.377-0.605
	c-0.776,0.271-2.179-0.547-2.263,0.774c-0.042,0.314,0.545,0.754-0.02,0.901c-1.154-0.147-2.284,0.168-3.353,0.021
	c-0.126-0.043-0.105-0.23-0.022-0.295c0.21-0.041,0.398-0.292,0.504-0.479l-0.021-4.527c-0.147-0.229-0.461-0.146-0.692-0.166
	c-0.46,0.041-0.587,0.712-1.048,0.67c-0.126-0.356,0.086-0.774,0.189-1.153c0.168-0.378,0.585-0.271,0.819-0.083
	c1.046,0.146,2.302,0.104,3.392-0.146c0.252,0.565-0.335,1.005-0.501,1.508c-0.483,0.042-0.022-0.732-0.505-0.795
	c-0.271-0.044-0.565,0.083-0.607,0.354c-0.126,0.607,0.064,1.194-0.084,1.802c0.126,0.357,0.126,0.671,0,1.026
	c0.106,0.421,0.232,0.923,0.106,1.363c-0.022,0.209,0.126,0.419,0.333,0.481c0.442,0.021,0.839-0.189,1.069-0.587
	c0.335-1.09,0.734-2.158,1.215-3.184c0.128-0.629,0.272-1.257,0.713-1.761c0.608,0,0.316,0.733,0.691,1.006
	c0.19,0.483,0.336,0.964,0.568,1.425c0.271,0.921,0.732,1.804,0.942,2.745c0.103,0.125,0.188,0.313,0.355,0.335
	c0.293,0,0.231-0.356,0.274-0.566c0.081-0.167-0.064-0.46,0.145-0.544c0.42,0.294,0.42,0.964,1.049,1.131
	c0.291,0.044,0.545-0.062,0.774-0.209c0.168-0.146,0.273-0.357,0.23-0.566c-0.545-0.712-1.361-1.13-1.885-1.843
	c-0.503-0.337-0.733-0.88-0.754-1.468c-0.168-0.69,0.315-1.193,0.818-1.551c0.501-0.271,1.108,0.147,1.591-0.167
	C35.291,49.497,35.562,49.518,35.603,49.77"/>
<path style="fill:#FFFFFF;" d="M30.427,51.928c0.17,0.522,0.442,1.047,0.378,1.612c-0.419,0.273-0.901,0-1.32-0.063
	c-0.146-0.126-0.042-0.335,0-0.48c0.021-0.546,0.315-1.007,0.609-1.425C30.301,51.571,30.345,51.803,30.427,51.928"/>
<path style="fill:#FFFFFF;" d="M37.028,59.993c0.062,0.314-0.274,0.146-0.419,0.231c-1.13-0.063-2.137,0.124-3.227,0.021
	c-0.838,0.125-1.549-0.042-2.346,0.041c-0.105-0.083-0.147-0.23-0.084-0.377c0.755-0.357,1.697-0.44,2.536-0.461
	c0.963-0.084,1.821,0.042,2.765,0C36.589,59.449,36.882,59.762,37.028,59.993"/>
<path style="fill:#FFFFFF;" d="M28.229,59.596c0.061,0.188,0.23,0.021,0.355,0.105c0.232,0.146,0.649,0.146,0.649,0.523
	c-0.291,0.146-0.711,0.166-1.004,0.062c-1.007,0.211-2.055-0.062-3.079,0.062c-0.776-0.145-1.509,0.064-2.264-0.083
	c-0.084-0.041-0.042-0.146-0.064-0.251c0.922-0.838,2.138-0.335,3.31-0.523C26.867,59.596,27.494,59.491,28.229,59.596"/>
<path style="fill:#FFFFFF;" d="M30.743,61.231c0.084,0.292,0.062,0.628-0.022,0.898c-0.124,0.189-0.356,0.42-0.608,0.253
	c-0.355-0.337-0.46-0.883-0.293-1.361c0.126-0.169,0.168-0.378,0.378-0.523C30.597,60.517,30.597,60.978,30.743,61.231"/>
<path style="fill:#FFFFFF;" d="M54.693,44.495L29.818,19.161L4.635,43.619c0,0,0.809,1.716,1.193,2.338
	c0.195,0.316,0.69,1.482,1.973,3.604c1.159,1.92,2.51,3.776,2.51,3.776L29.9,33.227l19.75,19.769l1.851-2.777l1.925-3.263
	L54.693,44.495"/>
<path style="fill:none;stroke:#231F20;stroke-width:0.5;stroke-linejoin:round;" d="M54.693,44.495L29.818,19.161L4.635,43.619
	c0,0,0.809,1.716,1.193,2.338c0.195,0.316,0.69,1.482,1.973,3.604c1.159,1.92,2.51,3.776,2.51,3.776L29.9,33.227l19.75,19.769
	l1.851-2.777l1.925-3.263L54.693,44.495z"/>
</svg>
